SplineFontDB: 3.0
FontName: DEV-PaniniItalic
FullName: DEV Panini Italic
FamilyName: DEV Panini
Weight: Book
Copyright: Copyright (c) 2009-2015, NLCI (http://www.nlci.in/fonts/)
Version: 1.0 Wed Sep 13 14:59:01 1995
ItalicAngle: 12
UnderlinePosition: -594
UnderlineWidth: 41
Ascent: 1638
Descent: 410
InvalidEm: 0
LayerCount: 2
Layer: 0 0 "Back" 1
Layer: 1 0 "Fore" 0
XUID: [1021 943 1119777821 6327671]
FSType: 0
OS2Version: 0
OS2_WeightWidthSlopeOnly: 0
OS2_UseTypoMetrics: 1
CreationTime: 1258090205
ModificationTime: 1433223597
PfmFamily: 81
TTFWeight: 400
TTFWidth: 5
LineGap: 0
VLineGap: 0
Panose: 5 0 0 0 0 0 0 0 0 0
OS2TypoAscent: 275
OS2TypoAOffset: 1
OS2TypoDescent: -376
OS2TypoDOffset: 1
OS2TypoLinegap: 0
OS2WinAscent: -764
OS2WinAOffset: 1
OS2WinDescent: -314
OS2WinDOffset: 1
HheadAscent: -764
HheadAOffset: 1
HheadDescent: 314
HheadDOffset: 1
OS2SubXSize: 1434
OS2SubYSize: 1331
OS2SubXOff: 0
OS2SubYOff: 293
OS2SupXSize: 1434
OS2SupYSize: 1331
OS2SupXOff: 0
OS2SupYOff: 928
OS2StrikeYSize: 102
OS2StrikeYPos: 530
OS2Vendor: 'Alts'
OS2UnicodeRanges: 00000000.00000000.00000000.00000000
Lookup: 1 0 0 "Wide I-matra" { "Wide I-matra-1"  } []
Lookup: 1 0 0 "'nukt' Nukta Forms in Devanagari lookup 6" { "'locl' Local Forms in Devanagari lookup 6-1"  } ['nukt' ('deva' <'NEP ' > ) ]
Lookup: 4 0 0 "'akhn' Akhand in Devanagari lookup 0" { "'akhn' Akhand in Devanagari lookup 0 subtable"  } ['akhn' ('deva' <'HIN ' 'NEP ' 'dflt' > ) ]
Lookup: 4 0 0 "'rphf' Reph Form in Devanagari lookup 1" { "'rphf' Reph Form in Devanagari lookup 1 subtable"  } ['rphf' ('deva' <'HIN ' 'NEP ' 'dflt' > ) ]
Lookup: 4 0 0 "'blwf' Below Base Forms in Devanagari lookup 2" { "'blwf' Below Base Forms in Devanagari lookup 2 subtable"  } ['blwf' ('deva' <'HIN ' 'NEP ' 'dflt' > ) ]
Lookup: 4 8 0 "'half' Half Forms in Devanagari lookup 3" { "'half' Half Forms in Devanagari lookup 3 subtable"  } ['half' ('deva' <'HIN ' 'NEP ' 'dflt' > ) ]

StartChar: .notdef
Encoding: 65536 -1 0
Width: 1024
Flags: W
HStem: 0 64<128 896> 1319 64<128 896>
VStem: 64 64<64 1319> 896 64<64 1319>
LayerCount: 2
Back
Fore
SplineSet
64 0 m 1
 64 1383 l 1
 960 1383 l 1
 960 0 l 1
 64 0 l 1
896 64 m 1
 896 1319 l 1
 128 1319 l 1
 128 64 l 1
 896 64 l 1
EndSplineSet
EndChar

StartChar: quotedbl
Encoding: 34 34 3
Width: 678
GlyphClass: 2
Flags: HW
LayerCount: 2
Back
Fore
SplineSet
440 1384 m 0
 440 1376.66666667 436.333333333 1360.16666667 429 1334.5 c 128
 421.666666667 1308.83333333 412.166666667 1278.16666667 400.5 1242.5 c 128
 388.833333333 1206.83333333 376.166666667 1168.83333333 362.5 1128.5 c 128
 348.833333333 1088.16666667 335.833333333 1050 323.5 1014 c 128
 311.166666667 978 300 946.333333333 290 919 c 128
 280 891.666666667 273.333333333 873.333333333 270 864 c 1
 205 864 l 1
 231 1321 l 2
 232.333333333 1341.66666667 235.333333333 1360.5 240 1377.5 c 128
 244.666666667 1394.5 251.666666667 1409.33333333 261 1422 c 128
 270.333333333 1434.66666667 282.666666667 1444.5 298 1451.5 c 128
 313.333333333 1458.5 332.666666667 1462 356 1462 c 256
 379.333333333 1462 399.166666667 1455.33333333 415.5 1442 c 128
 431.833333333 1428.66666667 440 1409.33333333 440 1384 c 0
770 1384 m 0
 770 1376.66666667 766.166666667 1360.16666667 758.5 1334.5 c 128
 750.833333333 1308.83333333 741.166666667 1278.16666667 729.5 1242.5 c 128
 717.833333333 1206.83333333 705.166666667 1168.83333333 691.5 1128.5 c 128
 677.833333333 1088.16666667 664.5 1050 651.5 1014 c 128
 638.5 978 627.166666667 946.333333333 617.5 919 c 128
 607.833333333 891.666666667 601.333333333 873.333333333 598 864 c 1
 532 864 l 1
 557 1321 l 2
 558.333333333 1341.66666667 561.5 1360.5 566.5 1377.5 c 128
 571.5 1394.5 578.833333333 1409.33333333 588.5 1422 c 128
 598.166666667 1434.66666667 610.666666667 1444.5 626 1451.5 c 128
 641.333333333 1458.5 660.666666667 1462 684 1462 c 0
 708.666666667 1462 729.166666667 1455.33333333 745.5 1442 c 128
 761.833333333 1428.66666667 770 1409.33333333 770 1384 c 0
EndSplineSet
EndChar

StartChar: numbersign
Encoding: 35 35 4
Width: 1522
GlyphClass: 2
Flags: HW
LayerCount: 2
Back
Fore
SplineSet
692 862 m 1
 594 569 l 1
 891 569 l 1
 989 862 l 1
 692 862 l 1
1104 862 m 1
 1006 569 l 1
 1335 569 l 1
 1335 467 l 1
 971 467 l 1
 797 -47 l 1
 694 -14 l 1
 856 467 l 1
 559 467 l 1
 385 -47 l 1
 283 -12 l 1
 446 467 l 1
 156 467 l 1
 156 569 l 1
 479 569 l 1
 580 862 l 1
 250 862 l 1
 250 967 l 1
 614 967 l 1
 778 1450 l 1
 883 1417 l 1
 727 967 l 1
 1026 967 l 1
 1188 1450 l 1
 1294 1417 l 1
 1139 967 l 1
 1425 967 l 1
 1425 862 l 1
 1104 862 l 1
EndSplineSet
EndChar

StartChar: dollar
Encoding: 36 36 5
Width: 1139
GlyphClass: 2
Flags: HW
LayerCount: 2
Back
Fore
SplineSet
762 371 m 0
 762 415 750.333333333 454.166666667 727 488.5 c 128
 703.666666667 522.833333333 666.666666667 551.666666667 616 575 c 1
 526 113 l 1
 602.666666667 131.666666667 661.166666667 163.333333333 701.5 208 c 128
 741.833333333 252.666666667 762 307 762 371 c 0
627 1268 m 1
 594.333333333 1258 564.666666667 1245.16666667 538 1229.5 c 128
 511.333333333 1213.83333333 488.5 1195.5 469.5 1174.5 c 128
 450.5 1153.5 435.833333333 1130 425.5 1104 c 128
 415.166666667 1078 410 1050 410 1020 c 0
 410 974 421.333333333 935 444 903 c 128
 466.666666667 871 499 844.333333333 541 823 c 1
 627 1268 l 1
1001 1010 m 1
 881 1010 l 1
 891 1210 l 2
 891 1214.66666667 888.333333333 1220.5 883 1227.5 c 128
 877.666666667 1234.5 872.666666667 1239 868 1241 c 0
 866.666666667 1241.66666667 862.5 1243.66666667 855.5 1247 c 128
 848.5 1250.33333333 839.666666667 1253.83333333 829 1257.5 c 128
 818.333333333 1261.16666667 805.833333333 1264.83333333 791.5 1268.5 c 128
 777.166666667 1272.16666667 761.666666667 1274.66666667 745 1276 c 1
 649 768 l 1
 694.333333333 753.333333333 737 735.333333333 777 714 c 128
 817 692.666666667 851.833333333 668 881.5 640 c 128
 911.166666667 612 934.5 580.166666667 951.5 544.5 c 128
 968.5 508.833333333 977 469.333333333 977 426 c 0
 977 373.333333333 968.5 326.5 951.5 285.5 c 128
 934.5 244.5 912.166666667 208.5 884.5 177.5 c 128
 856.833333333 146.5 825.666666667 120.333333333 791 99 c 128
 756.333333333 77.6666666667 721.333333333 60 686 46 c 128
 650.666666667 32 616.833333333 21.5 584.5 14.5 c 128
 552.166666667 7.5 524.666666667 3.33333333333 502 2 c 1
 463 -209 l 1
 342 -209 l 1
 381 0 l 1
 345 2 311.333333333 5.33333333333 280 10 c 128
 248.666666667 14.6666666667 219 20.6666666667 191 28 c 128
 163 35.3333333333 135.666666667 44.1666666667 109 54.5 c 128
 82.3333333333 64.8333333333 55.6666666667 76.6666666667 29 90 c 1
 94 412 l 1
 231 412 l 1
 213 176 l 2
 213 170.666666667 214.5 166.666666667 217.5 164 c 128
 220.5 161.333333333 223.666666667 159.333333333 227 158 c 0
 229.666666667 156.666666667 236.5 153.5 247.5 148.5 c 128
 258.5 143.5 272 138 288 132 c 128
 304 126 321.833333333 120.333333333 341.5 115 c 128
 361.166666667 109.666666667 381.666666667 106 403 104 c 1
 504 627 l 1
 460.666666667 645 420.833333333 665.333333333 384.5 688 c 128
 348.166666667 710.666666667 316.666666667 735.833333333 290 763.5 c 128
 263.333333333 791.166666667 242.5 821.666666667 227.5 855 c 128
 212.5 888.333333333 205 925 205 965 c 0
 205 1023 217.166666667 1075.66666667 241.5 1123 c 128
 265.833333333 1170.33333333 298.333333333 1211.16666667 339 1245.5 c 128
 379.666666667 1279.83333333 426.666666667 1307.5 480 1328.5 c 128
 533.333333333 1349.5 589 1362.66666667 647 1368 c 1
 676 1522 l 1
 793 1522 l 1
 768 1374 l 1
 801.333333333 1372.66666667 834 1369.33333333 866 1364 c 128
 898 1358.66666667 927.5 1352.83333333 954.5 1346.5 c 128
 981.5 1340.16666667 1005 1334 1025 1328 c 128
 1045 1322 1059 1317.66666667 1067 1315 c 1
 1001 1010 l 1
EndSplineSet
EndChar

StartChar: percent
Encoding: 37 37 6
Width: 1761
GlyphClass: 2
Flags: HW
LayerCount: 2
Back
Fore
SplineSet
645 1161 m 0
 645 1179 643.833333333 1197.83333333 641.5 1217.5 c 128
 639.166666667 1237.16666667 634.166666667 1255.33333333 626.5 1272 c 128
 618.833333333 1288.66666667 608 1302.33333333 594 1313 c 128
 580 1323.66666667 561.666666667 1329 539 1329 c 0
 507.666666667 1329 479.666666667 1319.16666667 455 1299.5 c 128
 430.333333333 1279.83333333 408.666666667 1254.16666667 390 1222.5 c 128
 371.333333333 1190.83333333 355.333333333 1155.33333333 342 1116 c 128
 328.666666667 1076.66666667 317.833333333 1037.5 309.5 998.5 c 128
 301.166666667 959.5 295 922.5 291 887.5 c 128
 287 852.5 285 823.666666667 285 801 c 0
 285 782.333333333 286.5 762.666666667 289.5 742 c 128
 292.5 721.333333333 298 702.333333333 306 685 c 128
 314 667.666666667 325.333333333 653.333333333 340 642 c 128
 354.666666667 630.666666667 373.666666667 625 397 625 c 0
 427.666666667 625 455 635.166666667 479 655.5 c 128
 503 675.833333333 524.166666667 702 542.5 734 c 128
 560.833333333 766 576.5 802 589.5 842 c 128
 602.5 882 613.166666667 922 621.5 962 c 128
 629.833333333 1002 635.833333333 1039.5 639.5 1074.5 c 128
 643.166666667 1109.5 645 1138.33333333 645 1161 c 0
1532 582 m 0
 1532 600 1530.66666667 618.833333333 1528 638.5 c 128
 1525.33333333 658.166666667 1520.16666667 676.166666667 1512.5 692.5 c 128
 1504.83333333 708.833333333 1493.83333333 722.5 1479.5 733.5 c 128
 1465.16666667 744.5 1446.33333333 750 1423 750 c 0
 1392.33333333 750 1364.83333333 740.166666667 1340.5 720.5 c 128
 1316.16666667 700.833333333 1294.66666667 675.166666667 1276 643.5 c 128
 1257.33333333 611.833333333 1241.33333333 576.333333333 1228 537 c 128
 1214.66666667 497.666666667 1203.83333333 458.333333333 1195.5 419 c 128
 1187.16666667 379.666666667 1181 342.5 1177 307.5 c 128
 1173 272.5 1171 243.666666667 1171 221 c 0
 1171 202.333333333 1172.33333333 182.666666667 1175 162 c 128
 1177.66666667 141.333333333 1183 122.166666667 1191 104.5 c 128
 1199 86.8333333333 1210.33333333 72.1666666667 1225 60.5 c 128
 1239.66666667 48.8333333333 1258.66666667 43 1282 43 c 0
 1312 43 1339.16666667 53.1666666667 1363.5 73.5 c 128
 1387.83333333 93.8333333333 1409.16666667 120.166666667 1427.5 152.5 c 128
 1445.83333333 184.833333333 1461.66666667 221.166666667 1475 261.5 c 128
 1488.33333333 301.833333333 1499.16666667 342 1507.5 382 c 128
 1515.83333333 422 1522 459.666666667 1526 495 c 128
 1530 530.333333333 1532 559.333333333 1532 582 c 0
797 1122 m 0
 797 1082 793.333333333 1040.16666667 786 996.5 c 128
 778.666666667 952.833333333 767.333333333 909.666666667 752 867 c 128
 736.666666667 824.333333333 717.666666667 783.666666667 695 745 c 128
 672.333333333 706.333333333 645.5 672.333333333 614.5 643 c 128
 583.5 613.666666667 548.666666667 590.333333333 510 573 c 128
 471.333333333 555.666666667 428.333333333 547 381 547 c 0
 337.666666667 547 300.5 554.5 269.5 569.5 c 128
 238.5 584.5 213.166666667 605 193.5 631 c 128
 173.833333333 657 159.5 687.5 150.5 722.5 c 128
 141.5 757.5 137 794.666666667 137 834 c 0
 137 874 140.833333333 915.833333333 148.5 959.5 c 128
 156.166666667 1003.16666667 167.5 1046.16666667 182.5 1088.5 c 128
 197.5 1130.83333333 216.5 1171.33333333 239.5 1210 c 128
 262.5 1248.66666667 289.5 1282.5 320.5 1311.5 c 128
 351.5 1340.5 386.5 1363.66666667 425.5 1381 c 128
 464.5 1398.33333333 507.666666667 1407 555 1407 c 0
 598.333333333 1407 635.333333333 1399.5 666 1384.5 c 128
 696.666666667 1369.5 721.666666667 1349.16666667 741 1323.5 c 128
 760.333333333 1297.83333333 774.5 1267.66666667 783.5 1233 c 128
 792.5 1198.33333333 797 1161.33333333 797 1122 c 0
401 0 m 1
 272 0 l 1
 1419 1374 l 1
 1546 1374 l 1
 401 0 l 1
1681 543 m 0
 1681 503 1677.33333333 461 1670 417 c 128
 1662.66666667 373 1651.33333333 329.666666667 1636 287 c 128
 1620.66666667 244.333333333 1601.66666667 203.666666667 1579 165 c 128
 1556.33333333 126.333333333 1529.66666667 92.3333333333 1499 63 c 128
 1468.33333333 33.6666666667 1433.5 10.3333333333 1394.5 -7 c 128
 1355.5 -24.3333333333 1312.66666667 -33 1266 -33 c 0
 1222.66666667 -33 1185.66666667 -25.5 1155 -10.5 c 128
 1124.33333333 4.5 1099.33333333 25 1080 51 c 128
 1060.66666667 77 1046.5 107.5 1037.5 142.5 c 128
 1028.5 177.5 1024 214.666666667 1024 254 c 0
 1024 294 1027.66666667 336 1035 380 c 128
 1042.33333333 424 1053.66666667 467.166666667 1069 509.5 c 128
 1084.33333333 551.833333333 1103.33333333 592.166666667 1126 630.5 c 128
 1148.66666667 668.833333333 1175.5 702.5 1206.5 731.5 c 128
 1237.5 760.5 1272.33333333 783.666666667 1311 801 c 128
 1349.66666667 818.333333333 1392.66666667 827 1440 827 c 0
 1483.33333333 827 1520.33333333 819.5 1551 804.5 c 128
 1581.66666667 789.5 1606.66666667 769.166666667 1626 743.5 c 128
 1645.33333333 717.833333333 1659.33333333 687.833333333 1668 653.5 c 128
 1676.66666667 619.166666667 1681 582.333333333 1681 543 c 0
EndSplineSet
EndChar

StartChar: ampersand
Encoding: 38 38 7
Width: 1442
GlyphClass: 2
Flags: HW
LayerCount: 2
Back
Fore
SplineSet
432 672 m 1
 373.333333333 634 327 591 293 543 c 128
 259 495 242 439.666666667 242 377 c 0
 242 335.666666667 249 298.333333333 263 265 c 128
 277 231.666666667 295.666666667 203.333333333 319 180 c 128
 342.333333333 156.666666667 369.333333333 138.5 400 125.5 c 128
 430.666666667 112.5 462.666666667 106 496 106 c 0
 520 106 542.833333333 108.166666667 564.5 112.5 c 128
 586.166666667 116.833333333 608 123.666666667 630 133 c 128
 652 142.333333333 674.5 154.166666667 697.5 168.5 c 128
 720.5 182.833333333 745.333333333 199.666666667 772 219 c 1
 432 672 l 1
836 1112 m 0
 836 1136 832.666666667 1159.33333333 826 1182 c 128
 819.333333333 1204.66666667 809.5 1224.66666667 796.5 1242 c 128
 783.5 1259.33333333 767.333333333 1273.33333333 748 1284 c 128
 728.666666667 1294.66666667 706.666666667 1300 682 1300 c 256
 657.333333333 1300 631.5 1295.33333333 604.5 1286 c 128
 577.5 1276.66666667 552.666666667 1262.66666667 530 1244 c 128
 507.333333333 1225.33333333 488.5 1201.83333333 473.5 1173.5 c 128
 458.5 1145.16666667 451 1111.66666667 451 1073 c 0
 451 1048.33333333 454.333333333 1023.83333333 461 999.5 c 128
 467.666666667 975.166666667 476.333333333 951.5 487 928.5 c 128
 497.666666667 905.5 509.833333333 883.5 523.5 862.5 c 128
 537.166666667 841.5 551 822.333333333 565 805 c 1
 605 821 641.666666667 838.666666667 675 858 c 128
 708.333333333 877.333333333 736.833333333 899.333333333 760.5 924 c 128
 784.166666667 948.666666667 802.666666667 976.333333333 816 1007 c 128
 829.333333333 1037.66666667 836 1072.66666667 836 1112 c 0
1231 631 m 1
 1202.33333333 570.333333333 1165.83333333 508 1121.5 444 c 128
 1077.16666667 380 1029 320 977 264 c 1
 1000.33333333 232 1023.33333333 205.166666667 1046 183.5 c 128
 1068.66666667 161.833333333 1092.66666667 144.333333333 1118 131 c 128
 1143.33333333 117.666666667 1171.33333333 108 1202 102 c 128
 1232.66666667 96 1267.66666667 92.6666666667 1307 92 c 1
 1307 2 l 1
 1273.66666667 0.666666666667 1245.16666667 -0.666666666667 1221.5 -2 c 128
 1197.83333333 -3.33333333333 1176.33333333 -4.66666666667 1157 -6 c 0
 1135.66666667 -7.33333333333 1114.83333333 -7.66666666667 1094.5 -7 c 128
 1074.16666667 -6.33333333333 1054.66666667 -4 1036 0 c 1
 1019.33333333 2.66666666667 1003.16666667 7.16666666667 987.5 13.5 c 128
 971.833333333 19.8333333333 956.166666667 28.3333333333 940.5 39 c 128
 924.833333333 49.6666666667 908.666666667 63 892 79 c 128
 875.333333333 95 858 114.333333333 840 137 c 1
 810 114.333333333 778.666666667 93.3333333333 746 74 c 128
 713.333333333 54.6666666667 678.666666667 37.8333333333 642 23.5 c 128
 605.333333333 9.16666666667 566.333333333 -2.16666666667 525 -10.5 c 128
 483.666666667 -18.8333333333 439 -23 391 -23 c 0
 339.666666667 -23 291.833333333 -15.3333333333 247.5 0 c 128
 203.166666667 15.3333333333 164.5 37.6666666667 131.5 67 c 128
 98.5 96.3333333333 72.5 132 53.5 174 c 128
 34.5 216 25 263.666666667 25 317 c 0
 25 367.666666667 34.1666666667 414.166666667 52.5 456.5 c 128
 70.8333333333 498.833333333 96 537.833333333 128 573.5 c 128
 160 609.166666667 197.333333333 641.666666667 240 671 c 128
 282.666666667 700.333333333 328.333333333 727.333333333 377 752 c 1
 361.666666667 773.333333333 347.166666667 794.666666667 333.5 816 c 128
 319.833333333 837.333333333 308 858.833333333 298 880.5 c 128
 288 902.166666667 280.166666667 924.333333333 274.5 947 c 128
 268.833333333 969.666666667 266 993.333333333 266 1018 c 0
 266 1073.33333333 277.666666667 1124.33333333 301 1171 c 128
 324.333333333 1217.66666667 356.333333333 1258 397 1292 c 128
 437.666666667 1326 485.833333333 1352.66666667 541.5 1372 c 128
 597.166666667 1391.33333333 657.666666667 1401 723 1401 c 0
 779 1401 826.666666667 1393.33333333 866 1378 c 128
 905.333333333 1362.66666667 937.666666667 1342.16666667 963 1316.5 c 128
 988.333333333 1290.83333333 1006.83333333 1261.83333333 1018.5 1229.5 c 128
 1030.16666667 1197.16666667 1036 1164 1036 1130 c 0
 1036 1080.66666667 1025.83333333 1036.33333333 1005.5 997 c 128
 985.166666667 957.666666667 956.666666667 922 920 890 c 128
 883.333333333 858 839.5 829.333333333 788.5 804 c 128
 737.5 778.666666667 681.666666667 755.666666667 621 735 c 1
 909 354 l 1
 944.333333333 393.333333333 975.333333333 435.333333333 1002 480 c 128
 1028.66666667 524.666666667 1050.33333333 564.666666667 1067 600 c 0
 1067.66666667 601.333333333 1067 603.666666667 1065 607 c 128
 1063 610.333333333 1060.83333333 613.666666667 1058.5 617 c 128
 1056.16666667 620.333333333 1053.83333333 623.166666667 1051.5 625.5 c 128
 1049.16666667 627.833333333 1047.66666667 629 1047 629 c 2
 942 647 l 1
 942 741 l 1
 1378 741 l 1
 1378 647 l 1
 1231 631 l 1
EndSplineSet
EndChar

StartChar: quotesingle
Encoding: 39 39 8
Width: 348
GlyphClass: 2
Flags: HW
LayerCount: 2
Back
Fore
SplineSet
451 1384 m 0
 451 1376.66666667 447 1360.16666667 439 1334.5 c 128
 431 1308.83333333 421 1278.16666667 409 1242.5 c 128
 397 1206.83333333 383.833333333 1168.83333333 369.5 1128.5 c 128
 355.166666667 1088.16666667 341.333333333 1050 328 1014 c 128
 314.666666667 978 302.833333333 946.333333333 292.5 919 c 128
 282.166666667 891.666666667 275.333333333 873.333333333 272 864 c 1
 205 864 l 1
 231 1321 l 1
 233 1341.66666667 236.5 1360.5 241.5 1377.5 c 128
 246.5 1394.5 254 1409.33333333 264 1422 c 128
 274 1434.66666667 287 1444.5 303 1451.5 c 128
 319 1458.5 338.666666667 1462 362 1462 c 0
 388 1462 409.333333333 1455.33333333 426 1442 c 128
 442.666666667 1428.66666667 451 1409.33333333 451 1384 c 0
EndSplineSet
EndChar

StartChar: asterisk
Encoding: 42 42 9
Width: 1024
GlyphClass: 2
Flags: HW
LayerCount: 2
Back
Fore
SplineSet
537 743 m 1
 393 690 l 1
 397 842 l 1
 604 1008 l 1
 631 989 l 1
 537 743 l 1
598 1036 m 1
 332 1051 l 1
 240 1167 l 1
 383 1210 l 1
 604 1065 l 1
 598 1036 l 1
748 743 m 1
 653 989 l 1
 680 1008 l 1
 887 842 l 1
 891 690 l 1
 748 743 l 1
655 1085 m 1
 629 1085 l 1
 557 1341 l 1
 641 1466 l 1
 727 1341 l 1
 655 1085 l 1
952 1051 m 1
 688 1036 l 1
 680 1065 l 1
 899 1210 l 1
 1044 1167 l 1
 952 1051 l 1
EndSplineSet
EndChar

StartChar: plus
Encoding: 43 43 10
Width: 2048
GlyphClass: 2
Flags: HW
LayerCount: 2
Back
Fore
SplineSet
1087 551 m 1
 1087 0 l 1
 961 0 l 1
 961 551 l 1
 410 551 l 1
 410 678 l 1
 961 678 l 1
 961 1229 l 1
 1087 1229 l 1
 1087 678 l 1
 1638 678 l 1
 1638 551 l 1
 1087 551 l 1
EndSplineSet
EndChar

StartChar: less
Encoding: 60 60 11
Width: 2048
GlyphClass: 2
Flags: HW
LayerCount: 2
Back
Fore
SplineSet
410 551 m 1
 410 678 l 1
 1638 1149 l 1
 1638 1022 l 1
 541 614 l 1
 1638 207 l 1
 1638 80 l 1
 410 551 l 1
EndSplineSet
EndChar

StartChar: equal
Encoding: 61 61 12
Width: 2048
GlyphClass: 2
Flags: HW
LayerCount: 2
Back
Fore
SplineSet
410 365 m 1
 410 492 l 1
 1638 492 l 1
 1638 365 l 1
 410 365 l 1
410 737 m 1
 410 864 l 1
 1638 864 l 1
 1638 737 l 1
 410 737 l 1
EndSplineSet
EndChar

StartChar: greater
Encoding: 62 62 13
Width: 2048
GlyphClass: 2
Flags: HW
LayerCount: 2
Back
Fore
SplineSet
410 80 m 1
 410 207 l 1
 1507 614 l 1
 410 1022 l 1
 410 1149 l 1
 1638 678 l 1
 1638 551 l 1
 410 80 l 1
EndSplineSet
EndChar

StartChar: at
Encoding: 64 64 14
Width: 1917
GlyphClass: 2
Flags: HW
LayerCount: 2
Back
Fore
SplineSet
1217 805 m 2
 1219 813.666666667 1217.16666667 824.666666667 1211.5 838 c 128
 1205.83333333 851.333333333 1197.5 864.166666667 1186.5 876.5 c 128
 1175.5 888.833333333 1162.16666667 899.5 1146.5 908.5 c 128
 1130.83333333 917.5 1114 922 1096 922 c 0
 1045.33333333 922 999.666666667 910.166666667 959 886.5 c 128
 918.333333333 862.833333333 883.666666667 830.5 855 789.5 c 128
 826.333333333 748.5 804.333333333 700.5 789 645.5 c 128
 773.666666667 590.5 766 531.666666667 766 469 c 0
 766 395 779.666666667 339.666666667 807 303 c 128
 834.333333333 266.333333333 874 248 926 248 c 0
 948.666666667 248 970.333333333 252.5 991 261.5 c 128
 1011.66666667 270.5 1030.83333333 281.666666667 1048.5 295 c 128
 1066.16666667 308.333333333 1082.33333333 322.666666667 1097 338 c 128
 1111.66666667 353.333333333 1124.33333333 367.666666667 1135 381 c 1
 1217 805 l 2
1790 764 m 0
 1790 694.666666667 1782.33333333 630.5 1767 571.5 c 128
 1751.66666667 512.5 1731.16666667 459 1705.5 411 c 128
 1679.83333333 363 1650 320.5 1616 283.5 c 128
 1582 246.5 1546.33333333 215.5 1509 190.5 c 128
 1471.66666667 165.5 1434 146.666666667 1396 134 c 128
 1358 121.333333333 1322 115 1288 115 c 0
 1231.33333333 115 1190.5 129.166666667 1165.5 157.5 c 128
 1140.5 185.833333333 1128 228.333333333 1128 285 c 1
 1074.66666667 231 1024.33333333 189.5 977 160.5 c 128
 929.666666667 131.5 882 117 834 117 c 0
 796.666666667 117 762.333333333 124.833333333 731 140.5 c 128
 699.666666667 156.166666667 672.666666667 178.5 650 207.5 c 128
 627.333333333 236.5 609.666666667 271.5 597 312.5 c 128
 584.333333333 353.5 578 399.666666667 578 451 c 0
 578 529 592.333333333 602 621 670 c 128
 649.666666667 738 687.666666667 797 735 847 c 128
 782.333333333 897 836.333333333 936.333333333 897 965 c 128
 957.666666667 993.666666667 1020.33333333 1008 1085 1008 c 0
 1099.66666667 1008 1115.66666667 1006.66666667 1133 1004 c 128
 1150.33333333 1001.33333333 1167.83333333 997.5 1185.5 992.5 c 128
 1203.16666667 987.5 1220.66666667 981.5 1238 974.5 c 128
 1255.33333333 967.5 1271.33333333 960 1286 952 c 1
 1323 999 l 1
 1440 999 l 1
 1438.66666667 995 1435.66666667 983.166666667 1431 963.5 c 128
 1426.33333333 943.833333333 1420.5 919.5 1413.5 890.5 c 128
 1406.5 861.5 1398.83333333 828.833333333 1390.5 792.5 c 128
 1382.16666667 756.166666667 1373.66666667 719.666666667 1365 683 c 0
 1345 596.333333333 1322.66666667 499 1298 391 c 0
 1292.66666667 367.666666667 1290 346.166666667 1290 326.5 c 128
 1290 306.833333333 1293 290 1299 276 c 128
 1305 262 1314.16666667 251 1326.5 243 c 128
 1338.83333333 235 1354.66666667 231 1374 231 c 0
 1394 231 1415.83333333 236.5 1439.5 247.5 c 128
 1463.16666667 258.5 1486.66666667 274.666666667 1510 296 c 128
 1533.33333333 317.333333333 1555.83333333 343.333333333 1577.5 374 c 128
 1599.16666667 404.666666667 1618.33333333 439.666666667 1635 479 c 128
 1651.66666667 518.333333333 1665 561.833333333 1675 609.5 c 128
 1685 657.166666667 1690 708 1690 762 c 0
 1690 826 1682.5 884.5 1667.5 937.5 c 128
 1652.5 990.5 1631.66666667 1037.83333333 1605 1079.5 c 128
 1578.33333333 1121.16666667 1546.83333333 1157.33333333 1510.5 1188 c 128
 1474.16666667 1218.66666667 1434.66666667 1244.16666667 1392 1264.5 c 128
 1349.33333333 1284.83333333 1304.33333333 1300 1257 1310 c 128
 1209.66666667 1320 1162 1325 1114 1325 c 0
 1036 1325 962.166666667 1315.83333333 892.5 1297.5 c 128
 822.833333333 1279.16666667 758.5 1253.16666667 699.5 1219.5 c 128
 640.5 1185.83333333 587.166666667 1145 539.5 1097 c 128
 491.833333333 1049 451.5 995.333333333 418.5 936 c 128
 385.5 876.666666667 360 812.5 342 743.5 c 128
 324 674.5 315 602 315 526 c 0
 315 422 331.166666667 325 363.5 235 c 128
 395.833333333 145 442.666666667 67 504 1 c 128
 565.333333333 -65 640.333333333 -116.833333333 729 -154.5 c 128
 817.666666667 -192.166666667 918.666666667 -211 1032 -211 c 0
 1092 -211 1148.16666667 -206.333333333 1200.5 -197 c 128
 1252.83333333 -187.666666667 1301.5 -175.666666667 1346.5 -161 c 128
 1391.5 -146.333333333 1433 -130 1471 -112 c 128
 1509 -94 1543.66666667 -76.3333333333 1575 -59 c 1
 1604 -133 l 1
 1558 -157.666666667 1510.83333333 -180.833333333 1462.5 -202.5 c 128
 1414.16666667 -224.166666667 1364.5 -243.166666667 1313.5 -259.5 c 128
 1262.5 -275.833333333 1209.5 -288.833333333 1154.5 -298.5 c 128
 1099.5 -308.166666667 1042.33333333 -313 983 -313 c 0
 909.666666667 -313 838.833333333 -304.666666667 770.5 -288 c 128
 702.166666667 -271.333333333 637.833333333 -247.166666667 577.5 -215.5 c 128
 517.166666667 -183.833333333 462 -144.833333333 412 -98.5 c 128
 362 -52.1666666667 319.166666667 0.666666666667 283.5 60 c 128
 247.833333333 119.333333333 220 185 200 257 c 128
 180 329 170 406.333333333 170 489 c 0
 170 590.333333333 182.166666667 683.5 206.5 768.5 c 128
 230.833333333 853.5 264.333333333 930.333333333 307 999 c 128
 349.666666667 1067.66666667 400.166666667 1128 458.5 1180 c 128
 516.833333333 1232 580.166666667 1275.33333333 648.5 1310 c 128
 716.833333333 1344.66666667 788.5 1370.83333333 863.5 1388.5 c 128
 938.5 1406.16666667 1014 1415 1090 1415 c 0
 1191.33333333 1415 1284.83333333 1400.83333333 1370.5 1372.5 c 128
 1456.16666667 1344.16666667 1530 1302.5 1592 1247.5 c 128
 1654 1192.5 1702.5 1124.5 1737.5 1043.5 c 128
 1772.5 962.5 1790 869.333333333 1790 764 c 0
EndSplineSet
EndChar

StartChar: A
Encoding: 65 65 15
Width: 1378
GlyphClass: 2
Flags: HW
LayerCount: 2
Back
Fore
SplineSet
766 1155 m 1
 463 623 l 1
 854 623 l 1
 766 1155 l 1
801 0 m 1
 801 86 l 1
 895 96 l 1
 925 100 938 113 934 135 c 2
 872 526 l 1
 408 526 l 1
 199 135 l 2
 191.666666667 121.666666667 191.5 112.333333333 198.5 107 c 128
 205.5 101.666666667 218.666666667 98 238 96 c 2
 332 86 l 1
 332 0 l 1
 -109 0 l 1
 -109 86 l 1
 6 98 l 1
 762 1407 l 1
 926 1407 l 1
 1147 135 l 2
 1149 121.666666667 1152.66666667 112.166666667 1158 106.5 c 128
 1163.33333333 100.833333333 1173.33333333 97.3333333333 1188 96 c 2
 1282 86 l 1
 1282 0 l 1
 801 0 l 1
EndSplineSet
EndChar

StartChar: B
Encoding: 66 66 16
Width: 1243
GlyphClass: 2
Flags: HW
LayerCount: 2
Back
Fore
SplineSet
1176 1112 m 0
 1176 1059.33333333 1167 1012.66666667 1149 972 c 128
 1131 931.333333333 1106.5 895.833333333 1075.5 865.5 c 128
 1044.5 835.166666667 1008.16666667 809 966.5 787 c 128
 924.833333333 765 880.666666667 746.333333333 834 731 c 1
 878.666666667 725 919.333333333 715.833333333 956 703.5 c 128
 992.666666667 691.166666667 1024.33333333 674.333333333 1051 653 c 128
 1077.66666667 631.666666667 1098.33333333 605.166666667 1113 573.5 c 128
 1127.66666667 541.833333333 1135 503.666666667 1135 459 c 0
 1135 375 1119.66666667 303.833333333 1089 245.5 c 128
 1058.33333333 187.166666667 1015.83333333 139.833333333 961.5 103.5 c 128
 907.166666667 67.1666666667 843.166666667 40.8333333333 769.5 24.5 c 128
 695.833333333 8.16666666667 616 0 530 0 c 2
 -31 0 l 1
 -31 86 l 1
 98 96 l 2
 110.666666667 97.3333333333 119.833333333 101.166666667 125.5 107.5 c 128
 131.166666667 113.833333333 135 123 137 135 c 2
 350 1237 l 2
 352 1248.33333333 350.333333333 1257.66666667 345 1265 c 128
 339.666666667 1272.33333333 327.666666667 1276.66666667 309 1278 c 2
 195 1288 l 1
 195 1374 l 1
 770 1374 l 2
 844 1374 906.833333333 1367.83333333 958.5 1355.5 c 128
 1010.16666667 1343.16666667 1052.16666667 1325.5 1084.5 1302.5 c 128
 1116.83333333 1279.5 1140.16666667 1251.83333333 1154.5 1219.5 c 128
 1168.83333333 1187.16666667 1176 1151.33333333 1176 1112 c 0
911 438 m 0
 911 480 903.666666667 515.5 889 544.5 c 128
 874.333333333 573.5 853.5 597 826.5 615 c 128
 799.5 633 766.666666667 646 728 654 c 128
 689.333333333 662 646 666 598 666 c 0
 572.666666667 666 546.333333333 665 519 663 c 128
 491.666666667 661 466.666666667 658.333333333 444 655 c 1
 336 98 l 1
 344 97.3333333333 353.5 96.6666666667 364.5 96 c 128
 375.5 95.3333333333 386.833333333 94.6666666667 398.5 94 c 128
 410.166666667 93.3333333333 421.666666667 92.8333333333 433 92.5 c 128
 444.333333333 92.1666666667 454.333333333 92 463 92 c 0
 609.666666667 92 721 122.5 797 183.5 c 128
 873 244.5 911 329.333333333 911 438 c 0
948 1098 m 0
 948 1162.66666667 923.5 1210.16666667 874.5 1240.5 c 128
 825.5 1270.83333333 757.333333333 1286 670 1286 c 0
 648.666666667 1286 628.666666667 1285.33333333 610 1284 c 128
 591.333333333 1282.66666667 576.333333333 1281.33333333 565 1280 c 1
 465 760 l 1
 473 759.333333333 481.333333333 758.666666667 490 758 c 2
 517 757 l 2
 526.333333333 757 534.833333333 756.833333333 542.5 756.5 c 128
 550.166666667 756.166666667 556.333333333 756 561 756 c 0
 625 756 681.166666667 765.166666667 729.5 783.5 c 128
 777.833333333 801.833333333 818.166666667 826.5 850.5 857.5 c 128
 882.833333333 888.5 907.166666667 924.833333333 923.5 966.5 c 128
 939.833333333 1008.16666667 948 1052 948 1098 c 0
EndSplineSet
EndChar

StartChar: C
Encoding: 67 67 17
Width: 1290
GlyphClass: 2
Flags: HW
LayerCount: 2
Back
Fore
SplineSet
1264 1006 m 1
 1143 1006 l 1
 1143 1196 l 2
 1143 1206.66666667 1139.16666667 1217.66666667 1131.5 1229 c 128
 1123.83333333 1240.33333333 1115.33333333 1247.66666667 1106 1251 c 0
 1103.33333333 1252.33333333 1097.33333333 1255.83333333 1088 1261.5 c 128
 1078.66666667 1267.16666667 1066.5 1273 1051.5 1279 c 128
 1036.5 1285 1019 1290.5 999 1295.5 c 128
 979 1300.5 956.666666667 1303 932 1303 c 0
 879.333333333 1303 827.666666667 1294.66666667 777 1278 c 128
 726.333333333 1261.33333333 678.166666667 1237.33333333 632.5 1206 c 128
 586.833333333 1174.66666667 544.666666667 1136.33333333 506 1091 c 128
 467.333333333 1045.66666667 433.833333333 994.166666667 405.5 936.5 c 128
 377.166666667 878.833333333 355 815.333333333 339 746 c 128
 323 676.666666667 315 602.666666667 315 524 c 0
 315 446.666666667 326.166666667 379.666666667 348.5 323 c 128
 370.833333333 266.333333333 401 219.333333333 439 182 c 128
 477 144.666666667 521.5 117 572.5 99 c 128
 623.5 81 677.666666667 72 735 72 c 0
 757 72 777 73.5 795 76.5 c 128
 813 79.5 828.5 83 841.5 87 c 128
 854.5 91 865 94.8333333333 873 98.5 c 128
 881 102.166666667 886.333333333 104.666666667 889 106 c 1
 897 107.333333333 905.833333333 112.166666667 915.5 120.5 c 128
 925.166666667 128.833333333 932 137.666666667 936 147 c 2
 1024 381 l 1
 1145 381 l 1
 1090 49 l 1
 1082 46.3333333333 1064.83333333 40.6666666667 1038.5 32 c 128
 1012.16666667 23.3333333333 979.833333333 14.1666666667 941.5 4.5 c 128
 903.166666667 -5.16666666667 860.333333333 -13.8333333333 813 -21.5 c 128
 765.666666667 -29.1666666667 717.333333333 -33 668 -33 c 0
 600 -33 538.666666667 -25.3333333333 484 -10 c 128
 429.333333333 5.33333333333 381 26.3333333333 339 53 c 128
 297 79.6666666667 260.666666667 111.333333333 230 148 c 128
 199.333333333 184.666666667 174.333333333 224.5 155 267.5 c 128
 135.666666667 310.5 121.333333333 355.666666667 112 403 c 128
 102.666666667 450.333333333 98 498.333333333 98 547 c 0
 98 619.666666667 107 691.333333333 125 762 c 128
 143 832.666666667 169 899.833333333 203 963.5 c 128
 237 1027.16666667 278.333333333 1086.16666667 327 1140.5 c 128
 375.666666667 1194.83333333 430.5 1241.66666667 491.5 1281 c 128
 552.5 1320.33333333 619.166666667 1351.16666667 691.5 1373.5 c 128
 763.833333333 1395.83333333 840.666666667 1407 922 1407 c 0
 955.333333333 1407 987.333333333 1405.16666667 1018 1401.5 c 128
 1048.66666667 1397.83333333 1079.66666667 1392.5 1111 1385.5 c 128
 1142.33333333 1378.5 1175 1369.83333333 1209 1359.5 c 128
 1243 1349.16666667 1279.66666667 1337.66666667 1319 1325 c 1
 1264 1006 l 1
EndSplineSet
EndChar

StartChar: D
Encoding: 68 68 18
Width: 1374
GlyphClass: 2
Flags: HW
LayerCount: 2
Back
Fore
SplineSet
1116 868 m 0
 1116 953.333333333 1103 1022 1077 1074 c 128
 1051 1126 1016 1166.33333333 972 1195 c 128
 928 1223.66666667 877 1243.16666667 819 1253.5 c 128
 761 1263.83333333 700.333333333 1270 637 1272 c 1
 563 1272 l 1
 338 106 l 1
 487 106 l 1
 590.333333333 107.333333333 681.333333333 129.5 760 172.5 c 128
 838.666666667 215.5 904.333333333 272.333333333 957 343 c 128
 1009.66666667 413.666666667 1049.33333333 494.5 1076 585.5 c 128
 1102.66666667 676.5 1116 770.666666667 1116 868 c 0
1337 850 m 0
 1337 766 1327.33333333 686.666666667 1308 612 c 128
 1288.66666667 537.333333333 1260.66666667 468.5 1224 405.5 c 128
 1187.33333333 342.5 1142.83333333 286 1090.5 236 c 128
 1038.16666667 186 979.166666667 143.5 913.5 108.5 c 128
 847.833333333 73.5 776.166666667 46.6666666667 698.5 28 c 128
 620.833333333 9.33333333333 538.333333333 0 451 0 c 2
 -31 0 l 1
 -31 86 l 1
 96 96 l 2
 109.333333333 97.3333333333 118.666666667 101.166666667 124 107.5 c 128
 129.333333333 113.833333333 133.666666667 123 137 135 c 1
 350 1237 l 2
 352 1248.33333333 350.333333333 1257.66666667 345 1265 c 128
 339.666666667 1272.33333333 327.666666667 1276.66666667 309 1278 c 2
 195 1288 l 1
 195 1374 l 1
 684 1374 l 2
 777.333333333 1374 863.833333333 1365 943.5 1347 c 128
 1023.16666667 1329 1092.16666667 1299.33333333 1150.5 1258 c 128
 1208.83333333 1216.66666667 1254.5 1162.66666667 1287.5 1096 c 128
 1320.5 1029.33333333 1337 947.333333333 1337 850 c 0
EndSplineSet
EndChar

StartChar: E
Encoding: 69 69 19
Width: 1143
GlyphClass: 2
Flags: HW
LayerCount: 2
Back
Fore
SplineSet
1126 1067 m 1
 995 1067 l 1
 995 1233 l 2
 995 1247.66666667 992.333333333 1257.83333333 987 1263.5 c 128
 981.666666667 1269.16666667 971.333333333 1272 956 1272 c 2
 563 1272 l 1
 469 768 l 1
 743 768 l 2
 757.666666667 768 768.833333333 770.833333333 776.5 776.5 c 128
 784.166666667 782.166666667 790.333333333 792.333333333 795 807 c 2
 834 944 l 1
 948 944 l 1
 858 475 l 1
 741 475 l 1
 762 621 l 2
 766 648.333333333 753 662 723 662 c 2
 446 662 l 1
 340 102 l 1
 821 102 l 2
 835.666666667 102 846.833333333 105.833333333 854.5 113.5 c 128
 862.166666667 121.166666667 868 131 872 143 c 2
 936 340 l 1
 1061 340 l 1
 993 0 l 1
 -31 0 l 1
 -31 86 l 1
 88 96 l 2
 116.666666667 98 133 111 137 135 c 2
 350 1237 l 2
 352 1248.33333333 350.333333333 1257.66666667 345 1265 c 128
 339.666666667 1272.33333333 328.333333333 1276.66666667 311 1278 c 2
 197 1288 l 1
 197 1374 l 1
 1188 1374 l 1
 1126 1067 l 1
EndSplineSet
EndChar

StartChar: F
Encoding: 70 70 20
Width: 1053
GlyphClass: 2
Flags: HW
LayerCount: 2
Back
Fore
SplineSet
1102 1044 m 1
 971 1044 l 1
 971 1233 l 2
 971 1247.66666667 968 1257.83333333 962 1263.5 c 128
 956 1269.16666667 945.333333333 1272 930 1272 c 2
 563 1272 l 1
 463 745 l 1
 725 745 l 2
 739.666666667 745 750.666666667 748 758 754 c 128
 765.333333333 760 770.666666667 770 774 784 c 2
 813 924 l 1
 930 924 l 1
 840 457 l 1
 723 457 l 1
 743 600 l 1
 745.666666667 613.333333333 743.166666667 623.5 735.5 630.5 c 128
 727.833333333 637.5 716.666666667 641 702 641 c 2
 442 641 l 1
 344 135 l 2
 342 125 343.666666667 116.333333333 349 109 c 128
 354.333333333 101.666666667 365.666666667 97.3333333333 383 96 c 2
 516 86 l 1
 516 0 l 1
 -31 0 l 1
 -31 86 l 1
 86 96 l 2
 114 98 131 111 137 135 c 1
 350 1237 l 2
 352 1248.33333333 350.333333333 1257.66666667 345 1265 c 128
 339.666666667 1272.33333333 327.666666667 1276.66666667 309 1278 c 2
 195 1288 l 1
 195 1374 l 1
 1165 1374 l 1
 1102 1044 l 1
EndSplineSet
EndChar

StartChar: G
Encoding: 71 71 21
Width: 1409
GlyphClass: 2
Flags: HW
LayerCount: 2
Back
Fore
SplineSet
1266 567 m 2
 1252.66666667 565.666666667 1241.5 562.166666667 1232.5 556.5 c 128
 1223.5 550.833333333 1217.33333333 541.333333333 1214 528 c 1
 1122 47 l 1
 1115.33333333 45 1103.66666667 41.8333333333 1087 37.5 c 128
 1070.33333333 33.1666666667 1050.33333333 28 1027 22 c 128
 1003.66666667 16 977.833333333 9.83333333333 949.5 3.5 c 128
 921.166666667 -2.83333333333 891.666666667 -8.83333333333 861 -14.5 c 128
 830.333333333 -20.1666666667 799.5 -24.6666666667 768.5 -28 c 128
 737.5 -31.3333333333 708 -33 680 -33 c 0
 602 -33 533.5 -24 474.5 -6 c 128
 415.5 12 364.5 36.1666666667 321.5 66.5 c 128
 278.5 96.8333333333 242.666666667 131.833333333 214 171.5 c 128
 185.333333333 211.166666667 162.333333333 252.666666667 145 296 c 128
 127.666666667 339.333333333 115.5 382.833333333 108.5 426.5 c 128
 101.5 470.166666667 98 511 98 549 c 0
 98 636.333333333 109.666666667 718.166666667 133 794.5 c 128
 156.333333333 870.833333333 188.5 940.833333333 229.5 1004.5 c 128
 270.5 1068.16666667 318.833333333 1124.83333333 374.5 1174.5 c 128
 430.166666667 1224.16666667 490.833333333 1266.33333333 556.5 1301 c 128
 622.166666667 1335.66666667 691 1362 763 1380 c 128
 835 1398 907.666666667 1407 981 1407 c 0
 1014.33333333 1407 1045.5 1405.66666667 1074.5 1403 c 128
 1103.5 1400.33333333 1132.66666667 1396.16666667 1162 1390.5 c 128
 1191.33333333 1384.83333333 1222.16666667 1377.5 1254.5 1368.5 c 128
 1286.83333333 1359.5 1322.66666667 1349 1362 1337 c 1
 1298 1008 l 1
 1159 1008 l 1
 1165 1196 l 1
 1166.33333333 1211.33333333 1163.33333333 1223.83333333 1156 1233.5 c 128
 1148.66666667 1243.16666667 1138.66666667 1249.66666667 1126 1253 c 0
 1123.33333333 1253.66666667 1117.66666667 1256.33333333 1109 1261 c 128
 1100.33333333 1265.66666667 1088.83333333 1270.66666667 1074.5 1276 c 128
 1060.16666667 1281.33333333 1043 1286 1023 1290 c 128
 1003 1294 980.666666667 1296 956 1296 c 0
 904.666666667 1296 853.5 1287.66666667 802.5 1271 c 128
 751.5 1254.33333333 702.5 1230.33333333 655.5 1199 c 128
 608.5 1167.66666667 564.833333333 1129.16666667 524.5 1083.5 c 128
 484.166666667 1037.83333333 449.166666667 986.166666667 419.5 928.5 c 128
 389.833333333 870.833333333 366.5 807.333333333 349.5 738 c 128
 332.5 668.666666667 324 594.666666667 324 516 c 0
 324 460.666666667 330.333333333 411.5 343 368.5 c 128
 355.666666667 325.5 372.666666667 287.666666667 394 255 c 128
 415.333333333 222.333333333 439.666666667 194.666666667 467 172 c 128
 494.333333333 149.333333333 522.666666667 130.833333333 552 116.5 c 128
 581.333333333 102.166666667 610.666666667 91.8333333333 640 85.5 c 128
 669.333333333 79.1666666667 696.333333333 76 721 76 c 0
 741.666666667 76 762.5 77.3333333333 783.5 80 c 128
 804.5 82.6666666667 824.333333333 86 843 90 c 128
 861.666666667 94 878.5 98 893.5 102 c 128
 908.5 106 920 109 928 111 c 1
 1008 528 l 2
 1010 539.333333333 1008.33333333 548.333333333 1003 555 c 128
 997.666666667 561.666666667 985.666666667 565.666666667 967 567 c 2
 854 578 l 1
 854 664 l 1
 1382 664 l 1
 1382 578 l 1
 1266 567 l 2
EndSplineSet
EndChar

StartChar: H
Encoding: 72 72 22
Width: 1485
GlyphClass: 2
Flags: HW
LayerCount: 2
Back
Fore
SplineSet
1452 1278 m 2
 1439.33333333 1276.66666667 1428.83333333 1272.83333333 1420.5 1266.5 c 128
 1412.16666667 1260.16666667 1406.33333333 1250.33333333 1403 1237 c 1
 1190 135 l 2
 1188 125 1189.66666667 116.333333333 1195 109 c 128
 1200.33333333 101.666666667 1212.33333333 97.3333333333 1231 96 c 2
 1346 86 l 1
 1346 0 l 1
 811 0 l 1
 811 86 l 1
 934 96 l 2
 946 97.3333333333 956.666666667 101.166666667 966 107.5 c 128
 975.333333333 113.833333333 981 123 983 135 c 2
 1085 668 l 1
 446 668 l 1
 344 135 l 2
 342 125 343.666666667 116.333333333 349 109 c 128
 354.333333333 101.666666667 365.666666667 97.3333333333 383 96 c 2
 502 86 l 1
 502 0 l 1
 -31 0 l 1
 -31 86 l 1
 86 96 l 2
 114 98 131 111 137 135 c 1
 350 1237 l 2
 352 1248.33333333 350.333333333 1257.66666667 345 1265 c 128
 339.666666667 1272.33333333 327.666666667 1276.66666667 309 1278 c 2
 195 1288 l 1
 195 1374 l 1
 727 1374 l 1
 727 1288 l 1
 606 1278 l 2
 594 1276.66666667 583.333333333 1272.83333333 574 1266.5 c 128
 564.666666667 1260.16666667 559 1250.33333333 557 1237 c 2
 467 770 l 1
 1106 770 l 1
 1196 1237 l 2
 1198 1248.33333333 1196.33333333 1257.66666667 1191 1265 c 128
 1185.66666667 1272.33333333 1173.66666667 1276.66666667 1155 1278 c 2
 1038 1288 l 1
 1038 1374 l 1
 1571 1374 l 1
 1571 1288 l 1
 1452 1278 l 2
EndSplineSet
EndChar

StartChar: I
Encoding: 73 73 23
Width: 643
GlyphClass: 2
Flags: HW
LayerCount: 2
Back
Fore
SplineSet
598 1278 m 2
 584.666666667 1276.66666667 575.333333333 1272.83333333 570 1266.5 c 128
 564.666666667 1260.16666667 560.333333333 1250.33333333 557 1237 c 1
 344 135 l 2
 342 125 343.666666667 116.333333333 349 109 c 128
 354.333333333 101.666666667 366.333333333 97.3333333333 385 96 c 2
 504 86 l 1
 504 0 l 1
 -31 0 l 1
 -31 86 l 1
 98 96 l 2
 110.666666667 97.3333333333 119.833333333 101.166666667 125.5 107.5 c 128
 131.166666667 113.833333333 135 123 137 135 c 2
 350 1237 l 2
 352 1248.33333333 350.333333333 1257.66666667 345 1265 c 128
 339.666666667 1272.33333333 328.333333333 1276.66666667 311 1278 c 2
 197 1288 l 1
 197 1374 l 1
 729 1374 l 1
 729 1288 l 1
 598 1278 l 2
EndSplineSet
EndChar

StartChar: J
Encoding: 74 74 24
Width: 958
GlyphClass: 2
Flags: HW
LayerCount: 2
Back
Fore
SplineSet
922 1278 m 2
 894 1276 876.666666667 1262.33333333 870 1237 c 1
 739 524 l 2
 723.666666667 439.333333333 705 362.666666667 683 294 c 128
 661 225.333333333 631 166.833333333 593 118.5 c 128
 555 70.1666666667 506.833333333 32.8333333333 448.5 6.5 c 128
 390.166666667 -19.8333333333 317 -33 229 -33 c 0
 189 -33 153.333333333 -30.3333333333 122 -25 c 128
 90.6666666667 -19.6666666667 63.8333333333 -13.5 41.5 -6.5 c 128
 19.1666666667 0.5 1.16666666667 7.5 -12.5 14.5 c 128
 -26.1666666667 21.5 -35.6666666667 26.3333333333 -41 29 c 1
 27 379 l 1
 162 379 l 1
 162 129 l 2
 162 111.666666667 170.333333333 98.1666666667 187 88.5 c 128
 203.666666667 78.8333333333 222.666666667 74 244 74 c 0
 287.333333333 74 324.333333333 83.6666666667 355 103 c 128
 385.666666667 122.333333333 411.666666667 150.333333333 433 187 c 128
 454.333333333 223.666666667 472.5 268.833333333 487.5 322.5 c 128
 502.5 376.166666667 516 437.333333333 528 506 c 1
 664 1237 l 2
 666 1248.33333333 664.333333333 1257.66666667 659 1265 c 128
 653.666666667 1272.33333333 642.333333333 1276.66666667 625 1278 c 2
 506 1288 l 1
 506 1374 l 1
 1038 1374 l 1
 1038 1288 l 1
 922 1278 l 2
EndSplineSet
EndChar

StartChar: K
Encoding: 75 75 25
Width: 1343
GlyphClass: 2
Flags: HW
LayerCount: 2
Back
Fore
SplineSet
1245 1272 m 1
 709 754 l 1
 993 203 l 2
 1005.66666667 177.666666667 1017.83333333 157.166666667 1029.5 141.5 c 128
 1041.16666667 125.833333333 1053.33333333 113.5 1066 104.5 c 128
 1078.66666667 95.5 1092.16666667 89.5 1106.5 86.5 c 128
 1120.83333333 83.5 1137 82 1155 82 c 0
 1167.66666667 82 1181 82.3333333333 1195 83 c 128
 1209 83.6666666667 1224.33333333 84.6666666667 1241 86 c 1
 1241 0 l 1
 1209 -9.33333333333 1175.66666667 -17.1666666667 1141 -23.5 c 128
 1106.33333333 -29.8333333333 1075.66666667 -33 1049 -33 c 0
 1019 -33 992.833333333 -30.6666666667 970.5 -26 c 128
 948.166666667 -21.3333333333 927.666666667 -13.1666666667 909 -1.5 c 128
 890.333333333 10.1666666667 873.333333333 25.6666666667 858 45 c 128
 842.666666667 64.3333333333 827 89 811 119 c 2
 559 604 l 1
 434 604 l 1
 342 135 l 2
 340 125 342 116.333333333 348 109 c 128
 354 101.666666667 365.666666667 97.3333333333 383 96 c 2
 502 86 l 1
 502 0 l 1
 -33 0 l 1
 -33 86 l 1
 86 96 l 2
 114.666666667 98 131 111 135 135 c 1
 350 1237 l 2
 352 1248.33333333 350.333333333 1257.66666667 345 1265 c 128
 339.666666667 1272.33333333 328.333333333 1276.66666667 311 1278 c 2
 197 1288 l 1
 197 1374 l 1
 729 1374 l 1
 729 1288 l 1
 608 1278 l 2
 594.666666667 1276.66666667 583.666666667 1272.83333333 575 1266.5 c 128
 566.333333333 1260.16666667 560.333333333 1250.33333333 557 1237 c 1
 453 700 l 1
 487 700 l 1
 1032 1237 l 2
 1040.66666667 1245 1044.16666667 1253.5 1042.5 1262.5 c 128
 1040.83333333 1271.5 1032.66666667 1276.66666667 1018 1278 c 2
 887 1288 l 1
 887 1374 l 1
 1417 1374 l 1
 1417 1288 l 1
 1245 1272 l 1
EndSplineSet
EndChar

StartChar: L
Encoding: 76 76 26
Width: 1061
GlyphClass: 2
Flags: HW
LayerCount: 2
Back
Fore
SplineSet
915 0 m 1
 -31 0 l 1
 -31 86 l 1
 88 96 l 2
 116.666666667 98 133 111 137 135 c 2
 350 1237 l 2
 352 1248.33333333 350.333333333 1257.66666667 345 1265 c 128
 339.666666667 1272.33333333 328.333333333 1276.66666667 311 1278 c 2
 197 1288 l 1
 197 1374 l 1
 729 1374 l 1
 729 1288 l 1
 608 1278 l 2
 592.666666667 1276.66666667 580.833333333 1272 572.5 1264 c 128
 564.166666667 1256 559 1247 557 1237 c 2
 340 102 l 1
 743 102 l 2
 756.333333333 102 767.166666667 105.833333333 775.5 113.5 c 128
 783.833333333 121.166666667 790.333333333 131 795 143 c 1
 868 379 l 1
 989 379 l 1
 915 0 l 1
EndSplineSet
EndChar

StartChar: M
Encoding: 77 77 27
Width: 1765
GlyphClass: 2
Flags: HW
LayerCount: 2
Back
Fore
SplineSet
1733 1278 m 2
 1705 1276 1687.66666667 1262.33333333 1681 1237 c 1
 1470 135 l 2
 1468 125 1469.83333333 116.333333333 1475.5 109 c 128
 1481.16666667 101.666666667 1493 97.3333333333 1511 96 c 2
 1626 86 l 1
 1626 0 l 1
 1094 0 l 1
 1094 86 l 1
 1214 96 l 2
 1226.66666667 97.3333333333 1237.66666667 101.166666667 1247 107.5 c 128
 1256.33333333 113.833333333 1262 123 1264 135 c 2
 1462 1174 l 1
 805 0 l 1
 682 0 l 1
 477 1163 l 1
 287 135 l 2
 285 125 286.666666667 116.333333333 292 109 c 128
 297.333333333 101.666666667 308.666666667 97.3333333333 326 96 c 2
 440 86 l 1
 440 0 l 1
 -29 0 l 1
 -29 86 l 1
 88 96 l 2
 116 98 133 111 139 135 c 1
 350 1237 l 2
 352 1248.33333333 350.333333333 1257.66666667 345 1265 c 128
 339.666666667 1272.33333333 327.666666667 1276.66666667 309 1278 c 2
 195 1288 l 1
 195 1374 l 1
 653 1374 l 1
 653 1317 l 1
 829 326 l 1
 1376 1307 l 1
 1376 1374 l 1
 1849 1374 l 1
 1849 1288 l 1
 1733 1278 l 2
EndSplineSet
EndChar

StartChar: N
Encoding: 78 78 28
Width: 1456
GlyphClass: 2
Flags: HW
LayerCount: 2
Back
Fore
SplineSet
1430 1278 m 2
 1416.66666667 1276.66666667 1405.5 1272.83333333 1396.5 1266.5 c 128
 1387.5 1260.16666667 1381.33333333 1250.33333333 1378 1237 c 1
 1137 0 l 1
 989 0 l 1
 473 1087 l 1
 291 135 l 2
 289 125 290.666666667 116.333333333 296 109 c 128
 301.333333333 101.666666667 313.333333333 97.3333333333 332 96 c 2
 446 86 l 1
 446 0 l 1
 -29 0 l 1
 -29 86 l 1
 88 96 l 2
 116 98 133 111 139 135 c 1
 350 1237 l 2
 352 1248.33333333 350.333333333 1257.66666667 345 1265 c 128
 339.666666667 1272.33333333 328.333333333 1276.66666667 311 1278 c 2
 197 1288 l 1
 197 1374 l 1
 592 1374 l 1
 592 1321 l 1
 1053 344 l 1
 1227 1237 l 2
 1229 1248.33333333 1227.33333333 1257.66666667 1222 1265 c 128
 1216.66666667 1272.33333333 1205.33333333 1276.66666667 1188 1278 c 2
 1071 1288 l 1
 1071 1374 l 1
 1546 1374 l 1
 1546 1288 l 1
 1430 1278 l 2
EndSplineSet
EndChar

StartChar: O
Encoding: 79 79 29
Width: 1454
GlyphClass: 2
Flags: HW
LayerCount: 2
Back
Fore
SplineSet
1182 854 m 0
 1182 922 1173.5 983.666666667 1156.5 1039 c 128
 1139.5 1094.33333333 1115.83333333 1141.83333333 1085.5 1181.5 c 128
 1055.16666667 1221.16666667 1019.16666667 1251.66666667 977.5 1273 c 128
 935.833333333 1294.33333333 890.666666667 1305 842 1305 c 0
 792 1305 744.666666667 1294 700 1272 c 128
 655.333333333 1250 614 1220 576 1182 c 128
 538 1144 503.833333333 1099.5 473.5 1048.5 c 128
 443.166666667 997.5 417.333333333 943 396 885 c 128
 374.666666667 827 358.333333333 766.833333333 347 704.5 c 128
 335.666666667 642.166666667 330 580.666666667 330 520 c 0
 330 450.666666667 338.833333333 388.5 356.5 333.5 c 128
 374.166666667 278.5 398.166666667 231.833333333 428.5 193.5 c 128
 458.833333333 155.166666667 494.666666667 125.666666667 536 105 c 128
 577.333333333 84.3333333333 622 74 670 74 c 0
 720 74 767.333333333 85.1666666667 812 107.5 c 128
 856.666666667 129.833333333 898 160.333333333 936 199 c 128
 974 237.666666667 1008.16666667 282.5 1038.5 333.5 c 128
 1068.83333333 384.5 1094.66666667 439 1116 497 c 128
 1137.33333333 555 1153.66666667 614.5 1165 675.5 c 128
 1176.33333333 736.5 1182 796 1182 854 c 0
1415 854 m 0
 1415 782 1407.33333333 710.166666667 1392 638.5 c 128
 1376.66666667 566.833333333 1354.33333333 498 1325 432 c 128
 1295.66666667 366 1259.33333333 304.833333333 1216 248.5 c 128
 1172.66666667 192.166666667 1122.83333333 143 1066.5 101 c 128
 1010.16666667 59 947.5 26.1666666667 878.5 2.5 c 128
 809.5 -21.1666666667 735 -33 655 -33 c 0
 573 -33 498 -19.5 430 7.5 c 128
 362 34.5 303.333333333 73 254 123 c 128
 204.666666667 173 166.333333333 233 139 303 c 128
 111.666666667 373 98 451 98 537 c 0
 98 610.333333333 106.333333333 682.666666667 123 754 c 128
 139.666666667 825.333333333 163.833333333 893.333333333 195.5 958 c 128
 227.166666667 1022.66666667 265.5 1082.33333333 310.5 1137 c 128
 355.5 1191.66666667 406.166666667 1239 462.5 1279 c 128
 518.833333333 1319 580.5 1350.33333333 647.5 1373 c 128
 714.5 1395.66666667 785.333333333 1407 860 1407 c 0
 944.666666667 1407 1021.33333333 1392.5 1090 1363.5 c 128
 1158.66666667 1334.5 1217 1295 1265 1245 c 128
 1313 1195 1350 1136.33333333 1376 1069 c 128
 1402 1001.66666667 1415 930 1415 854 c 0
EndSplineSet
EndChar

StartChar: P
Encoding: 80 80 30
Width: 1159
GlyphClass: 2
Flags: HW
LayerCount: 2
Back
Fore
SplineSet
956 1012 m 0
 956 1051.33333333 950.5 1087.33333333 939.5 1120 c 128
 928.5 1152.66666667 910.5 1180.66666667 885.5 1204 c 128
 860.5 1227.33333333 827.833333333 1245.5 787.5 1258.5 c 128
 747.166666667 1271.5 697.666666667 1278 639 1278 c 0
 626.333333333 1278 612.833333333 1277.66666667 598.5 1277 c 128
 584.166666667 1276.33333333 571.666666667 1275.33333333 561 1274 c 1
 434 623 l 1
 464 620.333333333 494.166666667 619.5 524.5 620.5 c 128
 554.833333333 621.5 584.666666667 624.5 614 629.5 c 128
 643.333333333 634.5 671.666666667 641.833333333 699 651.5 c 128
 726.333333333 661.166666667 752 673.333333333 776 688 c 0
 802 703.333333333 826 721.333333333 848 742 c 128
 870 762.666666667 889 786.333333333 905 813 c 128
 921 839.666666667 933.5 869.5 942.5 902.5 c 128
 951.5 935.5 956 972 956 1012 c 0
1169 1047 m 0
 1169 964.333333333 1153.33333333 890 1122 824 c 128
 1090.66666667 758 1047.16666667 701.833333333 991.5 655.5 c 128
 935.833333333 609.166666667 869.833333333 573.666666667 793.5 549 c 128
 717.166666667 524.333333333 634.333333333 512 545 512 c 0
 534.333333333 512 521.666666667 512.166666667 507 512.5 c 128
 492.333333333 512.833333333 478.333333333 513.333333333 465 514 c 0
 449 514.666666667 432.666666667 515.333333333 416 516 c 1
 340 135 l 2
 338 125 339.666666667 116.333333333 345 109 c 128
 350.333333333 101.666666667 362.333333333 97.3333333333 381 96 c 2
 498 86 l 1
 498 0 l 1
 -35 0 l 1
 -35 86 l 1
 84 96 l 2
 110.666666667 98 127 111 133 135 c 1
 348 1237 l 2
 350 1248.33333333 348.333333333 1257.66666667 343 1265 c 128
 337.666666667 1272.33333333 325.666666667 1276.66666667 307 1278 c 2
 193 1288 l 1
 193 1374 l 1
 702 1374 l 2
 786 1374 857.5 1365.83333333 916.5 1349.5 c 128
 975.5 1333.16666667 1023.83333333 1310.5 1061.5 1281.5 c 128
 1099.16666667 1252.5 1126.5 1218 1143.5 1178 c 128
 1160.5 1138 1169 1094.33333333 1169 1047 c 0
EndSplineSet
EndChar

StartChar: Q
Encoding: 81 81 31
Width: 1454
GlyphClass: 2
Flags: HW
LayerCount: 2
Back
Fore
SplineSet
1182 856 m 0
 1182 920.666666667 1174 980.333333333 1158 1035 c 128
 1142 1089.66666667 1119.5 1136.83333333 1090.5 1176.5 c 128
 1061.5 1216.16666667 1026.83333333 1247.16666667 986.5 1269.5 c 128
 946.166666667 1291.83333333 901.333333333 1303 852 1303 c 0
 801.333333333 1303 753 1292.5 707 1271.5 c 128
 661 1250.5 618.5 1221.66666667 579.5 1185 c 128
 540.5 1148.33333333 505.166666667 1105 473.5 1055 c 128
 441.833333333 1005 415 951 393 893 c 128
 371 835 354 774.333333333 342 711 c 128
 330 647.666666667 324 584 324 520 c 256
 324 456 332 396.833333333 348 342.5 c 128
 364 288.166666667 386.833333333 241.333333333 416.5 202 c 128
 446.166666667 162.666666667 482.166666667 131.833333333 524.5 109.5 c 128
 566.833333333 87.1666666667 614.666666667 76 668 76 c 0
 716.666666667 76 763.166666667 87 807.5 109 c 128
 851.833333333 131 893.166666667 161 931.5 199 c 128
 969.833333333 237 1004.33333333 281.5 1035 332.5 c 128
 1065.66666667 383.5 1092 437.833333333 1114 495.5 c 128
 1136 553.166666667 1152.83333333 612.833333333 1164.5 674.5 c 128
 1176.16666667 736.166666667 1182 796.666666667 1182 856 c 0
1479 -227 m 1
 1471 -231 1455.33333333 -238.666666667 1432 -250 c 128
 1408.66666667 -261.333333333 1380.66666667 -272.666666667 1348 -284 c 128
 1315.33333333 -295.333333333 1280.33333333 -305.5 1243 -314.5 c 128
 1205.66666667 -323.5 1169 -328 1133 -328 c 0
 1080.33333333 -328 1034.33333333 -320.333333333 995 -305 c 128
 955.666666667 -289.666666667 921.166666667 -268.333333333 891.5 -241 c 128
 861.833333333 -213.666666667 835.833333333 -181.666666667 813.5 -145 c 128
 791.166666667 -108.333333333 770.666666667 -68.3333333333 752 -25 c 1
 736.666666667 -26.3333333333 719.833333333 -28 701.5 -30 c 128
 683.166666667 -32 665.666666667 -33 649 -33 c 0
 573.666666667 -33 502.333333333 -20.5 435 4.5 c 128
 367.666666667 29.5 308.833333333 66 258.5 114 c 128
 208.166666667 162 168.166666667 221 138.5 291 c 128
 108.833333333 361 94 440.666666667 94 530 c 0
 94 600.666666667 102.5 671.333333333 119.5 742 c 128
 136.5 812.666666667 160.833333333 880.5 192.5 945.5 c 128
 224.166666667 1010.5 262.666666667 1071.16666667 308 1127.5 c 128
 353.333333333 1183.83333333 404.333333333 1232.66666667 461 1274 c 128
 517.666666667 1315.33333333 579.833333333 1347.83333333 647.5 1371.5 c 128
 715.166666667 1395.16666667 786.666666667 1407 862 1407 c 0
 945.333333333 1407 1021 1393 1089 1365 c 128
 1157 1337 1215 1298.33333333 1263 1249 c 128
 1311 1199.66666667 1348 1141.33333333 1374 1074 c 128
 1400 1006.66666667 1413 934 1413 856 c 0
 1413 819.333333333 1410.66666667 778.666666667 1406 734 c 128
 1401.33333333 689.333333333 1393 642.833333333 1381 594.5 c 128
 1369 546.166666667 1352.33333333 497 1331 447 c 128
 1309.66666667 397 1282.33333333 347.833333333 1249 299.5 c 128
 1215.66666667 251.166666667 1175.66666667 205 1129 161 c 128
 1082.33333333 117 1027.66666667 77 965 41 c 1
 985.666666667 3 1005.33333333 -31.3333333333 1024 -62 c 128
 1042.66666667 -92.6666666667 1062.66666667 -119 1084 -141 c 128
 1105.33333333 -163 1128.66666667 -179.833333333 1154 -191.5 c 128
 1179.33333333 -203.166666667 1209 -209 1243 -209 c 0
 1263 -209 1283.5 -206.833333333 1304.5 -202.5 c 128
 1325.5 -198.166666667 1346.33333333 -192.666666667 1367 -186 c 128
 1387.66666667 -179.333333333 1407.5 -172 1426.5 -164 c 128
 1445.5 -156 1463 -148.333333333 1479 -141 c 1
 1479 -227 l 1
EndSplineSet
EndChar

StartChar: R
Encoding: 82 82 32
Width: 1313
GlyphClass: 2
Flags: HW
LayerCount: 2
Back
Fore
SplineSet
958 1042 m 0
 958 1092 947.166666667 1132.33333333 925.5 1163 c 128
 903.833333333 1193.66666667 876 1217.33333333 842 1234 c 128
 808 1250.66666667 770.333333333 1261.5 729 1266.5 c 128
 687.666666667 1271.5 647.333333333 1273.33333333 608 1272 c 0
 602.666666667 1272 595.333333333 1271.66666667 586 1271 c 128
 576.666666667 1270.33333333 569 1270 563 1270 c 1
 459 711 l 1
 504 711 l 2
 559.333333333 711 614 716 668 726 c 128
 722 736 770.5 753.666666667 813.5 779 c 128
 856.5 804.333333333 891.333333333 838.166666667 918 880.5 c 128
 944.666666667 922.833333333 958 976.666666667 958 1042 c 0
1260 0 m 1
 1232 -12.6666666667 1205.83333333 -21.3333333333 1181.5 -26 c 128
 1157.16666667 -30.6666666667 1133.33333333 -33 1110 -33 c 0
 1048 -33 998.166666667 -23 960.5 -3 c 128
 922.833333333 17 893.166666667 43 871.5 75 c 128
 849.833333333 107 833.833333333 142.5 823.5 181.5 c 128
 813.166666667 220.5 804.333333333 259 797 297 c 0
 789 335 780.166666667 372.5 770.5 409.5 c 128
 760.833333333 446.5 747.166666667 479.5 729.5 508.5 c 128
 711.833333333 537.5 688.333333333 561 659 579 c 128
 629.666666667 597 591 606 543 606 c 0
 533.666666667 606 523 605.833333333 511 605.5 c 128
 499 605.166666667 487.333333333 605 476 605 c 0
 463.333333333 604.333333333 450 604 436 604 c 1
 348 135 l 2
 346 125 347.666666667 116.333333333 353 109 c 128
 358.333333333 101.666666667 369.666666667 97.3333333333 387 96 c 2
 506 86 l 1
 506 0 l 1
 -27 0 l 1
 -27 86 l 1
 90 96 l 2
 118 98 135 111 141 135 c 1
 350 1237 l 2
 352 1248.33333333 350.333333333 1257.66666667 345 1265 c 128
 339.666666667 1272.33333333 328.333333333 1276.66666667 311 1278 c 2
 197 1288 l 1
 197 1374 l 1
 745 1374 l 2
 801.666666667 1374 856.833333333 1369.33333333 910.5 1360 c 128
 964.166666667 1350.66666667 1011.66666667 1334.33333333 1053 1311 c 128
 1094.33333333 1287.66666667 1127.5 1256.5 1152.5 1217.5 c 128
 1177.5 1178.5 1190 1129.66666667 1190 1071 c 0
 1190 1015.66666667 1179 965.666666667 1157 921 c 128
 1135 876.333333333 1105 836.5 1067 801.5 c 128
 1029 766.5 984.666666667 736.333333333 934 711 c 128
 883.333333333 685.666666667 829.333333333 665 772 649 c 1
 814 631 847.5 610.833333333 872.5 588.5 c 128
 897.5 566.166666667 917.666666667 541.333333333 933 514 c 128
 948.333333333 486.666666667 960.333333333 456.333333333 969 423 c 128
 977.666666667 389.666666667 987 353.666666667 997 315 c 0
 1007 277 1018 243.5 1030 214.5 c 128
 1042 185.5 1057.83333333 161.333333333 1077.5 142 c 128
 1097.16666667 122.666666667 1121.5 108.166666667 1150.5 98.5 c 128
 1179.5 88.8333333333 1216 84 1260 84 c 1
 1260 0 l 1
EndSplineSet
EndChar

StartChar: S
Encoding: 83 83 33
Width: 1067
GlyphClass: 2
Flags: HW
LayerCount: 2
Back
Fore
SplineSet
985 1020 m 1
 864 1020 l 1
 872 1227 l 2
 872 1233.66666667 867 1241.5 857 1250.5 c 128
 847 1259.5 833.5 1268.16666667 816.5 1276.5 c 128
 799.5 1284.83333333 780 1292 758 1298 c 128
 736 1304 712.666666667 1307 688 1307 c 0
 648.666666667 1307 610.5 1300 573.5 1286 c 128
 536.5 1272 503.666666667 1252.5 475 1227.5 c 128
 446.333333333 1202.5 423.5 1172.83333333 406.5 1138.5 c 128
 389.5 1104.16666667 381 1066.66666667 381 1026 c 0
 381 989.333333333 391 957.166666667 411 929.5 c 128
 431 901.833333333 455.666666667 877.333333333 485 856 c 128
 514.333333333 834.666666667 545.666666667 816 579 800 c 128
 612.333333333 784 642.666666667 769.333333333 670 756 c 1
 706 737.333333333 741.166666667 717.666666667 775.5 697 c 128
 809.833333333 676.333333333 840.333333333 653 867 627 c 128
 893.666666667 601 915.166666667 571.166666667 931.5 537.5 c 128
 947.833333333 503.833333333 956 464.666666667 956 420 c 0
 956 370.666666667 945.833333333 319.333333333 925.5 266 c 128
 905.166666667 212.666666667 872.333333333 163.833333333 827 119.5 c 128
 781.666666667 75.1666666667 722.833333333 38.6666666667 650.5 10 c 128
 578.166666667 -18.6666666667 489.666666667 -33 385 -33 c 0
 332.333333333 -33 283.5 -28.1666666667 238.5 -18.5 c 128
 193.5 -8.83333333333 153.833333333 2.16666666667 119.5 14.5 c 128
 85.1666666667 26.8333333333 56.8333333333 38.8333333333 34.5 50.5 c 128
 12.1666666667 62.1666666667 -2.66666666667 70 -10 74 c 1
 59 403 l 1
 199 403 l 1
 176 168 l 2
 175.333333333 160 180 152 190 144 c 128
 200 136 213 128.5 229 121.5 c 128
 245 114.5 262.666666667 108.166666667 282 102.5 c 128
 301.333333333 96.8333333333 319.833333333 91.8333333333 337.5 87.5 c 128
 355.166666667 83.1666666667 370.833333333 79.8333333333 384.5 77.5 c 128
 398.166666667 75.1666666667 407.333333333 74 412 74 c 0
 456 74 498 80.8333333333 538 94.5 c 128
 578 108.166666667 613.166666667 127.833333333 643.5 153.5 c 128
 673.833333333 179.166666667 698 210.5 716 247.5 c 128
 734 284.5 743 326.333333333 743 373 c 0
 743 407.666666667 732.833333333 438.5 712.5 465.5 c 128
 692.166666667 492.5 667.166666667 516.666666667 637.5 538 c 128
 607.833333333 559.333333333 576.333333333 578.166666667 543 594.5 c 128
 509.666666667 610.833333333 480.333333333 625.666666667 455 639 c 0
 419 657.666666667 384 677.166666667 350 697.5 c 128
 316 717.833333333 285.833333333 740.5 259.5 765.5 c 128
 233.166666667 790.5 212 818.666666667 196 850 c 128
 180 881.333333333 172 917.333333333 172 958 c 0
 172 1026 185.333333333 1087.66666667 212 1143 c 128
 238.666666667 1198.33333333 275.833333333 1245.5 323.5 1284.5 c 128
 371.166666667 1323.5 427.5 1353.66666667 492.5 1375 c 128
 557.5 1396.33333333 628.333333333 1407 705 1407 c 0
 751 1407 793.666666667 1403.83333333 833 1397.5 c 128
 872.333333333 1391.16666667 907 1383.66666667 937 1375 c 128
 967 1366.33333333 991.833333333 1358 1011.5 1350 c 128
 1031.16666667 1342 1044.33333333 1336.33333333 1051 1333 c 1
 985 1020 l 1
EndSplineSet
EndChar

StartChar: T
Encoding: 84 84 34
Width: 1200
GlyphClass: 2
Flags: HW
LayerCount: 2
Back
Fore
SplineSet
1266 1061 m 1
 1137 1061 l 1
 1145 1241 l 1
 1147 1268.33333333 1134 1282 1106 1282 c 2
 842 1282 l 1
 629 135 l 2
 627 125 628.666666667 116.333333333 634 109 c 128
 639.333333333 101.666666667 651.333333333 97.3333333333 670 96 c 2
 786 86 l 1
 786 0 l 1
 254 0 l 1
 254 86 l 1
 373 96 l 2
 385 97.3333333333 395.666666667 101.166666667 405 107.5 c 128
 414.333333333 113.833333333 420 123 422 135 c 2
 635 1282 l 1
 379 1282 l 2
 353 1282 336 1268.33333333 328 1241 c 1
 264 1061 l 1
 135 1061 l 1
 195 1374 l 1
 1329 1374 l 1
 1266 1061 l 1
EndSplineSet
EndChar

StartChar: U
Encoding: 85 85 35
Width: 1448
GlyphClass: 2
Flags: HW
LayerCount: 2
Back
Fore
SplineSet
1415 1278 m 2
 1403 1276.66666667 1392.33333333 1272.83333333 1383 1266.5 c 128
 1373.66666667 1260.16666667 1368 1250.33333333 1366 1237 c 2
 1208 438 l 2
 1194 364 1171.66666667 297.833333333 1141 239.5 c 128
 1110.33333333 181.166666667 1071.16666667 131.833333333 1023.5 91.5 c 128
 975.833333333 51.1666666667 919.833333333 20.3333333333 855.5 -1 c 128
 791.166666667 -22.3333333333 718.333333333 -33 637 -33 c 0
 573.666666667 -33 514.833333333 -26.5 460.5 -13.5 c 128
 406.166666667 -0.5 358.666666667 20.3333333333 318 49 c 128
 277.333333333 77.6666666667 245.5 114.666666667 222.5 160 c 128
 199.5 205.333333333 188 260.666666667 188 326 c 0
 188 346.666666667 190.166666667 375.666666667 194.5 413 c 128
 198.833333333 450.333333333 205.666666667 493 215 541 c 2
 358 1237 l 2
 360 1248.33333333 358.333333333 1257.66666667 353 1265 c 128
 347.666666667 1272.33333333 335.666666667 1276.66666667 317 1278 c 2
 203 1288 l 1
 203 1374 l 1
 735 1374 l 1
 735 1288 l 1
 614 1278 l 2
 602 1276.66666667 591.333333333 1272.83333333 582 1266.5 c 128
 572.666666667 1260.16666667 567 1250.33333333 565 1237 c 1
 424 541 l 2
 416 501 410.166666667 465.166666667 406.5 433.5 c 128
 402.833333333 401.833333333 401 376.666666667 401 358 c 0
 401 314.666666667 407.833333333 277 421.5 245 c 128
 435.166666667 213 454.5 186.166666667 479.5 164.5 c 128
 504.5 142.833333333 534.833333333 126.666666667 570.5 116 c 128
 606.166666667 105.333333333 646 100 690 100 c 0
 756.666666667 100 812.5 111.166666667 857.5 133.5 c 128
 902.5 155.833333333 940 185.666666667 970 223 c 128
 1000 260.333333333 1023.66666667 303.833333333 1041 353.5 c 128
 1058.33333333 403.166666667 1072.33333333 455.333333333 1083 510 c 2
 1227 1237 l 2
 1229 1248.33333333 1227.33333333 1257.66666667 1222 1265 c 128
 1216.66666667 1272.33333333 1204.66666667 1276.66666667 1186 1278 c 2
 1071 1288 l 1
 1071 1374 l 1
 1534 1374 l 1
 1534 1288 l 1
 1415 1278 l 2
EndSplineSet
EndChar

StartChar: V
Encoding: 86 86 36
Width: 1317
GlyphClass: 2
Flags: HW
LayerCount: 2
Back
Fore
SplineSet
1358 1276 m 1
 651 -33 l 1
 496 -33 l 1
 297 1243 l 2
 295 1256.33333333 289.666666667 1266.16666667 281 1272.5 c 128
 272.333333333 1278.83333333 261.333333333 1282.66666667 248 1284 c 2
 170 1288 l 1
 170 1374 l 1
 635 1374 l 1
 635 1288 l 1
 547 1284 l 2
 531.666666667 1282.66666667 520.5 1279.16666667 513.5 1273.5 c 128
 506.5 1267.83333333 504 1257.66666667 506 1243 c 2
 659 252 l 1
 1180 1243 l 2
 1185.33333333 1253.66666667 1186.33333333 1262.83333333 1183 1270.5 c 128
 1179.66666667 1278.16666667 1168.33333333 1282.66666667 1149 1284 c 2
 1049 1288 l 1
 1049 1374 l 1
 1466 1374 l 1
 1466 1288 l 1
 1358 1276 l 1
EndSplineSet
EndChar

StartChar: W
Encoding: 87 87 37
Width: 1898
GlyphClass: 2
Flags: HW
LayerCount: 2
Back
Fore
SplineSet
1927 1276 m 1
 1313 -33 l 1
 1182 -33 l 1
 1063 1061 l 1
 551 -33 l 1
 408 -33 l 1
 305 1243 l 2
 303.666666667 1256.33333333 299.5 1266.16666667 292.5 1272.5 c 128
 285.5 1278.83333333 273.333333333 1282.66666667 256 1284 c 2
 170 1288 l 1
 170 1374 l 1
 643 1374 l 1
 643 1288 l 1
 553 1284 l 2
 537.666666667 1282.66666667 527 1278.66666667 521 1272 c 128
 515 1265.33333333 512 1255.66666667 512 1243 c 1
 584 354 l 1
 1065 1374 l 1
 1231 1374 l 1
 1335 340 l 1
 1751 1243 l 2
 1763 1268.33333333 1750 1282 1712 1284 c 2
 1620 1288 l 1
 1620 1374 l 1
 2048 1374 l 1
 2048 1288 l 1
 1927 1276 l 1
EndSplineSet
EndChar

StartChar: X
Encoding: 88 88 38
Width: 1296
GlyphClass: 2
Flags: HW
LayerCount: 2
Back
Fore
SplineSet
1266 1280 m 2
 1255.33333333 1278.66666667 1245.5 1274.5 1236.5 1267.5 c 128
 1227.5 1260.5 1221 1254.33333333 1217 1249 c 2
 766 737 l 1
 1034 125 l 1
 1040.66666667 112.333333333 1047.33333333 104.333333333 1054 101 c 128
 1060.66666667 97.6666666667 1067.66666667 95.3333333333 1075 94 c 1
 1186 86 l 1
 1186 0 l 1
 657 0 l 1
 657 86 l 1
 788 94 l 2
 799.333333333 95.3333333333 808.333333333 100 815 108 c 128
 821.666666667 116 822.333333333 125 817 135 c 1
 633 565 l 1
 246 135 l 1
 237.333333333 127 233.833333333 118.5 235.5 109.5 c 128
 237.166666667 100.5 246.666666667 95.3333333333 264 94 c 2
 387 86 l 1
 387 0 l 1
 -90 0 l 1
 -90 86 l 1
 8 94 l 2
 19.3333333333 95.3333333333 29.3333333333 99.5 38 106.5 c 128
 46.6666666667 113.5 53 119.666666667 57 125 c 2
 567 696 l 1
 322 1249 l 2
 316.666666667 1261.66666667 310.666666667 1269.66666667 304 1273 c 128
 297.333333333 1276.33333333 290.333333333 1278.66666667 283 1280 c 1
 170 1288 l 1
 170 1374 l 1
 702 1374 l 1
 702 1288 l 1
 569 1280 l 2
 557.666666667 1278.66666667 548.666666667 1274.16666667 542 1266.5 c 128
 535.333333333 1258.83333333 534.333333333 1249.66666667 539 1239 c 2
 707 856 l 1
 1042 1239 l 2
 1049.33333333 1247 1052.5 1255.5 1051.5 1264.5 c 128
 1050.5 1273.5 1041.33333333 1278.66666667 1024 1280 c 2
 926 1288 l 1
 926 1374 l 1
 1389 1374 l 1
 1389 1288 l 1
 1266 1280 l 2
EndSplineSet
EndChar

StartChar: Y
Encoding: 89 89 39
Width: 1309
GlyphClass: 2
Flags: HW
LayerCount: 2
Back
Fore
SplineSet
1341 1280 m 2
 1331 1278.66666667 1321 1274.5 1311 1267.5 c 128
 1301 1260.5 1293.33333333 1254.33333333 1288 1249 c 1
 768 575 l 1
 682 135 l 1
 678.666666667 125 680 116.333333333 686 109 c 128
 692 101.666666667 703.666666667 97.3333333333 721 96 c 2
 836 86 l 1
 836 0 l 1
 303 0 l 1
 303 86 l 1
 422 96 l 2
 434 97.3333333333 444.333333333 101.166666667 453 107.5 c 128
 461.666666667 113.833333333 467.666666667 123 471 135 c 1
 555 557 l 1
 326 1249 l 2
 321.333333333 1262.33333333 315.5 1270.5 308.5 1273.5 c 128
 301.5 1276.5 294.333333333 1278.66666667 287 1280 c 1
 172 1288 l 1
 172 1374 l 1
 702 1374 l 1
 702 1288 l 1
 571 1280 l 2
 559.666666667 1278.66666667 551.166666667 1274.33333333 545.5 1267 c 128
 539.833333333 1259.66666667 539 1250.33333333 543 1239 c 2
 711 707 l 1
 1106 1239 l 2
 1108.66666667 1243.66666667 1111 1248.33333333 1113 1253 c 128
 1115 1257.66666667 1115.66666667 1261.83333333 1115 1265.5 c 128
 1114.33333333 1269.16666667 1112.16666667 1272.33333333 1108.5 1275 c 128
 1104.83333333 1277.66666667 1098.66666667 1279.33333333 1090 1280 c 2
 963 1288 l 1
 963 1374 l 1
 1456 1374 l 1
 1456 1288 l 1
 1341 1280 l 2
EndSplineSet
EndChar

StartChar: Z
Encoding: 90 90 40
Width: 1153
GlyphClass: 2
Flags: HW
LayerCount: 2
Back
Fore
SplineSet
1200 1282 m 1
 236 109 l 1
 793 109 l 2
 819.666666667 109 836.666666667 122.666666667 844 150 c 2
 905 379 l 1
 1044 379 l 1
 973 0 l 1
 -41 0 l 1
 -23 90 l 1
 938 1268 l 1
 459 1268 l 2
 444.333333333 1268 433.5 1264.83333333 426.5 1258.5 c 128
 419.5 1252.16666667 414 1242.33333333 410 1229 c 2
 354 1049 l 1
 213 1049 l 1
 279 1374 l 1
 1219 1374 l 1
 1200 1282 l 1
EndSplineSet
EndChar

StartChar: bracketleft
Encoding: 91 91 41
Width: 862
GlyphClass: 2
Flags: HW
LayerCount: 2
Back
Fore
SplineSet
631 1354 m 1
 326 -174 l 1
 639 -174 l 1
 639 -270 l 1
 111 -270 l 1
 455 1450 l 1
 965 1450 l 1
 965 1354 l 1
 631 1354 l 1
EndSplineSet
EndChar

StartChar: backslash
Encoding: 92 92 42
Width: 1001
GlyphClass: 2
Flags: HW
LayerCount: 2
Back
Fore
SplineSet
870 -190 m 1
 0 1374 l 1
 131 1374 l 1
 1001 -190 l 1
 870 -190 l 1
EndSplineSet
EndChar

StartChar: bracketright
Encoding: 93 93 43
Width: 862
GlyphClass: 2
Flags: HW
LayerCount: 2
Back
Fore
SplineSet
426 -270 m 1
 -84 -270 l 1
 -84 -172 l 1
 252 -172 l 1
 555 1356 l 1
 242 1356 l 1
 242 1450 l 1
 770 1450 l 1
 426 -270 l 1
EndSplineSet
EndChar

StartChar: asciicircum
Encoding: 94 94 44
Width: 702
GlyphClass: 2
Flags: HW
LayerCount: 2
Back
Fore
SplineSet
676 1128 m 1
 508 1317 l 1
 262 1128 l 1
 119 1128 l 1
 457 1475 l 1
 618 1475 l 1
 819 1128 l 1
 676 1128 l 1
EndSplineSet
EndChar

StartChar: underscore
Encoding: 95 95 45
Width: 622
GlyphClass: 2
Flags: HW
LayerCount: 2
Back
Fore
SplineSet
462 -315 m 1
 -160 -315 l 1
 -131 -180 l 1
 488 -180 l 1
 462 -315 l 1
EndSplineSet
EndChar

StartChar: grave
Encoding: 96 96 46
Width: 805
GlyphClass: 2
Flags: HW
LayerCount: 2
Back
Fore
SplineSet
526 1128 m 1
 229 1323 l 2
 215 1332.33333333 203.666666667 1343.83333333 195 1357.5 c 128
 186.333333333 1371.16666667 182 1388.33333333 182 1409 c 0
 182 1419 183.5 1429.33333333 186.5 1440 c 128
 189.5 1450.66666667 194.5 1460.33333333 201.5 1469 c 128
 208.5 1477.66666667 217.833333333 1484.83333333 229.5 1490.5 c 128
 241.166666667 1496.16666667 256 1499 274 1499 c 0
 288.666666667 1499 301.166666667 1497.66666667 311.5 1495 c 128
 321.833333333 1492.33333333 331 1488.83333333 339 1484.5 c 128
 347 1480.16666667 354.166666667 1474.83333333 360.5 1468.5 c 128
 366.833333333 1462.16666667 373 1455.33333333 379 1448 c 2
 653 1128 l 1
 526 1128 l 1
EndSplineSet
EndChar

StartChar: a
Encoding: 97 97 47
Width: 1067
GlyphClass: 2
Flags: HW
LayerCount: 2
Back
Fore
SplineSet
760 803 m 2
 760.666666667 806.333333333 758.166666667 814 752.5 826 c 128
 746.833333333 838 740 850.5 732 863.5 c 128
 724 876.5 715.5 888 706.5 898 c 128
 697.5 908 690 913 684 913 c 0
 632 913 585.5 904.5 544.5 887.5 c 128
 503.5 870.5 467.666666667 847.5 437 818.5 c 128
 406.333333333 789.5 380.166666667 756 358.5 718 c 128
 336.833333333 680 319.333333333 640.333333333 306 599 c 128
 292.666666667 557.666666667 283 516 277 474 c 128
 271 432 268 392 268 354 c 0
 268 325.333333333 270.333333333 296.666666667 275 268 c 128
 279.666666667 239.333333333 287.833333333 213.333333333 299.5 190 c 128
 311.166666667 166.666666667 327.166666667 147.666666667 347.5 133 c 128
 367.833333333 118.333333333 394 111 426 111 c 0
 450 111 474 116.333333333 498 127 c 128
 522 137.666666667 544.333333333 150 565 164 c 128
 585.666666667 178 603.666666667 192 619 206 c 128
 634.333333333 220 645.666666667 230.666666667 653 238 c 1
 760 803 l 2
1061 55 m 1
 1053 51.6666666667 1038.33333333 45.5 1017 36.5 c 128
 995.666666667 27.5 971.833333333 18.5 945.5 9.5 c 128
 919.166666667 0.5 892.5 -7.5 865.5 -14.5 c 128
 838.5 -21.5 815 -25 795 -25 c 0
 770.333333333 -25 749.5 -22 732.5 -16 c 128
 715.5 -10 701.5 -1 690.5 11 c 128
 679.5 23 671 37.6666666667 665 55 c 128
 659 72.3333333333 655 92.3333333333 653 115 c 1
 637.666666667 100.333333333 619.666666667 84.8333333333 599 68.5 c 128
 578.333333333 52.1666666667 555.5 37 530.5 23 c 128
 505.5 9 478.833333333 -2.5 450.5 -11.5 c 128
 422.166666667 -20.5 392.666666667 -25 362 -25 c 0
 322 -25 286.833333333 -19.3333333333 256.5 -8 c 128
 226.166666667 3.33333333333 200 18.5 178 37.5 c 128
 156 56.5 137.833333333 78.5 123.5 103.5 c 128
 109.166666667 128.5 97.6666666667 154.5 89 181.5 c 128
 80.3333333333 208.5 74.3333333333 235.833333333 71 263.5 c 128
 67.6666666667 291.166666667 66 317.333333333 66 342 c 0
 66 394.666666667 71.6666666667 447.833333333 83 501.5 c 128
 94.3333333333 555.166666667 111.166666667 606.833333333 133.5 656.5 c 128
 155.833333333 706.166666667 183.666666667 752.666666667 217 796 c 128
 250.333333333 839.333333333 288.833333333 877 332.5 909 c 128
 376.166666667 941 424.833333333 966.166666667 478.5 984.5 c 128
 532.166666667 1002.83333333 591 1012 655 1012 c 0
 673.666666667 1012 692.166666667 1009.83333333 710.5 1005.5 c 128
 728.833333333 1001.16666667 746 995.5 762 988.5 c 128
 778 981.5 792.666666667 973.666666667 806 965 c 128
 819.333333333 956.333333333 830.666666667 947.333333333 840 938 c 1
 870 987 l 1
 1010 987 l 1
 1006.66666667 979 1003 969.5 999 958.5 c 128
 995 947.5 991 936.333333333 987 925 c 128
 983 913.666666667 979.5 903 976.5 893 c 128
 973.5 883 971.666666667 875.333333333 971 870 c 1
 966.333333333 852 959.666666667 824.833333333 951 788.5 c 128
 942.333333333 752.166666667 933.166666667 711.333333333 923.5 666 c 128
 913.833333333 620.666666667 903.833333333 573.166666667 893.5 523.5 c 128
 883.166666667 473.833333333 874 426.833333333 866 382.5 c 128
 858 338.166666667 851.333333333 298.833333333 846 264.5 c 128
 840.666666667 230.166666667 838 205.333333333 838 190 c 0
 838 154 845.666666667 129.333333333 861 116 c 128
 876.333333333 102.666666667 898 96 926 96 c 0
 932.666666667 96 942.5 97.5 955.5 100.5 c 128
 968.5 103.5 982 107 996 111 c 128
 1010 115 1023 118.666666667 1035 122 c 128
 1047 125.333333333 1055.66666667 127.666666667 1061 129 c 1
 1061 55 l 1
EndSplineSet
EndChar

StartChar: b
Encoding: 98 98 48
Width: 1008
GlyphClass: 2
Flags: HW
LayerCount: 2
Back
Fore
SplineSet
739 627 m 0
 739 673 733.666666667 711.833333333 723 743.5 c 128
 712.333333333 775.166666667 699.333333333 801 684 821 c 128
 668.666666667 841 652.5 855.333333333 635.5 864 c 128
 618.5 872.666666667 604 877 592 877 c 0
 575.333333333 877 557 874.333333333 537 869 c 128
 517 863.666666667 496.5 856.166666667 475.5 846.5 c 128
 454.5 836.833333333 433.666666667 825.666666667 413 813 c 128
 392.333333333 800.333333333 373.333333333 786.666666667 356 772 c 1
 242 152 l 1
 248.666666667 142 257.666666667 132.333333333 269 123 c 128
 280.333333333 113.666666667 293.333333333 105.166666667 308 97.5 c 128
 322.666666667 89.8333333333 338.666666667 83.6666666667 356 79 c 128
 373.333333333 74.3333333333 391.333333333 72 410 72 c 0
 441.333333333 72 471.166666667 80 499.5 96 c 128
 527.833333333 112 554.166666667 133.666666667 578.5 161 c 128
 602.833333333 188.333333333 625 220.333333333 645 257 c 128
 665 293.666666667 681.833333333 332.5 695.5 373.5 c 128
 709.166666667 414.5 719.833333333 456.833333333 727.5 500.5 c 128
 735.166666667 544.166666667 739 586.333333333 739 627 c 0
942 635 m 256
 942 592.333333333 937.333333333 546.5 928 497.5 c 128
 918.666666667 448.5 904.166666667 399.666666667 884.5 351 c 128
 864.833333333 302.333333333 839.666666667 255.333333333 809 210 c 128
 778.333333333 164.666666667 741.666666667 124.666666667 699 90 c 128
 656.333333333 55.3333333333 607.333333333 27.5 552 6.5 c 128
 496.666666667 -14.5 434.333333333 -25 365 -25 c 0
 307 -25 249.833333333 -17 193.5 -1 c 128
 137.166666667 15 85 38.6666666667 37 70 c 1
 279 1368 l 1
 96 1386 l 1
 96 1448 l 1
 416 1509 l 1
 496 1509 l 1
 379 889 l 1
 397.666666667 905.666666667 418.166666667 921.5 440.5 936.5 c 128
 462.833333333 951.5 486 964.5 510 975.5 c 128
 534 986.5 558.666666667 995.333333333 584 1002 c 128
 609.333333333 1008.66666667 634.333333333 1012 659 1012 c 0
 711.666666667 1012 756 1000.33333333 792 977 c 128
 828 953.666666667 857.166666667 923.666666667 879.5 887 c 128
 901.833333333 850.333333333 917.833333333 809.833333333 927.5 765.5 c 128
 937.166666667 721.166666667 942 677.666666667 942 635 c 256
EndSplineSet
EndChar

StartChar: c
Encoding: 99 99 49
Width: 891
GlyphClass: 2
Flags: HW
LayerCount: 2
Back
Fore
SplineSet
825 868 m 0
 825 854.666666667 823 841 819 827 c 128
 815 813 807.166666667 800 795.5 788 c 128
 783.833333333 776 767.833333333 765.166666667 747.5 755.5 c 128
 727.166666667 745.833333333 700.666666667 739 668 735 c 1
 551 893 l 1
 514.333333333 891 481.666666667 880.833333333 453 862.5 c 128
 424.333333333 844.166666667 399.166666667 820.666666667 377.5 792 c 128
 355.833333333 763.333333333 337.5 730.833333333 322.5 694.5 c 128
 307.5 658.166666667 295.333333333 621.333333333 286 584 c 128
 276.666666667 546.666666667 270 510.333333333 266 475 c 128
 262 439.666666667 260 408.333333333 260 381 c 0
 260 347.666666667 263.166666667 314.833333333 269.5 282.5 c 128
 275.833333333 250.166666667 286.166666667 221.166666667 300.5 195.5 c 128
 314.833333333 169.833333333 333.5 149 356.5 133 c 128
 379.5 117 408 109 442 109 c 0
 469.333333333 109 497 113.833333333 525 123.5 c 128
 553 133.166666667 581.166666667 146.666666667 609.5 164 c 128
 637.833333333 181.333333333 666.333333333 202 695 226 c 128
 723.666666667 250 752.666666667 276.333333333 782 305 c 1
 782 176 l 1
 760.666666667 155.333333333 736.333333333 133.333333333 709 110 c 128
 681.666666667 86.6666666667 651.333333333 65 618 45 c 128
 584.666666667 25 548.166666667 8.33333333333 508.5 -5 c 128
 468.833333333 -18.3333333333 426.333333333 -25 381 -25 c 0
 332.333333333 -25 288.5 -16.5 249.5 0.5 c 128
 210.5 17.5 177.5 42.1666666667 150.5 74.5 c 128
 123.5 106.833333333 102.666666667 146.666666667 88 194 c 128
 73.3333333333 241.333333333 66 295.333333333 66 356 c 0
 66 417.333333333 73.1666666667 476 87.5 532 c 128
 101.833333333 588 121.666666667 640.333333333 147 689 c 128
 172.333333333 737.666666667 202.333333333 781.833333333 237 821.5 c 128
 271.666666667 861.166666667 309.333333333 895.166666667 350 923.5 c 128
 390.666666667 951.833333333 433.666666667 973.666666667 479 989 c 128
 524.333333333 1004.33333333 570 1012 616 1012 c 0
 652.666666667 1012 684.333333333 1007.33333333 711 998 c 128
 737.666666667 988.666666667 759.333333333 977 776 963 c 128
 792.666666667 949 805 933.5 813 916.5 c 128
 821 899.5 825 883.333333333 825 868 c 0
EndSplineSet
EndChar

StartChar: d
Encoding: 100 100 50
Width: 1077
GlyphClass: 2
Flags: HW
LayerCount: 2
Back
Fore
SplineSet
850 176 m 2
 846.666666667 156.666666667 847.666666667 141 853 129 c 128
 858.333333333 117 865.5 107.5 874.5 100.5 c 128
 883.5 93.5 892.833333333 88.6666666667 902.5 86 c 128
 912.166666667 83.3333333333 919.333333333 82 924 82 c 256
 928.666666667 82 938.166666667 83.8333333333 952.5 87.5 c 128
 966.833333333 91.1666666667 982 95.3333333333 998 100 c 128
 1014 104.666666667 1029 109 1043 113 c 2
 1071 121 l 1
 1071 45 l 1
 1063 41.6666666667 1048.33333333 36.1666666667 1027 28.5 c 128
 1005.66666667 20.8333333333 982 13 956 5 c 128
 930 -3 903.166666667 -10 875.5 -16 c 128
 847.833333333 -22 823.666666667 -25 803 -25 c 0
 771.666666667 -25 746 -21.1666666667 726 -13.5 c 128
 706 -5.83333333333 690.333333333 4.83333333333 679 18.5 c 128
 667.666666667 32.1666666667 659.833333333 48.3333333333 655.5 67 c 128
 651.166666667 85.6666666667 649 106.333333333 649 129 c 1
 631 109.666666667 611.166666667 90.8333333333 589.5 72.5 c 128
 567.833333333 54.1666666667 544.666666667 37.8333333333 520 23.5 c 128
 495.333333333 9.16666666667 469.333333333 -2.5 442 -11.5 c 128
 414.666666667 -20.5 386.666666667 -25 358 -25 c 0
 300.666666667 -25 253.166666667 -14 215.5 8 c 128
 177.833333333 30 148 58.6666666667 126 94 c 128
 104 129.333333333 88.5 168.666666667 79.5 212 c 128
 70.5 255.333333333 66 298.666666667 66 342 c 0
 66 396 71.8333333333 450.166666667 83.5 504.5 c 128
 95.1666666667 558.833333333 112.5 610.833333333 135.5 660.5 c 128
 158.5 710.166666667 186.666666667 756.333333333 220 799 c 128
 253.333333333 841.666666667 291.333333333 878.833333333 334 910.5 c 128
 376.666666667 942.166666667 424.166666667 967 476.5 985 c 128
 528.833333333 1003 585 1012 645 1012 c 0
 660.333333333 1012 675.333333333 1010.5 690 1007.5 c 128
 704.666666667 1004.5 718.666666667 1001 732 997 c 128
 745.333333333 993 757.666666667 988.666666667 769 984 c 128
 780.333333333 979.333333333 790.333333333 975.666666667 799 973 c 1
 868 1368 l 1
 682 1386 l 1
 682 1448 l 1
 999 1509 l 1
 1083 1509 l 1
 850 176 l 2
770 807 m 2
 770.666666667 809.666666667 766.833333333 817.166666667 758.5 829.5 c 128
 750.166666667 841.833333333 739.5 854.666666667 726.5 868 c 128
 713.5 881.333333333 699.333333333 893.333333333 684 904 c 128
 668.666666667 914.666666667 654.333333333 920 641 920 c 0
 591 920 543.333333333 905.5 498 876.5 c 128
 452.666666667 847.5 412.666666667 807.666666667 378 757 c 128
 343.333333333 706.333333333 315.666666667 646.5 295 577.5 c 128
 274.333333333 508.5 264 434 264 354 c 0
 264 310 268.5 272 277.5 240 c 128
 286.5 208 298.5 181.666666667 313.5 161 c 128
 328.5 140.333333333 345.666666667 125 365 115 c 128
 384.333333333 105 404 100 424 100 c 0
 442.666666667 100 462.833333333 104.666666667 484.5 114 c 128
 506.166666667 123.333333333 528 135.833333333 550 151.5 c 128
 572 167.166666667 593.833333333 185.166666667 615.5 205.5 c 128
 637.166666667 225.833333333 657.333333333 246.666666667 676 268 c 1
 770 807 l 2
EndSplineSet
EndChar

StartChar: e
Encoding: 101 101 51
Width: 889
GlyphClass: 2
Flags: HW
LayerCount: 2
Back
Fore
SplineSet
672 807 m 0
 672 820.333333333 669.333333333 833.5 664 846.5 c 128
 658.666666667 859.5 651.333333333 871 642 881 c 128
 632.666666667 891 621 899.166666667 607 905.5 c 128
 593 911.833333333 577.666666667 915 561 915 c 0
 538.333333333 915 516.666666667 909 496 897 c 128
 475.333333333 885 455.5 869 436.5 849 c 128
 417.5 829 399.833333333 806 383.5 780 c 128
 367.166666667 754 352.5 726.666666667 339.5 698 c 128
 326.5 669.333333333 315 640.333333333 305 611 c 128
 295 581.666666667 287 554 281 528 c 1
 324.333333333 532 369.166666667 542 415.5 558 c 128
 461.833333333 574 504 594.5 542 619.5 c 128
 580 644.5 611.166666667 673 635.5 705 c 128
 659.833333333 737 672 771 672 807 c 0
854 805 m 0
 854 767.666666667 845.333333333 733.333333333 828 702 c 128
 810.666666667 670.666666667 787.166666667 642.333333333 757.5 617 c 128
 727.833333333 591.666666667 693.5 569.166666667 654.5 549.5 c 128
 615.5 529.833333333 574.5 513.166666667 531.5 499.5 c 128
 488.5 485.833333333 444.666666667 474.833333333 400 466.5 c 128
 355.333333333 458.166666667 312.666666667 453 272 451 c 1
 270 437.666666667 268.166666667 421.666666667 266.5 403 c 128
 264.833333333 384.333333333 264 368.666666667 264 356 c 0
 264 318.666666667 268.5 284.333333333 277.5 253 c 128
 286.5 221.666666667 299.5 194.5 316.5 171.5 c 128
 333.5 148.5 354 130.5 378 117.5 c 128
 402 104.5 429 98 459 98 c 0
 505 98 555.666666667 114.666666667 611 148 c 128
 666.333333333 181.333333333 731.666666667 231 807 297 c 1
 807 168 l 1
 787.666666667 149.333333333 764 128.833333333 736 106.5 c 128
 708 84.1666666667 676.166666667 63.1666666667 640.5 43.5 c 128
 604.833333333 23.8333333333 566 7.5 524 -5.5 c 128
 482 -18.5 437.666666667 -25 391 -25 c 0
 370.333333333 -25 347.833333333 -23 323.5 -19 c 128
 299.166666667 -15 275 -7.83333333333 251 2.5 c 128
 227 12.8333333333 203.833333333 27 181.5 45 c 128
 159.166666667 63 139.5 85.8333333333 122.5 113.5 c 128
 105.5 141.166666667 91.8333333333 174.166666667 81.5 212.5 c 128
 71.1666666667 250.833333333 66 296 66 348 c 0
 66 402 72.5 455.833333333 85.5 509.5 c 128
 98.5 563.166666667 116.833333333 614.5 140.5 663.5 c 128
 164.166666667 712.5 192.666666667 758.166666667 226 800.5 c 128
 259.333333333 842.833333333 296 879.5 336 910.5 c 128
 376 941.5 418.833333333 965.833333333 464.5 983.5 c 128
 510.166666667 1001.16666667 557.333333333 1010 606 1010 c 0
 653.333333333 1010 692.833333333 1002.16666667 724.5 986.5 c 128
 756.166666667 970.833333333 781.666666667 952 801 930 c 128
 820.333333333 908 834 885.333333333 842 862 c 128
 850 838.666666667 854 819.666666667 854 805 c 0
EndSplineSet
EndChar

StartChar: f
Encoding: 102 102 52
Width: 659
GlyphClass: 2
Flags: HW
LayerCount: 2
Back
Fore
SplineSet
903 1382 m 0
 903 1349.33333333 891 1324.16666667 867 1306.5 c 128
 843 1288.83333333 812 1277.33333333 774 1272 c 1
 614 1401 l 1
 599.333333333 1389 585.666666667 1371.66666667 573 1349 c 128
 560.333333333 1326.33333333 548.666666667 1300.66666667 538 1272 c 128
 527.333333333 1243.33333333 517.5 1212.83333333 508.5 1180.5 c 128
 499.5 1148.16666667 491.666666667 1116.83333333 485 1086.5 c 128
 478.333333333 1056.16666667 472.666666667 1027.83333333 468 1001.5 c 128
 463.333333333 975.166666667 459.666666667 953.333333333 457 936 c 1
 707 936 l 1
 707 834 l 1
 438 834 l 1
 436 818.666666667 432.5 792 427.5 754 c 128
 422.5 716 416.333333333 672 409 622 c 128
 401.666666667 572 393.833333333 518.5 385.5 461.5 c 128
 377.166666667 404.5 368.833333333 349.5 360.5 296.5 c 128
 352.166666667 243.5 344 194.666666667 336 150 c 128
 328 105.333333333 321 70.3333333333 315 45 c 0
 305.666666667 7 292.833333333 -32.1666666667 276.5 -72.5 c 128
 260.166666667 -112.833333333 240.833333333 -152 218.5 -190 c 128
 196.166666667 -228 171.5 -264 144.5 -298 c 128
 117.5 -332 88.8333333333 -361.666666667 58.5 -387 c 128
 28.1666666667 -412.333333333 -3.5 -432.333333333 -36.5 -447 c 128
 -69.5 -461.666666667 -103 -469 -137 -469 c 0
 -163 -469 -184.5 -464.666666667 -201.5 -456 c 128
 -218.5 -447.333333333 -231.666666667 -437.166666667 -241 -425.5 c 128
 -250.333333333 -413.833333333 -256.833333333 -402.5 -260.5 -391.5 c 128
 -264.166666667 -380.5 -266 -372.333333333 -266 -367 c 0
 -266 -341 -261 -320.833333333 -251 -306.5 c 128
 -241 -292.166666667 -228.333333333 -279.333333333 -213 -268 c 1
 -4 -322 l 1
 14 -300 30.5 -273 45.5 -241 c 128
 60.5 -209 74.1666666667 -173.666666667 86.5 -135 c 128
 98.8333333333 -96.3333333333 110 -54.8333333333 120 -10.5 c 128
 130 33.8333333333 139 79.6666666667 147 127 c 0
 164.333333333 223.666666667 180.333333333 331.5 195 450.5 c 128
 209.666666667 569.5 227.333333333 696.333333333 248 831 c 1
 90 815 l 1
 92 895 l 1
 270 954 l 1
 276.666666667 990 285.833333333 1028.83333333 297.5 1070.5 c 128
 309.166666667 1112.16666667 323.666666667 1153.5 341 1194.5 c 128
 358.333333333 1235.5 378.833333333 1275 402.5 1313 c 128
 426.166666667 1351 453.333333333 1384.5 484 1413.5 c 128
 514.666666667 1442.5 549.166666667 1465.66666667 587.5 1483 c 128
 625.833333333 1500.33333333 668.333333333 1509 715 1509 c 0
 749.666666667 1509 779 1504.66666667 803 1496 c 128
 827 1487.33333333 846.333333333 1476.5 861 1463.5 c 128
 875.666666667 1450.5 886.333333333 1436.66666667 893 1422 c 128
 899.666666667 1407.33333333 903 1394 903 1382 c 0
EndSplineSet
EndChar

StartChar: g
Encoding: 103 103 53
Width: 901
GlyphClass: 2
Flags: HW
LayerCount: 2
Back
Fore
SplineSet
657 -180 m 0
 657 -155.333333333 649.666666667 -132.666666667 635 -112 c 128
 620.333333333 -91.3333333333 593 -71.6666666667 553 -53 c 2
 297 63 l 1
 264.333333333 55 237.166666667 44 215.5 30 c 128
 193.833333333 16 176.666666667 0.166666666667 164 -17.5 c 128
 151.333333333 -35.1666666667 142.333333333 -54 137 -74 c 128
 131.666666667 -94 129 -114.333333333 129 -135 c 0
 129 -158.333333333 134 -184 144 -212 c 128
 154 -240 169.5 -266 190.5 -290 c 128
 211.5 -314 238 -334.166666667 270 -350.5 c 128
 302 -366.833333333 339.666666667 -375 383 -375 c 0
 432.333333333 -375 474.333333333 -368 509 -354 c 128
 543.666666667 -340 572 -323 594 -303 c 128
 616 -283 632 -261.833333333 642 -239.5 c 128
 652 -217.166666667 657 -197.333333333 657 -180 c 0
635 735 m 0
 635 760.333333333 632.666666667 784.5 628 807.5 c 128
 623.333333333 830.5 616.166666667 850.833333333 606.5 868.5 c 128
 596.833333333 886.166666667 584.5 900.166666667 569.5 910.5 c 128
 554.5 920.833333333 536.666666667 926 516 926 c 0
 491.333333333 926 466 917 440 899 c 128
 414 881 390.166666667 856.333333333 368.5 825 c 128
 346.833333333 793.666666667 329.166666667 757 315.5 715 c 128
 301.833333333 673 295 628 295 580 c 0
 295 555.333333333 297.666666667 532.5 303 511.5 c 128
 308.333333333 490.5 316.166666667 472.5 326.5 457.5 c 128
 336.833333333 442.5 349.166666667 430.833333333 363.5 422.5 c 128
 377.833333333 414.166666667 394 410 412 410 c 0
 446 410 476.833333333 420.833333333 504.5 442.5 c 128
 532.166666667 464.166666667 555.666666667 491.333333333 575 524 c 128
 594.333333333 556.666666667 609.166666667 592 619.5 630 c 128
 629.833333333 668 635 703 635 735 c 0
805 862 m 1
 811 846.666666667 816.833333333 827 822.5 803 c 128
 828.166666667 779 831 753 831 725 c 0
 831 659.666666667 819 602.666666667 795 554 c 128
 771 505.333333333 738.666666667 464.666666667 698 432 c 128
 657.333333333 399.333333333 610.166666667 374.833333333 556.5 358.5 c 128
 502.833333333 342.166666667 446.333333333 334 387 334 c 1
 382.333333333 324 378.333333333 313 375 301 c 128
 371.666666667 289 369 277.166666667 367 265.5 c 128
 365 253.833333333 363.666666667 243.166666667 363 233.5 c 128
 362.333333333 223.833333333 363 216.333333333 365 211 c 1
 639 86 l 2
 670.333333333 72 698.833333333 57.8333333333 724.5 43.5 c 128
 750.166666667 29.1666666667 772.166666667 13.5 790.5 -3.5 c 128
 808.833333333 -20.5 823 -39.8333333333 833 -61.5 c 128
 843 -83.1666666667 848 -109 848 -139 c 0
 848 -168.333333333 841.166666667 -196.833333333 827.5 -224.5 c 128
 813.833333333 -252.166666667 795.166666667 -278.166666667 771.5 -302.5 c 128
 747.833333333 -326.833333333 719.5 -349.333333333 686.5 -370 c 128
 653.5 -390.666666667 617.833333333 -408.333333333 579.5 -423 c 128
 541.166666667 -437.666666667 500.833333333 -449 458.5 -457 c 128
 416.166666667 -465 373.333333333 -469 330 -469 c 0
 262.666666667 -469 204.333333333 -460.666666667 155 -444 c 128
 105.666666667 -427.333333333 64.8333333333 -405.333333333 32.5 -378 c 128
 0.166666666667 -350.666666667 -23.8333333333 -319 -39.5 -283 c 128
 -55.1666666667 -247 -63 -209.333333333 -63 -170 c 0
 -63 -135.333333333 -55.8333333333 -103.333333333 -41.5 -74 c 128
 -27.1666666667 -44.6666666667 -7.66666666667 -18.3333333333 17 5 c 128
 41.6666666667 28.3333333333 70.5 49 103.5 67 c 128
 136.5 85 171.666666667 100.333333333 209 113 c 1
 205.666666667 129 205.5 147.833333333 208.5 169.5 c 128
 211.5 191.166666667 216.5 213.166666667 223.5 235.5 c 128
 230.5 257.833333333 239.666666667 279.333333333 251 300 c 128
 262.333333333 320.666666667 275 338 289 352 c 1
 261.666666667 364 236.333333333 377.833333333 213 393.5 c 128
 189.666666667 409.166666667 169.5 427.166666667 152.5 447.5 c 128
 135.5 467.833333333 122.166666667 491.166666667 112.5 517.5 c 128
 102.833333333 543.833333333 98 573.333333333 98 606 c 0
 98 656 107.333333333 705.166666667 126 753.5 c 128
 144.666666667 801.833333333 171.833333333 845.166666667 207.5 883.5 c 128
 243.166666667 921.833333333 286.5 952.833333333 337.5 976.5 c 128
 388.5 1000.16666667 446.666666667 1012 512 1012 c 0
 536.666666667 1012 559.833333333 1009.83333333 581.5 1005.5 c 128
 603.166666667 1001.16666667 622.833333333 996.166666667 640.5 990.5 c 128
 658.166666667 984.833333333 673.5 979 686.5 973 c 128
 699.5 967 709 962 715 958 c 1
 993 958 l 1
 993 862 l 1
 805 862 l 1
EndSplineSet
EndChar

StartChar: h
Encoding: 104 104 54
Width: 1073
GlyphClass: 2
Flags: HW
LayerCount: 2
Back
Fore
SplineSet
1069 51 m 1
 1060.33333333 47.6666666667 1045.16666667 42 1023.5 34 c 128
 1001.83333333 26 977.666666667 17.5 951 8.5 c 128
 924.333333333 -0.5 897 -8.33333333333 869 -15 c 128
 841 -21.6666666667 816.333333333 -25 795 -25 c 0
 782.333333333 -25 766.333333333 -23.1666666667 747 -19.5 c 128
 727.666666667 -15.8333333333 709.5 -9.16666666667 692.5 0.5 c 128
 675.5 10.1666666667 662 23.6666666667 652 41 c 128
 642 58.3333333333 639.666666667 81 645 109 c 2
 770 713 l 2
 776 739.666666667 775.5 763.333333333 768.5 784 c 128
 761.5 804.666666667 751.666666667 821.833333333 739 835.5 c 128
 726.333333333 849.166666667 712.333333333 859.5 697 866.5 c 128
 681.666666667 873.5 668.333333333 877 657 877 c 0
 641 877 621.5 873 598.5 865 c 128
 575.5 857 551.166666667 846 525.5 832 c 128
 499.833333333 818 474 801.166666667 448 781.5 c 128
 422 761.833333333 397.666666667 740.333333333 375 717 c 1
 225 0 l 1
 37 0 l 1
 319 1368 l 1
 137 1386 l 1
 137 1448 l 1
 457 1509 l 1
 539 1509 l 1
 401 848 l 1
 421.666666667 870.666666667 446.166666667 892 474.5 912 c 128
 502.833333333 932 533.166666667 949.5 565.5 964.5 c 128
 597.833333333 979.5 631.5 991.166666667 666.5 999.5 c 128
 701.5 1007.83333333 736 1012 770 1012 c 0
 807.333333333 1012 840.333333333 1006.16666667 869 994.5 c 128
 897.666666667 982.833333333 920.833333333 965.5 938.5 942.5 c 128
 956.166666667 919.5 967.5 890.666666667 972.5 856 c 128
 977.5 821.333333333 975 781 965 735 c 2
 852 184 l 2
 848 164.666666667 849 148.5 855 135.5 c 128
 861 122.5 869.166666667 112.166666667 879.5 104.5 c 128
 889.833333333 96.8333333333 900.666666667 91.5 912 88.5 c 128
 923.333333333 85.5 932 84 938 84 c 0
 956.666666667 84 977 88.6666666667 999 98 c 128
 1021 107.333333333 1043.66666667 115.666666667 1067 123 c 1
 1069 51 l 1
EndSplineSet
EndChar

StartChar: i
Encoding: 105 105 55
Width: 545
GlyphClass: 2
Flags: HW
LayerCount: 2
Back
Fore
SplineSet
539 59 m 1
 531 55.6666666667 516.333333333 49.3333333333 495 40 c 128
 473.666666667 30.6666666667 448.666666667 21.1666666667 420 11.5 c 128
 391.333333333 1.83333333333 361.166666667 -6.66666666667 329.5 -14 c 128
 297.833333333 -21.3333333333 268 -25 240 -25 c 0
 204.666666667 -25 176.666666667 -19 156 -7 c 128
 135.333333333 5 120 20.6666666667 110 40 c 128
 100 59.3333333333 94.3333333333 81 93 105 c 128
 91.6666666667 129 93.3333333333 152.666666667 98 176 c 2
 229 870 l 1
 53 889 l 1
 53 948 l 1
 362 1012 l 1
 446 1012 l 1
 291 193 l 2
 288.333333333 179 288.5 165.666666667 291.5 153 c 128
 294.5 140.333333333 299.5 129.166666667 306.5 119.5 c 128
 313.5 109.833333333 322.5 102.166666667 333.5 96.5 c 128
 344.5 90.8333333333 357 88 371 88 c 0
 383 88 397.166666667 90.1666666667 413.5 94.5 c 128
 429.833333333 98.8333333333 446.166666667 103.833333333 462.5 109.5 c 128
 478.833333333 115.166666667 494 120.666666667 508 126 c 128
 522 131.333333333 532.333333333 135 539 137 c 1
 539 59 l 1
530 1313 m 0
 530 1297.66666667 527.166666667 1283.16666667 521.5 1269.5 c 128
 515.833333333 1255.83333333 507.833333333 1243.66666667 497.5 1233 c 128
 487.166666667 1222.33333333 474.333333333 1213.83333333 459 1207.5 c 128
 443.666666667 1201.16666667 426 1198 406 1198 c 0
 364 1198 332.333333333 1209.16666667 311 1231.5 c 128
 289.666666667 1253.83333333 279 1281 279 1313 c 0
 279 1326.33333333 281.833333333 1339.66666667 287.5 1353 c 128
 293.166666667 1366.33333333 301.5 1378.5 312.5 1389.5 c 128
 323.5 1400.5 337 1409.5 353 1416.5 c 128
 369 1423.5 387.333333333 1427 408 1427 c 0
 427.333333333 1427 444.5 1423.66666667 459.5 1417 c 128
 474.5 1410.33333333 487.333333333 1401.66666667 498 1391 c 128
 508.666666667 1380.33333333 516.666666667 1368.16666667 522 1354.5 c 128
 527.333333333 1340.83333333 530 1327 530 1313 c 0
EndSplineSet
EndChar

StartChar: j
Encoding: 106 106 56
Width: 559
GlyphClass: 2
Flags: HW
LayerCount: 2
Back
Fore
SplineSet
328 164 m 2
 322 130 313 90.6666666667 301 46 c 128
 289 1.33333333333 273.833333333 -44.5 255.5 -91.5 c 128
 237.166666667 -138.5 215.5 -184.5 190.5 -229.5 c 128
 165.5 -274.5 137 -314.833333333 105 -350.5 c 128
 73 -386.166666667 37.6666666667 -414.833333333 -1 -436.5 c 128
 -39.6666666667 -458.166666667 -81.6666666667 -469 -127 -469 c 0
 -170.333333333 -469 -204 -458.666666667 -228 -438 c 128
 -252 -417.333333333 -264 -391.333333333 -264 -360 c 0
 -264 -347.333333333 -262 -336 -258 -326 c 128
 -254 -316 -249 -307.333333333 -243 -300 c 128
 -237 -292.666666667 -230.833333333 -286.333333333 -224.5 -281 c 128
 -218.166666667 -275.666666667 -212.333333333 -271.333333333 -207 -268 c 1
 -2 -324 l 1
 8 -313.333333333 18.1666666667 -297 28.5 -275 c 128
 38.8333333333 -253 49 -228.166666667 59 -200.5 c 128
 69 -172.833333333 78 -143.666666667 86 -113 c 128
 94 -82.3333333333 100.666666667 -53 106 -25 c 2
 260 870 l 1
 88 889 l 1
 88 948 l 1
 397 1012 l 1
 473 1012 l 1
 328 164 l 2
545 1313 m 0
 545 1301 542 1288.16666667 536 1274.5 c 128
 530 1260.83333333 521.333333333 1248.33333333 510 1237 c 128
 498.666666667 1225.66666667 485.166666667 1216.33333333 469.5 1209 c 128
 453.833333333 1201.66666667 436.666666667 1198 418 1198 c 0
 380.666666667 1198 350.166666667 1208.83333333 326.5 1230.5 c 128
 302.833333333 1252.16666667 291 1279.66666667 291 1313 c 0
 291 1328.33333333 293.5 1343 298.5 1357 c 128
 303.5 1371 311.333333333 1383.5 322 1394.5 c 128
 332.666666667 1405.5 346 1414.16666667 362 1420.5 c 128
 378 1426.83333333 396.666666667 1430 418 1430 c 0
 438.666666667 1430 456.833333333 1426.83333333 472.5 1420.5 c 128
 488.166666667 1414.16666667 501.333333333 1405.5 512 1394.5 c 128
 522.666666667 1383.5 530.833333333 1371 536.5 1357 c 128
 542.166666667 1343 545 1328.33333333 545 1313 c 0
EndSplineSet
EndChar

StartChar: k
Encoding: 107 107 57
Width: 1042
GlyphClass: 2
Flags: HW
LayerCount: 2
Back
Fore
SplineSet
1018 47 m 1
 1000.66666667 38.3333333333 980.833333333 29.6666666667 958.5 21 c 128
 936.166666667 12.3333333333 913.333333333 4.66666666667 890 -2 c 128
 866.666666667 -8.66666666667 843.833333333 -14.1666666667 821.5 -18.5 c 128
 799.166666667 -22.8333333333 780 -25 764 -25 c 0
 747.333333333 -25 731 -22.1666666667 715 -16.5 c 128
 699 -10.8333333333 683.833333333 -3.5 669.5 5.5 c 128
 655.166666667 14.5 642 24.8333333333 630 36.5 c 128
 618 48.1666666667 608 60 600 72 c 0
 590.666666667 86 580.166666667 104.166666667 568.5 126.5 c 128
 556.833333333 148.833333333 544.5 173.333333333 531.5 200 c 128
 518.5 226.666666667 505.333333333 254.5 492 283.5 c 128
 478.666666667 312.5 465.833333333 340.5 453.5 367.5 c 128
 441.166666667 394.5 429.833333333 419.666666667 419.5 443 c 128
 409.166666667 466.333333333 400.333333333 485.333333333 393 500 c 1
 299 416 l 1
 215 0 l 1
 27 0 l 1
 299 1368 l 1
 119 1386 l 1
 119 1448 l 1
 436 1509 l 1
 518 1509 l 1
 328 557 l 1
 659 899 l 2
 678.333333333 919 696 936.166666667 712 950.5 c 128
 728 964.833333333 743.5 976.5 758.5 985.5 c 128
 773.5 994.5 788.666666667 1001.16666667 804 1005.5 c 128
 819.333333333 1009.83333333 836 1012 854 1012 c 0
 876.666666667 1012 896.5 1008.66666667 913.5 1002 c 128
 930.5 995.333333333 944.5 986.666666667 955.5 976 c 128
 966.5 965.333333333 974.666666667 953.333333333 980 940 c 128
 985.333333333 926.666666667 987.666666667 913.666666667 987 901 c 1
 987 877.666666667 976.166666667 853.5 954.5 828.5 c 128
 932.833333333 803.5 898 782.666666667 850 766 c 1
 780 840 l 1
 761.333333333 825.333333333 741.166666667 809 719.5 791 c 128
 697.833333333 773 676 754.666666667 654 736 c 128
 632 717.333333333 611 699 591 681 c 128
 571 663 553 647 537 633 c 1
 545.666666667 615.666666667 555.166666667 594 565.5 568 c 128
 575.833333333 542 586.833333333 514.166666667 598.5 484.5 c 128
 610.166666667 454.833333333 622.833333333 424.5 636.5 393.5 c 128
 650.166666667 362.5 664.666666667 333 680 305 c 0
 695.333333333 276.333333333 711.5 248.833333333 728.5 222.5 c 128
 745.5 196.166666667 763 172.833333333 781 152.5 c 128
 799 132.166666667 817.333333333 116 836 104 c 128
 854.666666667 92 873 86 891 86 c 0
 898.333333333 86 907.333333333 86.8333333333 918 88.5 c 128
 928.666666667 90.1666666667 940 92.3333333333 952 95 c 128
 964 97.6666666667 975.833333333 101 987.5 105 c 128
 999.166666667 109 1009.33333333 113 1018 117 c 1
 1018 47 l 1
EndSplineSet
EndChar

StartChar: l
Encoding: 108 108 58
Width: 543
GlyphClass: 2
Flags: HW
LayerCount: 2
Back
Fore
SplineSet
539 53 m 1
 531 49.6666666667 516 43.8333333333 494 35.5 c 128
 472 27.1666666667 447.333333333 18.5 420 9.5 c 128
 392.666666667 0.5 364.166666667 -7.5 334.5 -14.5 c 128
 304.833333333 -21.5 278 -25 254 -25 c 0
 222.666666667 -25 196 -21.3333333333 174 -14 c 128
 152 -6.66666666667 134 3.66666666667 120 17 c 128
 106 30.3333333333 95.8333333333 46.1666666667 89.5 64.5 c 128
 83.1666666667 82.8333333333 80 103 80 125 c 0
 80 145.666666667 82 169.666666667 86 197 c 1
 311 1368 l 1
 129 1386 l 1
 129 1448 l 1
 449 1509 l 1
 528 1509 l 1
 279 203 l 2
 276.333333333 189 277 175.166666667 281 161.5 c 128
 285 147.833333333 291.333333333 135.833333333 300 125.5 c 128
 308.666666667 115.166666667 319.333333333 106.666666667 332 100 c 128
 344.666666667 93.3333333333 358.333333333 90 373 90 c 0
 383 90 396.166666667 91.8333333333 412.5 95.5 c 128
 428.833333333 99.1666666667 445.333333333 103.333333333 462 108 c 128
 478.666666667 112.666666667 494.166666667 117.333333333 508.5 122 c 128
 522.833333333 126.666666667 533 129.666666667 539 131 c 1
 539 53 l 1
EndSplineSet
EndChar

StartChar: m
Encoding: 109 109 59
Width: 1589
GlyphClass: 2
Flags: HW
LayerCount: 2
Back
Fore
SplineSet
1583 53 m 1
 1565.66666667 45.6666666667 1546.16666667 37.5 1524.5 28.5 c 128
 1502.83333333 19.5 1480.5 11 1457.5 3 c 128
 1434.5 -5 1411.66666667 -11.6666666667 1389 -17 c 128
 1366.33333333 -22.3333333333 1345 -25 1325 -25 c 0
 1297 -25 1271.83333333 -21.8333333333 1249.5 -15.5 c 128
 1227.16666667 -9.16666666667 1208.5 0 1193.5 12 c 128
 1178.5 24 1167.83333333 39 1161.5 57 c 128
 1155.16666667 75 1154.33333333 95.6666666667 1159 119 c 2
 1272 666 l 2
 1278.66666667 700 1281 729.666666667 1279 755 c 128
 1277 780.333333333 1271.83333333 801.333333333 1263.5 818 c 128
 1255.16666667 834.666666667 1244.83333333 847.166666667 1232.5 855.5 c 128
 1220.16666667 863.833333333 1207.33333333 868 1194 868 c 0
 1162.66666667 868 1132.16666667 861 1102.5 847 c 128
 1072.83333333 833 1045.66666667 816.5 1021 797.5 c 128
 996.333333333 778.5 975 759.166666667 957 739.5 c 128
 939 719.833333333 926.666666667 704 920 692 c 1
 776 0 l 1
 586 0 l 1
 723 668 l 2
 727.666666667 690 729.833333333 712.833333333 729.5 736.5 c 128
 729.166666667 760.166666667 725.833333333 781.666666667 719.5 801 c 128
 713.166666667 820.333333333 703.333333333 836.333333333 690 849 c 128
 676.666666667 861.666666667 659 868 637 868 c 0
 613 868 587.5 861 560.5 847 c 128
 533.5 833 507.5 816.333333333 482.5 797 c 128
 457.5 777.666666667 434.833333333 757.833333333 414.5 737.5 c 128
 394.166666667 717.166666667 379 700.666666667 369 688 c 1
 225 0 l 1
 37 0 l 1
 213 870 l 1
 43 889 l 1
 43 948 l 1
 350 1012 l 1
 434 1012 l 1
 395 823 l 1
 420.333333333 847 447.333333333 870.5 476 893.5 c 128
 504.666666667 916.5 534.333333333 936.666666667 565 954 c 128
 595.666666667 971.333333333 626.666666667 985.333333333 658 996 c 128
 689.333333333 1006.66666667 720 1012 750 1012 c 0
 784 1012 812.166666667 1005.66666667 834.5 993 c 128
 856.833333333 980.333333333 874.833333333 964.5 888.5 945.5 c 128
 902.166666667 926.5 912.166666667 906 918.5 884 c 128
 924.833333333 862 929.333333333 841.666666667 932 823 c 1
 956.666666667 847.666666667 984 871.333333333 1014 894 c 128
 1044 916.666666667 1075.33333333 936.833333333 1108 954.5 c 128
 1140.66666667 972.166666667 1173.83333333 986.166666667 1207.5 996.5 c 128
 1241.16666667 1006.83333333 1273.66666667 1012 1305 1012 c 0
 1339 1012 1368.83333333 1005.83333333 1394.5 993.5 c 128
 1420.16666667 981.166666667 1440.83333333 963.666666667 1456.5 941 c 128
 1472.16666667 918.333333333 1482.16666667 891 1486.5 859 c 128
 1490.83333333 827 1489 791.333333333 1481 752 c 2
 1366 199 l 2
 1362.66666667 182.333333333 1363 167.166666667 1367 153.5 c 128
 1371 139.833333333 1377.16666667 128 1385.5 118 c 128
 1393.83333333 108 1404 100.166666667 1416 94.5 c 128
 1428 88.8333333333 1440.66666667 86 1454 86 c 0
 1470.66666667 86 1490 90 1512 98 c 128
 1534 106 1557.66666667 114.333333333 1583 123 c 1
 1583 53 l 1
EndSplineSet
EndChar

StartChar: n
Encoding: 110 110 60
Width: 1085
GlyphClass: 2
Flags: HW
LayerCount: 2
Back
Fore
SplineSet
1079 41 m 1
 1070.33333333 37.6666666667 1055.16666667 32.5 1033.5 25.5 c 128
 1011.83333333 18.5 987.666666667 11.1666666667 961 3.5 c 128
 934.333333333 -4.16666666667 907 -10.8333333333 879 -16.5 c 128
 851 -22.1666666667 826.333333333 -25 805 -25 c 0
 793 -25 776.5 -23.8333333333 755.5 -21.5 c 128
 734.5 -19.1666666667 714.333333333 -13.8333333333 695 -5.5 c 128
 675.666666667 2.83333333333 660 15 648 31 c 128
 636 47 633 68.6666666667 639 96 c 2
 764 725 l 1
 768.666666667 752.333333333 768.833333333 775 764.5 793 c 128
 760.166666667 811 753.166666667 825.5 743.5 836.5 c 128
 733.833333333 847.5 722.666666667 855.166666667 710 859.5 c 128
 697.333333333 863.833333333 685.333333333 866 674 866 c 0
 657.333333333 866 636.833333333 861.166666667 612.5 851.5 c 128
 588.166666667 841.833333333 562.5 829 535.5 813 c 128
 508.5 797 481.333333333 778.166666667 454 756.5 c 128
 426.666666667 734.833333333 401.666666667 712 379 688 c 1
 238 0 l 1
 47 0 l 1
 225 870 l 1
 53 889 l 1
 53 948 l 1
 362 1012 l 1
 444 1012 l 1
 406 821 l 1
 428.666666667 843.666666667 454.666666667 866.5 484 889.5 c 128
 513.333333333 912.5 544.666666667 933 578 951 c 128
 611.333333333 969 645.833333333 983.666666667 681.5 995 c 128
 717.166666667 1006.33333333 752 1012 786 1012 c 0
 860.666666667 1012 913.833333333 991.333333333 945.5 950 c 128
 977.166666667 908.666666667 985 842 969 750 c 1
 860 172 l 2
 856.666666667 152.666666667 858.166666667 137.333333333 864.5 126 c 128
 870.833333333 114.666666667 879.166666667 106 889.5 100 c 128
 899.833333333 94 910.666666667 90.1666666667 922 88.5 c 128
 933.333333333 86.8333333333 942 86 948 86 c 0
 966.666666667 86 987 88.6666666667 1009 94 c 128
 1031 99.3333333333 1053.66666667 105.666666667 1077 113 c 1
 1079 41 l 1
EndSplineSet
EndChar

StartChar: o
Encoding: 111 111 61
Width: 1036
GlyphClass: 2
Flags: HW
LayerCount: 2
Back
Fore
SplineSet
766 623 m 0
 766 671.666666667 761.333333333 714.666666667 752 752 c 128
 742.666666667 789.333333333 730 820.666666667 714 846 c 128
 698 871.333333333 678.833333333 890.666666667 656.5 904 c 128
 634.166666667 917.333333333 610 924 584 924 c 0
 539.333333333 924 497.833333333 907.833333333 459.5 875.5 c 128
 421.166666667 843.166666667 388 800.833333333 360 748.5 c 128
 332 696.166666667 310 637.166666667 294 571.5 c 128
 278 505.833333333 270 439.666666667 270 373 c 0
 270 322.333333333 274.666666667 278 284 240 c 128
 293.333333333 202 306.333333333 170.166666667 323 144.5 c 128
 339.666666667 118.833333333 359 99.6666666667 381 87 c 128
 403 74.3333333333 427 68 453 68 c 0
 485 68 515.166666667 76.1666666667 543.5 92.5 c 128
 571.833333333 108.833333333 597.5 130.833333333 620.5 158.5 c 128
 643.5 186.166666667 664 218.333333333 682 255 c 128
 700 291.666666667 715.333333333 330.5 728 371.5 c 128
 740.666666667 412.5 750.166666667 454.666666667 756.5 498 c 128
 762.833333333 541.333333333 766 583 766 623 c 0
973 614 m 0
 973 558.666666667 966.833333333 504.5 954.5 451.5 c 128
 942.166666667 398.5 924.5 348.333333333 901.5 301 c 128
 878.5 253.666666667 850.833333333 210.166666667 818.5 170.5 c 128
 786.166666667 130.833333333 749.833333333 96.5 709.5 67.5 c 128
 669.166666667 38.5 625.333333333 15.8333333333 578 -0.5 c 128
 530.666666667 -16.8333333333 480.666666667 -25 428 -25 c 0
 372 -25 321.333333333 -16 276 2 c 128
 230.666666667 20 192.333333333 45.8333333333 161 79.5 c 128
 129.666666667 113.166666667 105.5 153.833333333 88.5 201.5 c 128
 71.5 249.166666667 63 302.666666667 63 362 c 0
 63 417.333333333 69 471.833333333 81 525.5 c 128
 93 579.166666667 110.166666667 630 132.5 678 c 128
 154.833333333 726 182 770.5 214 811.5 c 128
 246 852.5 282.166666667 887.833333333 322.5 917.5 c 128
 362.833333333 947.166666667 406.833333333 970.333333333 454.5 987 c 128
 502.166666667 1003.66666667 552.666666667 1012 606 1012 c 0
 655.333333333 1012 702.166666667 1004.33333333 746.5 989 c 128
 790.833333333 973.666666667 829.833333333 949.666666667 863.5 917 c 128
 897.166666667 884.333333333 923.833333333 843 943.5 793 c 128
 963.166666667 743 973 683.333333333 973 614 c 0
EndSplineSet
EndChar

StartChar: p
Encoding: 112 112 62
Width: 1012
GlyphClass: 2
Flags: HW
LayerCount: 2
Back
Fore
SplineSet
743 625 m 0
 743 655 739.833333333 685.5 733.5 716.5 c 128
 727.166666667 747.5 717.5 775.666666667 704.5 801 c 128
 691.5 826.333333333 675 847 655 863 c 128
 635 879 611.333333333 887 584 887 c 0
 559.333333333 887 534.666666667 881.5 510 870.5 c 128
 485.333333333 859.5 462.833333333 847.166666667 442.5 833.5 c 128
 422.166666667 819.833333333 404.666666667 806.5 390 793.5 c 128
 375.333333333 780.5 365.333333333 772 360 768 c 1
 238 133 l 1
 244 129.666666667 252.5 124.5 263.5 117.5 c 128
 274.5 110.5 287.333333333 103.666666667 302 97 c 128
 316.666666667 90.3333333333 332.333333333 84.5 349 79.5 c 128
 365.666666667 74.5 383 72 401 72 c 0
 438.333333333 72 472.666666667 80.3333333333 504 97 c 128
 535.333333333 113.666666667 563.666666667 136.166666667 589 164.5 c 128
 614.333333333 192.833333333 636.666666667 225.666666667 656 263 c 128
 675.333333333 300.333333333 691.333333333 339.5 704 380.5 c 128
 716.666666667 421.5 726.333333333 463 733 505 c 128
 739.666666667 547 743 587 743 625 c 0
946 633 m 0
 946 577 939.333333333 521.833333333 926 467.5 c 128
 912.666666667 413.166666667 893.5 361.666666667 868.5 313 c 128
 843.5 264.333333333 813.333333333 219.333333333 778 178 c 128
 742.666666667 136.666666667 703.333333333 101 660 71 c 128
 616.666666667 41 569.666666667 17.5 519 0.5 c 128
 468.333333333 -16.5 415.333333333 -25 360 -25 c 0
 329.333333333 -25 301.666666667 -20.6666666667 277 -12 c 128
 252.333333333 -3.33333333333 231.666666667 4.66666666667 215 12 c 1
 150 -317 l 2
 147.333333333 -328.333333333 148.833333333 -337.5 154.5 -344.5 c 128
 160.166666667 -351.5 172 -356 190 -358 c 2
 319 -369 l 1
 319 -446 l 1
 -197 -446 l 1
 -197 -369 l 1
 -90 -358 l 1
 -61.3333333333 -356 -45 -342.333333333 -41 -317 c 1
 190 870 l 1
 18 889 l 1
 18 948 l 1
 328 1012 l 1
 408 1012 l 1
 383 885 l 1
 400.333333333 896.333333333 420.166666667 909.333333333 442.5 924 c 128
 464.833333333 938.666666667 488.666666667 952.5 514 965.5 c 128
 539.333333333 978.5 565.833333333 989.5 593.5 998.5 c 128
 621.166666667 1007.5 649.333333333 1012 678 1012 c 0
 730 1012 773.166666667 1000.83333333 807.5 978.5 c 128
 841.833333333 956.166666667 869.166666667 927 889.5 891 c 128
 909.833333333 855 924.333333333 814.333333333 933 769 c 128
 941.666666667 723.666666667 946 678.333333333 946 633 c 0
EndSplineSet
EndChar

StartChar: q
Encoding: 113 113 63
Width: 1069
GlyphClass: 2
Flags: HW
LayerCount: 2
Back
Fore
SplineSet
772 795 m 2
 773.333333333 802.333333333 770.166666667 812.833333333 762.5 826.5 c 128
 754.833333333 840.166666667 745.166666667 853.833333333 733.5 867.5 c 128
 721.833333333 881.166666667 709.833333333 893 697.5 903 c 128
 685.166666667 913 675.333333333 918 668 918 c 0
 612 918 559.5 903.666666667 510.5 875 c 128
 461.5 846.333333333 418.666666667 806.666666667 382 756 c 128
 345.333333333 705.333333333 316.5 645.666666667 295.5 577 c 128
 274.5 508.333333333 264 434 264 354 c 0
 264 315.333333333 267.833333333 280.333333333 275.5 249 c 128
 283.166666667 217.666666667 294.166666667 191 308.5 169 c 128
 322.833333333 147 340.333333333 130 361 118 c 128
 381.666666667 106 404.666666667 100 430 100 c 0
 450.666666667 100 471.166666667 103.833333333 491.5 111.5 c 128
 511.833333333 119.166666667 531.5 129.333333333 550.5 142 c 128
 569.5 154.666666667 588.333333333 168.666666667 607 184 c 128
 625.666666667 199.333333333 644 215 662 231 c 1
 772 795 l 2
743 -317 m 2
 741 -328.333333333 742.833333333 -337.5 748.5 -344.5 c 128
 754.166666667 -351.5 766 -356 784 -358 c 2
 911 -369 l 1
 911 -446 l 1
 395 -446 l 1
 395 -369 l 1
 504 -358 l 2
 517.333333333 -356.666666667 528.333333333 -352.833333333 537 -346.5 c 128
 545.666666667 -340.166666667 551.666666667 -330.333333333 555 -317 c 1
 639 109 l 1
 591.666666667 69.6666666667 543.333333333 37.5 494 12.5 c 128
 444.666666667 -12.5 396 -25 348 -25 c 0
 306.666666667 -25 268.833333333 -17.1666666667 234.5 -1.5 c 128
 200.166666667 14.1666666667 170.5 37.6666666667 145.5 69 c 128
 120.5 100.333333333 101 139 87 185 c 128
 73 231 66 284.666666667 66 346 c 0
 66 398.666666667 72.3333333333 451.666666667 85 505 c 128
 97.6666666667 558.333333333 115.666666667 609.666666667 139 659 c 128
 162.333333333 708.333333333 191 754.5 225 797.5 c 128
 259 840.5 297.333333333 877.833333333 340 909.5 c 128
 382.666666667 941.166666667 429.333333333 966.166666667 480 984.5 c 128
 530.666666667 1002.83333333 584.333333333 1012 641 1012 c 0
 684.333333333 1012 722.666666667 1005.66666667 756 993 c 128
 789.333333333 980.333333333 815.333333333 966.666666667 834 952 c 1
 883 1012 l 1
 1006 1012 l 1
 743 -317 l 2
EndSplineSet
EndChar

StartChar: r
Encoding: 114 114 64
Width: 766
GlyphClass: 2
Flags: HW
LayerCount: 2
Back
Fore
SplineSet
838 874 m 0
 838 850 833.666666667 830.833333333 825 816.5 c 128
 816.333333333 802.166666667 804 791.333333333 788 784 c 128
 772 776.666666667 752.833333333 771.833333333 730.5 769.5 c 128
 708.166666667 767.166666667 683 766 655 766 c 1
 606 864 l 1
 580.666666667 853.333333333 553.5 834.833333333 524.5 808.5 c 128
 495.5 782.166666667 468 752.166666667 442 718.5 c 128
 416 684.833333333 393.333333333 650.166666667 374 614.5 c 128
 354.666666667 578.833333333 342 546 336 516 c 2
 229 0 l 1
 39 0 l 1
 215 870 l 1
 43 889 l 1
 43 948 l 1
 352 1012 l 1
 434 1012 l 1
 391 805 l 1
 433 869.666666667 480.666666667 920.333333333 534 957 c 128
 587.333333333 993.666666667 645 1012 707 1012 c 0
 731.666666667 1012 752.333333333 1007.5 769 998.5 c 128
 785.666666667 989.5 799.166666667 978 809.5 964 c 128
 819.833333333 950 827.166666667 935 831.5 919 c 128
 835.833333333 903 838 888 838 874 c 0
EndSplineSet
EndChar

StartChar: s
Encoding: 115 115 65
Width: 758
GlyphClass: 2
Flags: HW
LayerCount: 2
Back
Fore
SplineSet
715 883 m 0
 715 859 709.666666667 839.833333333 699 825.5 c 128
 688.333333333 811.166666667 675.333333333 800 660 792 c 128
 644.666666667 784 628.5 778.5 611.5 775.5 c 128
 594.5 772.5 579.666666667 770.666666667 567 770 c 1
 475 895 l 1
 471 898.333333333 464.666666667 901.833333333 456 905.5 c 128
 447.333333333 909.166666667 436.666666667 911 424 911 c 0
 401.333333333 911 382.333333333 906.166666667 367 896.5 c 128
 351.666666667 886.833333333 339.166666667 874.833333333 329.5 860.5 c 128
 319.833333333 846.166666667 313 830.833333333 309 814.5 c 128
 305 798.166666667 303 783.333333333 303 770 c 0
 303 751.333333333 308.333333333 732.5 319 713.5 c 128
 329.666666667 694.5 343.666666667 675.5 361 656.5 c 128
 378.333333333 637.5 397.833333333 618.833333333 419.5 600.5 c 128
 441.166666667 582.166666667 463 564.333333333 485 547 c 0
 507.666666667 529 529.5 510.5 550.5 491.5 c 128
 571.5 472.5 590.333333333 452.833333333 607 432.5 c 128
 623.666666667 412.166666667 637 390.666666667 647 368 c 128
 657 345.333333333 662 321.666666667 662 297 c 0
 662 255 653.5 214.666666667 636.5 176 c 128
 619.5 137.333333333 594.5 103 561.5 73 c 128
 528.5 43 487.5 19.1666666667 438.5 1.5 c 128
 389.5 -16.1666666667 333.333333333 -25 270 -25 c 0
 220.666666667 -25 178 -19.5 142 -8.5 c 128
 106 2.5 76.3333333333 16.8333333333 53 34.5 c 128
 29.6666666667 52.1666666667 12.3333333333 72.3333333333 1 95 c 128
 -10.3333333333 117.666666667 -16 140.666666667 -16 164 c 0
 -16 196.666666667 -6.16666666667 223.166666667 13.5 243.5 c 128
 33.1666666667 263.833333333 64 274 106 274 c 0
 118.666666667 274 130.666666667 272.333333333 142 269 c 128
 153.333333333 265.666666667 163.666666667 261.833333333 173 257.5 c 128
 182.333333333 253.166666667 190.5 248.5 197.5 243.5 c 128
 204.5 238.5 209.666666667 234.333333333 213 231 c 1
 174 131 l 1
 188.666666667 110.333333333 206.833333333 92.8333333333 228.5 78.5 c 128
 250.166666667 64.1666666667 278.333333333 57 313 57 c 0
 333.666666667 57 353.666666667 61 373 69 c 128
 392.333333333 77 409.5 88.3333333333 424.5 103 c 128
 439.5 117.666666667 451.333333333 135.5 460 156.5 c 128
 468.666666667 177.5 473 201 473 227 c 0
 473 247.666666667 468.833333333 267.166666667 460.5 285.5 c 128
 452.166666667 303.833333333 440.5 321.666666667 425.5 339 c 128
 410.5 356.333333333 392.833333333 373.5 372.5 390.5 c 128
 352.166666667 407.5 329.666666667 425.333333333 305 444 c 0
 283.666666667 460.666666667 263.166666667 478.666666667 243.5 498 c 128
 223.833333333 517.333333333 206.166666667 537.833333333 190.5 559.5 c 128
 174.833333333 581.166666667 162.333333333 604 153 628 c 128
 143.666666667 652 139 676.666666667 139 702 c 0
 139 752 150.333333333 796.333333333 173 835 c 128
 195.666666667 873.666666667 224.833333333 906.166666667 260.5 932.5 c 128
 296.166666667 958.833333333 335.833333333 978.666666667 379.5 992 c 128
 423.166666667 1005.33333333 466 1012 508 1012 c 0
 546.666666667 1012 579.166666667 1007.5 605.5 998.5 c 128
 631.833333333 989.5 653.166666667 978.5 669.5 965.5 c 128
 685.833333333 952.5 697.5 938.5 704.5 923.5 c 128
 711.5 908.5 715 895 715 883 c 0
EndSplineSet
EndChar

StartChar: t
Encoding: 116 116 66
Width: 614
GlyphClass: 2
Flags: HW
LayerCount: 2
Back
Fore
SplineSet
414 858 m 1
 285 215 l 2
 281 197 281.666666667 180.833333333 287 166.5 c 128
 292.333333333 152.166666667 300.833333333 140.166666667 312.5 130.5 c 128
 324.166666667 120.833333333 337.833333333 113.333333333 353.5 108 c 128
 369.166666667 102.666666667 385.666666667 100 403 100 c 0
 422.333333333 100 442.333333333 101.833333333 463 105.5 c 128
 483.666666667 109.166666667 503.5 113.666666667 522.5 119 c 128
 541.5 124.333333333 559.166666667 129.833333333 575.5 135.5 c 128
 591.833333333 141.166666667 605.333333333 146 616 150 c 1
 616 68 l 1
 607.333333333 64 590.666666667 57 566 47 c 128
 541.333333333 37 513 26.6666666667 481 16 c 128
 449 5.33333333333 415.333333333 -4.16666666667 380 -12.5 c 128
 344.666666667 -20.8333333333 312.333333333 -25 283 -25 c 0
 245.666666667 -25 214.666666667 -20.5 190 -11.5 c 128
 165.333333333 -2.5 145.666666667 9.83333333333 131 25.5 c 128
 116.333333333 41.1666666667 105.833333333 59.8333333333 99.5 81.5 c 128
 93.1666666667 103.166666667 90 126.666666667 90 152 c 0
 90 165.333333333 90.5 179 91.5 193 c 128
 92.5 207 94.6666666667 221.333333333 98 236 c 2
 223 858 l 1
 94 846 l 1
 94 913 l 1
 248 981 l 1
 348 1186 l 1
 473 1186 l 1
 432 952 l 1
 715 952 l 1
 715 858 l 1
 414 858 l 1
EndSplineSet
EndChar

StartChar: u
Encoding: 117 117 67
Width: 1079
GlyphClass: 2
Flags: HW
LayerCount: 2
Back
Fore
SplineSet
1073 49 m 1
 1060.33333333 41.6666666667 1042.83333333 33.6666666667 1020.5 25 c 128
 998.166666667 16.3333333333 974 8.33333333333 948 1 c 128
 922 -6.33333333333 895.5 -12.5 868.5 -17.5 c 128
 841.5 -22.5 817 -25 795 -25 c 0
 756.333333333 -25 727.666666667 -18.5 709 -5.5 c 128
 690.333333333 7.5 677.5 22.5 670.5 39.5 c 128
 663.5 56.5 660.333333333 73.6666666667 661 91 c 128
 661.666666667 108.333333333 662 121 662 129 c 1
 608 77.6666666667 551.5 39.1666666667 492.5 13.5 c 128
 433.5 -12.1666666667 369.666666667 -25 301 -25 c 0
 253.666666667 -25 215 -16.6666666667 185 0 c 128
 155 16.6666666667 132.333333333 37.6666666667 117 63 c 128
 101.666666667 88.3333333333 92.3333333333 116 89 146 c 128
 85.6666666667 176 86.6666666667 204.333333333 92 231 c 2
 225 870 l 1
 53 889 l 1
 53 948 l 1
 362 1012 l 1
 446 1012 l 1
 283 231 l 2
 279 213.666666667 279.833333333 197.166666667 285.5 181.5 c 128
 291.166666667 165.833333333 299.5 152.166666667 310.5 140.5 c 128
 321.5 128.833333333 334 119.5 348 112.5 c 128
 362 105.5 375.666666667 102 389 102 c 0
 413.666666667 102 438.5 105.5 463.5 112.5 c 128
 488.5 119.5 513.333333333 129 538 141 c 128
 562.666666667 153 586.333333333 166.833333333 609 182.5 c 128
 631.666666667 198.166666667 652.666666667 215 672 233 c 1
 827 987 l 1
 1018 987 l 1
 854 199 l 2
 849.333333333 177.666666667 849.333333333 159.833333333 854 145.5 c 128
 858.666666667 131.166666667 865.833333333 119.333333333 875.5 110 c 128
 885.166666667 100.666666667 896.166666667 94 908.5 90 c 128
 920.833333333 86 932.666666667 84 944 84 c 0
 957.333333333 84 975 86 997 90 c 128
 1019 94 1044.33333333 104.333333333 1073 121 c 1
 1073 49 l 1
EndSplineSet
EndChar

StartChar: v
Encoding: 118 118 68
Width: 946
GlyphClass: 2
Flags: HW
LayerCount: 2
Back
Fore
SplineSet
956 889 m 0
 956 871.666666667 954.333333333 855.333333333 951 840 c 128
 947.666666667 824.666666667 943.833333333 810.333333333 939.5 797 c 128
 935.166666667 783.666666667 930.5 771.666666667 925.5 761 c 128
 920.5 750.333333333 916.333333333 741.666666667 913 735 c 0
 867.666666667 651 819 570.666666667 767 494 c 128
 715 417.333333333 664 346.5 614 281.5 c 128
 564 216.5 516.666666667 157.833333333 472 105.5 c 128
 427.333333333 53.1666666667 389.333333333 9.66666666667 358 -25 c 1
 240 -25 l 1
 254 5 264.666666667 32.8333333333 272 58.5 c 128
 279.333333333 84.1666666667 282.333333333 108.333333333 281 131 c 0
 281 133 280.333333333 143.166666667 279 161.5 c 128
 277.666666667 179.833333333 275.833333333 203.5 273.5 232.5 c 128
 271.166666667 261.5 268.333333333 294.666666667 265 332 c 128
 261.666666667 369.333333333 258 408 254 448 c 128
 250 488 245.833333333 528.166666667 241.5 568.5 c 128
 237.166666667 608.833333333 232.5 646.5 227.5 681.5 c 128
 222.5 716.5 217.5 747.5 212.5 774.5 c 128
 207.5 801.5 202.333333333 822 197 836 c 1
 190.333333333 850 183.666666667 860.333333333 177 867 c 128
 170.333333333 873.666666667 161.333333333 877 150 877 c 2
 4 885 l 1
 4 944 l 1
 223 1012 l 1
 279 1010.66666667 319.666666667 998.166666667 345 974.5 c 128
 370.333333333 950.833333333 385.666666667 914.666666667 391 866 c 2
 455 236 l 1
 489.666666667 281.333333333 521.666666667 324.5 551 365.5 c 128
 580.333333333 406.5 607.166666667 446.333333333 631.5 485 c 128
 655.833333333 523.666666667 678 562.166666667 698 600.5 c 128
 718 638.833333333 736 678.333333333 752 719 c 1
 713 967 l 1
 726.333333333 980.333333333 743 991.166666667 763 999.5 c 128
 783 1007.83333333 805.666666667 1012 831 1012 c 0
 875 1012 906.833333333 1000.83333333 926.5 978.5 c 128
 946.166666667 956.166666667 956 926.333333333 956 889 c 0
EndSplineSet
EndChar

StartChar: w
Encoding: 119 119 69
Width: 1438
GlyphClass: 2
Flags: HW
LayerCount: 2
Back
Fore
SplineSet
1446 891 m 0
 1446 862.333333333 1438.66666667 828 1424 788 c 128
 1409.33333333 748 1390 704.833333333 1366 658.5 c 128
 1342 612.166666667 1314.33333333 564 1283 514 c 128
 1251.66666667 464 1219.5 414.666666667 1186.5 366 c 128
 1153.5 317.333333333 1120.83333333 270.833333333 1088.5 226.5 c 128
 1056.16666667 182.166666667 1026.66666667 142.333333333 1000 107 c 128
 973.333333333 71.6666666667 950.833333333 42.3333333333 932.5 19 c 128
 914.166666667 -4.33333333333 902.333333333 -19 897 -25 c 1
 770 -25 l 1
 725 674 l 1
 695 609.333333333 663.666666667 544.833333333 631 480.5 c 128
 598.333333333 416.166666667 565.666666667 354 533 294 c 128
 500.333333333 234 468.166666667 176.833333333 436.5 122.5 c 128
 404.833333333 68.1666666667 374.666666667 19 346 -25 c 1
 195 -25 l 1
 215 23 l 1
 158 868 l 1
 4 885 l 1
 4 942 l 1
 252 1012 l 1
 344 1006 l 1
 389 240 l 1
 415.666666667 288.666666667 443.666666667 342.333333333 473 401 c 128
 502.333333333 459.666666667 532 520.166666667 562 582.5 c 128
 592 644.833333333 621.666666667 708.166666667 651 772.5 c 128
 680.333333333 836.833333333 708.333333333 899.666666667 735 961 c 1
 889 979 l 1
 940 199 l 1
 1003.33333333 280.333333333 1059 364 1107 450 c 128
 1155 536 1199.66666667 626.333333333 1241 721 c 1
 1200 961 l 1
 1202.66666667 963.666666667 1207.16666667 967.833333333 1213.5 973.5 c 128
 1219.83333333 979.166666667 1228.33333333 984.833333333 1239 990.5 c 128
 1249.66666667 996.166666667 1262 1001.16666667 1276 1005.5 c 128
 1290 1009.83333333 1305.66666667 1012 1323 1012 c 0
 1347.66666667 1012 1367.83333333 1007.16666667 1383.5 997.5 c 128
 1399.16666667 987.833333333 1411.66666667 976.5 1421 963.5 c 128
 1430.33333333 950.5 1436.83333333 937.166666667 1440.5 923.5 c 128
 1444.16666667 909.833333333 1446 899 1446 891 c 0
EndSplineSet
EndChar

StartChar: x
Encoding: 120 120 70
Width: 1081
GlyphClass: 2
Flags: HW
LayerCount: 2
Back
Fore
SplineSet
1104 891 m 0
 1104 864.333333333 1095.16666667 838.833333333 1077.5 814.5 c 128
 1059.83333333 790.166666667 1031 771.333333333 991 758 c 1
 901 838 l 1
 883 830.666666667 863 817.5 841 798.5 c 128
 819 779.5 796.5 755.166666667 773.5 725.5 c 128
 750.5 695.833333333 727.666666667 661.333333333 705 622 c 128
 682.333333333 582.666666667 661 539.333333333 641 492 c 1
 645 479.333333333 649.833333333 463.5 655.5 444.5 c 128
 661.166666667 425.5 667.666666667 404.833333333 675 382.5 c 128
 682.333333333 360.166666667 690.166666667 337.166666667 698.5 313.5 c 128
 706.833333333 289.833333333 715.666666667 267.333333333 725 246 c 0
 735 224 745.5 203.333333333 756.5 184 c 128
 767.5 164.666666667 779 147.666666667 791 133 c 128
 803 118.333333333 815.166666667 106.833333333 827.5 98.5 c 128
 839.833333333 90.1666666667 852 86 864 86 c 0
 879.333333333 86 895.833333333 87.5 913.5 90.5 c 128
 931.166666667 93.5 953.666666667 101.666666667 981 115 c 1
 981 41 l 1
 941.666666667 20.3333333333 902.833333333 4.16666666667 864.5 -7.5 c 128
 826.166666667 -19.1666666667 785 -25 741 -25 c 0
 718.333333333 -25 697.333333333 -18.8333333333 678 -6.5 c 128
 658.666666667 5.83333333333 640.833333333 22 624.5 42 c 128
 608.166666667 62 593.166666667 85.1666666667 579.5 111.5 c 128
 565.833333333 137.833333333 553.666666667 165 543 193 c 128
 532.333333333 221 522.833333333 249 514.5 277 c 128
 506.166666667 305 499.333333333 330.666666667 494 354 c 1
 474.666666667 318 452.5 278.166666667 427.5 234.5 c 128
 402.5 190.833333333 374 149.666666667 342 111 c 128
 310 72.3333333333 274.5 40 235.5 14 c 128
 196.5 -12 153.333333333 -25 106 -25 c 0
 64 -25 29.6666666667 -15.1666666667 3 4.5 c 128
 -23.6666666667 24.1666666667 -37 52 -37 88 c 0
 -37 121.333333333 -26.1666666667 148 -4.5 168 c 128
 17.1666666667 188 48.6666666667 201.666666667 90 209 c 1
 176 127 l 1
 196.666666667 139.666666667 218.5 157 241.5 179 c 128
 264.5 201 287.833333333 227.5 311.5 258.5 c 128
 335.166666667 289.5 358.166666667 325 380.5 365 c 128
 402.833333333 405 423.333333333 449.333333333 442 498 c 1
 438.666666667 511.333333333 433.333333333 529.666666667 426 553 c 128
 418.666666667 576.333333333 409.833333333 601.166666667 399.5 627.5 c 128
 389.166666667 653.833333333 378.333333333 680.666666667 367 708 c 128
 355.666666667 735.333333333 344.666666667 760.166666667 334 782.5 c 128
 323.333333333 804.833333333 313.666666667 823.166666667 305 837.5 c 128
 296.333333333 851.833333333 289.666666667 859.333333333 285 860 c 2
 106 883 l 1
 106 938 l 1
 112 940 121.666666667 943.166666667 135 947.5 c 128
 148.333333333 951.833333333 163.5 956.833333333 180.5 962.5 c 128
 197.5 968.166666667 215.166666667 973.833333333 233.5 979.5 c 128
 251.833333333 985.166666667 269 990.5 285 995.5 c 128
 301 1000.5 315 1004.5 327 1007.5 c 128
 339 1010.5 347.333333333 1012 352 1012 c 0
 376 1012 398.666666667 1003.33333333 420 986 c 128
 441.333333333 968.666666667 461.5 943.333333333 480.5 910 c 128
 499.5 876.666666667 517.5 836 534.5 788 c 128
 551.5 740 568 685 584 623 c 1
 604 661.666666667 627.833333333 703.666666667 655.5 749 c 128
 683.166666667 794.333333333 713.666666667 836.5 747 875.5 c 128
 780.333333333 914.5 816.5 947 855.5 973 c 128
 894.5 999 935.666666667 1012 979 1012 c 0
 1016.33333333 1012 1046.5 1000.83333333 1069.5 978.5 c 128
 1092.5 956.166666667 1104 927 1104 891 c 0
EndSplineSet
EndChar

StartChar: y
Encoding: 121 121 71
Width: 1018
GlyphClass: 2
Flags: HW
LayerCount: 2
Back
Fore
SplineSet
971 846 m 1
 963 838 951.333333333 823.333333333 936 802 c 128
 920.666666667 780.666666667 904.833333333 756.666666667 888.5 730 c 128
 872.166666667 703.333333333 856.166666667 675.833333333 840.5 647.5 c 128
 824.833333333 619.166666667 812.333333333 594.333333333 803 573 c 0
 788.333333333 540.333333333 771.166666667 500.666666667 751.5 454 c 128
 731.833333333 407.333333333 709.833333333 357.166666667 685.5 303.5 c 128
 661.166666667 249.833333333 634.666666667 194.166666667 606 136.5 c 128
 577.333333333 78.8333333333 546.666666667 22.3333333333 514 -33 c 0
 482 -87 447.833333333 -140.166666667 411.5 -192.5 c 128
 375.166666667 -244.833333333 336.666666667 -291.5 296 -332.5 c 128
 255.333333333 -373.5 212.5 -406.5 167.5 -431.5 c 128
 122.5 -456.5 75.6666666667 -469 27 -469 c 0
 -10.3333333333 -469 -41.3333333333 -464.333333333 -66 -455 c 128
 -90.6666666667 -445.666666667 -110.333333333 -434.166666667 -125 -420.5 c 128
 -139.666666667 -406.833333333 -149.833333333 -392.166666667 -155.5 -376.5 c 128
 -161.166666667 -360.833333333 -164 -346.666666667 -164 -334 c 0
 -164 -318.666666667 -160.5 -303.833333333 -153.5 -289.5 c 128
 -146.5 -275.166666667 -136.666666667 -262.5 -124 -251.5 c 128
 -111.333333333 -240.5 -96.3333333333 -231.666666667 -79 -225 c 128
 -61.6666666667 -218.333333333 -43 -214.333333333 -23 -213 c 1
 96 -332 l 1
 117.333333333 -330 138.333333333 -321.5 159 -306.5 c 128
 179.666666667 -291.5 201.5 -269 224.5 -239 c 128
 247.5 -209 272.666666667 -171.333333333 300 -126 c 128
 327.333333333 -80.6666666667 358.333333333 -26.3333333333 393 37 c 1
 391.666666667 45 388.333333333 62.8333333333 383 90.5 c 128
 377.666666667 118.166666667 371.166666667 151.833333333 363.5 191.5 c 128
 355.833333333 231.166666667 347.166666667 275 337.5 323 c 128
 327.833333333 371 317.666666667 419.666666667 307 469 c 0
 296.333333333 517 285.166666667 565.166666667 273.5 613.5 c 128
 261.833333333 661.833333333 250.5 705.333333333 239.5 744 c 128
 228.5 782.666666667 218.666666667 814.333333333 210 839 c 128
 201.333333333 863.666666667 194.666666667 876.333333333 190 877 c 2
 4 891 l 1
 4 942 l 1
 32 951 l 2
 45.3333333333 955.666666667 60 960.5 76 965.5 c 128
 92 970.5 109 975.833333333 127 981.5 c 128
 145 987.166666667 162 992.166666667 178 996.5 c 128
 194 1000.83333333 208.5 1004.5 221.5 1007.5 c 128
 234.5 1010.5 244 1012 250 1012 c 0
 272 1012 291.333333333 1006.83333333 308 996.5 c 128
 324.666666667 986.166666667 339.5 971.333333333 352.5 952 c 128
 365.5 932.666666667 377.5 909.5 388.5 882.5 c 128
 399.5 855.5 410 825 420 791 c 0
 437.333333333 730.333333333 455.333333333 655.166666667 474 565.5 c 128
 492.666666667 475.833333333 512 376 532 266 c 1
 844 1012 l 1
 903 1012 l 1
 1073 956 l 1
 1073 909 l 1
 971 846 l 1
EndSplineSet
EndChar

StartChar: z
Encoding: 122 122 72
Width: 911
GlyphClass: 2
Flags: HW
LayerCount: 2
Back
Fore
SplineSet
227 145 m 1
 399 190 l 1
 413 184.666666667 429 178.166666667 447 170.5 c 128
 465 162.833333333 483.5 155.333333333 502.5 148 c 128
 521.5 140.666666667 540 134.333333333 558 129 c 128
 576 123.666666667 592 121 606 121 c 0
 620.666666667 121 633.5 123.166666667 644.5 127.5 c 128
 655.5 131.833333333 665.166666667 137.333333333 673.5 144 c 128
 681.833333333 150.666666667 689.333333333 157.833333333 696 165.5 c 128
 702.666666667 173.166666667 709 180.666666667 715 188 c 1
 602 313 l 1
 608.666666667 325 616.666666667 335.833333333 626 345.5 c 128
 635.333333333 355.166666667 645.166666667 363.333333333 655.5 370 c 128
 665.833333333 376.666666667 676.333333333 381.833333333 687 385.5 c 128
 697.666666667 389.166666667 707.666666667 391 717 391 c 0
 735.666666667 391 752.166666667 387.166666667 766.5 379.5 c 128
 780.833333333 371.833333333 793 362 803 350 c 128
 813 338 820.666666667 324.333333333 826 309 c 128
 831.333333333 293.666666667 834 278.666666667 834 264 c 0
 834 222.666666667 824.833333333 184.333333333 806.5 149 c 128
 788.166666667 113.666666667 764.5 83.1666666667 735.5 57.5 c 128
 706.5 31.8333333333 674.5 11.6666666667 639.5 -3 c 128
 604.5 -17.6666666667 570.333333333 -25 537 -25 c 0
 505.666666667 -25 475.833333333 -20.5 447.5 -11.5 c 128
 419.166666667 -2.5 391.833333333 7.5 365.5 18.5 c 128
 339.166666667 29.5 313.333333333 39.6666666667 288 49 c 128
 262.666666667 58.3333333333 237.666666667 63 213 63 c 0
 207.666666667 63 199.833333333 62 189.5 60 c 128
 179.166666667 58 169.333333333 52.3333333333 160 43 c 1
 109 -53 l 1
 -33 23 l 1
 662 836 l 1
 481 797 l 1
 453 812.333333333 424 826 394 838 c 128
 364 850 335 856 307 856 c 0
 298.333333333 856 288.666666667 854.666666667 278 852 c 128
 267.333333333 849.333333333 257 845.5 247 840.5 c 128
 237 835.5 227.5 829.333333333 218.5 822 c 128
 209.5 814.666666667 202.333333333 806.333333333 197 797 c 1
 305 666 l 1
 302.333333333 662 297.666666667 656.166666667 291 648.5 c 128
 284.333333333 640.833333333 276.166666667 633.166666667 266.5 625.5 c 128
 256.833333333 617.833333333 245.666666667 611.333333333 233 606 c 128
 220.333333333 600.666666667 207 598 193 598 c 0
 173.666666667 598 156.833333333 601.833333333 142.5 609.5 c 128
 128.166666667 617.166666667 116.333333333 627 107 639 c 128
 97.6666666667 651 90.8333333333 664.166666667 86.5 678.5 c 128
 82.1666666667 692.833333333 80 706.333333333 80 719 c 0
 80 750.333333333 86.5 783.166666667 99.5 817.5 c 128
 112.5 851.833333333 131.5 883.5 156.5 912.5 c 128
 181.5 941.5 211.833333333 965.333333333 247.5 984 c 128
 283.166666667 1002.66666667 323.666666667 1012 369 1012 c 0
 399.666666667 1012 429.166666667 1006.66666667 457.5 996 c 128
 485.833333333 985.333333333 512.666666667 973.5 538 960.5 c 128
 563.333333333 947.5 587.5 935.666666667 610.5 925 c 128
 633.5 914.333333333 655.333333333 909 676 909 c 0
 680 909 685.666666667 909.833333333 693 911.5 c 128
 700.333333333 913.166666667 710.333333333 917.333333333 723 924 c 1
 768 1038 l 1
 922 958 l 1
 227 145 l 1
EndSplineSet
EndChar

StartChar: braceleft
Encoding: 123 123 73
Width: 995
GlyphClass: 2
Flags: HW
LayerCount: 2
Back
Fore
SplineSet
1032 1354 m 1
 976.666666667 1354 931 1347.33333333 895 1334 c 128
 859 1320.66666667 829.666666667 1303.33333333 807 1282 c 0
 783.666666667 1260 765.5 1234 752.5 1204 c 128
 739.5 1174 729 1142 721 1108 c 128
 713 1074 706.166666667 1038.66666667 700.5 1002 c 128
 694.833333333 965.333333333 687.666666667 929.333333333 679 894 c 128
 670.333333333 858.666666667 658.833333333 824.833333333 644.5 792.5 c 128
 630.166666667 760.166666667 610 731 584 705 c 1
 561.333333333 683.666666667 532.833333333 663.5 498.5 644.5 c 128
 464.166666667 625.5 421 609.333333333 369 596 c 1
 399.666666667 585.333333333 426.333333333 574.166666667 449 562.5 c 128
 471.666666667 550.833333333 491.333333333 537.333333333 508 522 c 0
 529.333333333 502 544.5 479 553.5 453 c 128
 562.5 427 567.333333333 399.333333333 568 370 c 128
 568.666666667 340.666666667 566.5 310 561.5 278 c 128
 556.5 246 550.666666667 214.166666667 544 182.5 c 128
 537.333333333 150.833333333 531 119.666666667 525 89 c 128
 519 58.3333333333 515.333333333 29.6666666667 514 3 c 128
 512.666666667 -23.6666666667 514.833333333 -48 520.5 -70 c 128
 526.166666667 -92 537.666666667 -110.333333333 555 -125 c 0
 565.666666667 -134.333333333 578 -141.666666667 592 -147 c 128
 606 -152.333333333 620.833333333 -156.5 636.5 -159.5 c 128
 652.166666667 -162.5 668.5 -164.333333333 685.5 -165 c 128
 702.5 -165.666666667 719 -166 735 -166 c 1
 719 -252 l 1
 681.666666667 -252 645.666666667 -251.166666667 611 -249.5 c 128
 576.333333333 -247.833333333 544.166666667 -244 514.5 -238 c 128
 484.833333333 -232 457.833333333 -223.5 433.5 -212.5 c 128
 409.166666667 -201.5 388.333333333 -186.666666667 371 -168 c 0
 351.666666667 -147.333333333 338.333333333 -123.333333333 331 -96 c 128
 323.666666667 -68.6666666667 320.166666667 -39.6666666667 320.5 -9 c 128
 320.833333333 21.6666666667 323.833333333 53.5 329.5 86.5 c 128
 335.166666667 119.5 341.5 152.666666667 348.5 186 c 128
 355.5 219.333333333 362.166666667 251.833333333 368.5 283.5 c 128
 374.833333333 315.166666667 378.5 345 379.5 373 c 128
 380.5 401 377.833333333 426.666666667 371.5 450 c 128
 365.166666667 473.333333333 353.333333333 492.666666667 336 508 c 0
 324 519.333333333 309.666666667 527.666666667 293 533 c 128
 276.333333333 538.333333333 258.5 542 239.5 544 c 128
 220.5 546 200.666666667 547 180 547 c 2
 119 547 l 1
 137 641 l 1
 165 641 191.5 641.333333333 216.5 642 c 128
 241.5 642.666666667 264.666666667 645 286 649 c 128
 307.333333333 653 327.166666667 659.166666667 345.5 667.5 c 128
 363.833333333 675.833333333 380.333333333 687.333333333 395 702 c 0
 420.333333333 726 439.833333333 755.833333333 453.5 791.5 c 128
 467.166666667 827.166666667 478.166666667 865.333333333 486.5 906 c 128
 494.833333333 946.666666667 502.666666667 988.833333333 510 1032.5 c 128
 517.333333333 1076.16666667 527.166666667 1118.66666667 539.5 1160 c 128
 551.833333333 1201.33333333 568.666666667 1239.83333333 590 1275.5 c 128
 611.333333333 1311.16666667 640.666666667 1341.33333333 678 1366 c 1
 720 1394.66666667 771.166666667 1414.16666667 831.5 1424.5 c 128
 891.833333333 1434.83333333 963.666666667 1440 1047 1440 c 1
 1032 1354 l 1
EndSplineSet
EndChar

StartChar: bar
Encoding: 124 124 74
Width: 724
GlyphClass: 2
Flags: HW
LayerCount: 2
Back
Fore
SplineSet
300 -528 m 1
 300 1630 l 1
 424 1630 l 1
 424 -528 l 1
 300 -528 l 1
EndSplineSet
EndChar

StartChar: braceright
Encoding: 125 125 75
Width: 995
GlyphClass: 2
Flags: HW
LayerCount: 2
Back
Fore
SplineSet
879 547 m 1
 851 547 824.5 546.5 799.5 545.5 c 128
 774.5 544.5 751.166666667 542 729.5 538 c 128
 707.833333333 534 688 527.833333333 670 519.5 c 128
 652 511.166666667 635.666666667 499.666666667 621 485 c 0
 595.666666667 461 576.333333333 431.333333333 563 396 c 128
 549.666666667 360.666666667 538.666666667 322.666666667 530 282 c 128
 521.333333333 241.333333333 513.5 199 506.5 155 c 128
 499.5 111 489.833333333 68.5 477.5 27.5 c 128
 465.166666667 -13.5 448.333333333 -51.8333333333 427 -87.5 c 128
 405.666666667 -123.166666667 376.666666667 -153.333333333 340 -178 c 0
 296.666666667 -207.333333333 244.833333333 -227 184.5 -237 c 128
 124.166666667 -247 52.3333333333 -252 -31 -252 c 1
 -16 -166 l 1
 39.3333333333 -166 85.1666666667 -159.333333333 121.5 -146 c 128
 157.833333333 -132.666666667 187.666666667 -115.333333333 211 -94 c 0
 234.333333333 -72 252.333333333 -46 265 -16 c 128
 277.666666667 14 287.833333333 46.1666666667 295.5 80.5 c 128
 303.166666667 114.833333333 309.666666667 150.333333333 315 187 c 128
 320.333333333 223.666666667 327.333333333 259.666666667 336 295 c 128
 344.666666667 330.333333333 356.333333333 364.166666667 371 396.5 c 128
 385.666666667 428.833333333 406 457.666666667 432 483 c 0
 454.666666667 505.666666667 483.166666667 526.166666667 517.5 544.5 c 128
 551.833333333 562.833333333 595 579.333333333 647 594 c 1
 585.666666667 612 540 636 510 666 c 1
 481.333333333 692.666666667 463.333333333 724.5 456 761.5 c 128
 448.666666667 798.5 447 837.666666667 451 879 c 128
 455 920.333333333 462.166666667 962.666666667 472.5 1006 c 128
 482.833333333 1049.33333333 491 1090.5 497 1129.5 c 128
 503 1168.5 504.5 1204 501.5 1236 c 128
 498.5 1268 485.666666667 1293.66666667 463 1313 c 0
 451.666666667 1322.33333333 438.833333333 1329.66666667 424.5 1335 c 128
 410.166666667 1340.33333333 395.166666667 1344.5 379.5 1347.5 c 128
 363.833333333 1350.5 347.5 1352.33333333 330.5 1353 c 128
 313.5 1353.66666667 297 1354 281 1354 c 1
 299 1440 l 1
 335.666666667 1440 371 1439.16666667 405 1437.5 c 128
 439 1435.83333333 470.833333333 1432 500.5 1426 c 128
 530.166666667 1420 557.333333333 1411.5 582 1400.5 c 128
 606.666666667 1389.5 627.666666667 1374.66666667 645 1356 c 0
 670.333333333 1328 685.666666667 1294.83333333 691 1256.5 c 128
 696.333333333 1218.16666667 696.333333333 1177.33333333 691 1134 c 128
 685.666666667 1090.66666667 677.666666667 1046.66666667 667 1002 c 128
 656.333333333 957.333333333 648.166666667 914.5 642.5 873.5 c 128
 636.833333333 832.5 635.833333333 795.166666667 639.5 761.5 c 128
 643.166666667 727.833333333 656.666666667 700.666666667 680 680 c 0
 692 668.666666667 706.333333333 660.333333333 723 655 c 128
 739.666666667 649.666666667 757.5 646 776.5 644 c 128
 795.5 642 815.333333333 641 836 641 c 2
 897 641 l 1
 879 547 l 1
EndSplineSet
EndChar

StartChar: asciitilde
Encoding: 126 126 76
Width: 1706
GlyphClass: 2
Flags: HW
LayerCount: 2
Back
Fore
SplineSet
1544 627 m 1
 1504.66666667 599.666666667 1468 576.833333333 1434 558.5 c 128
 1400 540.166666667 1367.5 525.333333333 1336.5 514 c 128
 1305.5 502.666666667 1275.5 494.666666667 1246.5 490 c 128
 1217.5 485.333333333 1188.33333333 483 1159 483 c 0
 1110.33333333 483 1062 490.166666667 1014 504.5 c 128
 966 518.833333333 917.666666667 534.666666667 869 552 c 128
 820.333333333 569.333333333 771 585.166666667 721 599.5 c 128
 671 613.833333333 619.666666667 621 567 621 c 0
 515 621 456.833333333 606.833333333 392.5 578.5 c 128
 328.166666667 550.166666667 261.666666667 511 193 461 c 1
 193 594 l 1
 265.666666667 646 334.666666667 683.166666667 400 705.5 c 128
 465.333333333 727.833333333 526 739 582 739 c 0
 631.333333333 739 681 731.833333333 731 717.5 c 128
 781 703.166666667 830.333333333 687.5 879 670.5 c 128
 927.666666667 653.5 975.666666667 637.833333333 1023 623.5 c 128
 1070.33333333 609.166666667 1116.33333333 602 1161 602 c 0
 1185.66666667 602 1211.83333333 604.666666667 1239.5 610 c 128
 1267.16666667 615.333333333 1296.66666667 624.166666667 1328 636.5 c 128
 1359.33333333 648.833333333 1392.83333333 665 1428.5 685 c 128
 1464.16666667 705 1502.66666667 730 1544 760 c 1
 1544 627 l 1
EndSplineSet
EndChar

StartChar: exclam
Encoding: 33 33 83
Width: 692
GlyphClass: 2
Flags: HW
LayerCount: 2
Back
Fore
SplineSet
401 100 m 0
 401 67.3333333333 388.833333333 39.5 364.5 16.5 c 128
 340.166666667 -6.5 307.333333333 -18 266 -18 c 0
 251.333333333 -18 236.166666667 -15.5 220.5 -10.5 c 128
 204.833333333 -5.5 190.666666667 2 178 12 c 128
 165.333333333 22 155 34.3333333333 147 49 c 128
 139 63.6666666667 135 80.6666666667 135 100 c 0
 135 118 138.333333333 134.5 145 149.5 c 128
 151.666666667 164.5 161 177.5 173 188.5 c 128
 185 199.5 199 208 215 214 c 128
 231 220 248 223 266 223 c 256
 284 223 301.166666667 220 317.5 214 c 128
 333.833333333 208 348.166666667 199.666666667 360.5 189 c 128
 372.833333333 178.333333333 382.666666667 165.5 390 150.5 c 128
 397.333333333 135.5 401 118.666666667 401 100 c 0
608 1294 m 1
 569.333333333 1143.33333333 533.666666667 1003.66666667 501 875 c 0
 487 820.333333333 473 765.5 459 710.5 c 128
 445 655.5 432 604 420 556 c 128
 408 508 397.333333333 465.5 388 428.5 c 128
 378.666666667 391.5 371.666666667 364 367 346 c 1
 238 346 l 1
 342 1231 l 2
 345.333333333 1257 350.5 1280.33333333 357.5 1301 c 128
 364.5 1321.66666667 374.333333333 1339.33333333 387 1354 c 128
 399.666666667 1368.66666667 415.666666667 1379.83333333 435 1387.5 c 128
 454.333333333 1395.16666667 478 1399 506 1399 c 0
 574 1399 608 1364 608 1294 c 1
EndSplineSet
EndChar

StartChar: quoteleft
Encoding: 8216 8216 84
Width: 564
GlyphClass: 2
Flags: HW
LayerCount: 2
Back
Fore
SplineSet
483 1022 m 5
 405.49 1072.55 370.681 1120.64 370.681 1178.6 c 4
 370.681 1275.56 468.105 1400.13 626 1610 c 5
 652 1545 l 5
 591.053 1467.95 509 1337.87 509 1299 c 4
 509 1284.33 539 1241.67 599 1171 c 5
 483 1022 l 5
EndSplineSet
EndChar

StartChar: u25CC
Encoding: 9676 9676 85
Width: 1531
GlyphClass: 2
Flags: HW
LayerCount: 2
Back
Fore
SplineSet
1242 695 m 1
 1245.77 755.358 1311.22 812 1358 812 c 0
 1386 812 1402.67 802 1408 782 c 1
 1408 754 l 1
 1403.35 731.274 1384.61 673 1303 673 c 1
 1266 677 l 1
 1258 679.667 1250 685.667 1242 695 c 1
1231 976 m 0
 1242.15 976 1276 970.498 1276 923 c 0
 1276 844.54 1174.42 810.813 1142 816 c 1
 1136 825.333 1133 837.333 1133 852 c 0
 1133 916.945 1172.2 976 1231 976 c 0
1078 968 m 0
 1078 936.879 1030.68 861 979 861 c 0
 953.113 861 935 898.469 935 937 c 0
 935 986.416 974.344 1025 1014 1025 c 0
 1046.7 1025 1078 1002.2 1078 968 c 0
1258 518 m 1
 1263.52 549.726 1327.58 583 1366 583 c 256
 1400.32 583 1433.89 562.64 1428 517 c 1
 1420 497.667 1406.67 481.667 1388 469 c 1
 1372.67 456.333 1355.67 450 1337 450 c 0
 1300.3 450 1258 477.2 1258 518 c 1
1316 302 m 0
 1316 256.4 1278.42 226 1230 226 c 0
 1177.68 226 1163 287.203 1163 308 c 0
 1163 318.8 1162.55 316.95 1169 335 c 1
 1175 341 1185.67 347 1201 353 c 1
 1244 360 l 1
 1305.63 360 1316 325.2 1316 302 c 0
777 966 m 1
 802.132 966 837 953.4 837 903 c 0
 836.333 895.667 836 890.333 836 887 c 0
 830.939 860.43 810.896 813 769 813 c 0
 745.614 813 700 830.687 700 873 c 0
 700 893.611 703.292 940.248 749 959 c 1
 777 966 l 1
1045 60 m 1
 1017.73 60 981 71.4 981 117 c 0
 981 121.667 981.667 132.333 983 149 c 1
 994 185 l 1
 999.333 195 1007.33 204 1018 212 c 1
 1034 214 l 1
 1063.93 214 1106.15 185.021 1118 160 c 1
 1119.33 149.333 1120 141.667 1120 137 c 0
 1119.33 131 1119 126.333 1119 123 c 0
 1113.67 97 1099 77.6667 1075 65 c 1
 1045 60 l 1
578 801 m 0
 635.341 801 652 748.573 652 723 c 0
 652 717 651.667 712.333 651 709 c 2
 642 687 l 2
 633.781 668.918 601.001 663.846 577 662 c 1
 523.025 662 504 685.6 504 721 c 0
 504 745.6 518.8 801 578 801 c 0
397 501 m 0
 397 552.516 439.627 582 482 582 c 256
 502 582 520.333 575.667 537 563 c 1
 553.667 552.333 560.667 537.333 558 518 c 1
 551.33 483.316 499.804 450 450 450 c 0
 426.748 450 397 460.2 397 501 c 0
894 85 m 0
 894 50.9871 850.985 -8 797 -8 c 0
 771.933 -8 751 18.3735 751 54 c 0
 751 116.965 817.15 157.491 833 159 c 1
 872.637 159 894 112.238 894 85 c 0
509 372 m 0
 558.6 372 566.987 351.531 571 342 c 1
 567.1 279.594 509.76 235.979 464 232 c 1
 435.333 232 415 243.667 403 267 c 1
 401.667 272.333 401.667 282.333 403 297 c 0
 406.333 321 424.667 341.333 458 358 c 1
 470 367.333 487 372 509 372 c 0
658 104 m 1
 638 80.6667 611.333 69 578 69 c 0
 566 69 557 70.6667 551 74 c 1
 510.164 114.836 551.54 167.81 557 176 c 1
 564.48 190.96 613.845 223 650 223 c 0
 681.964 223 681.871 193.627 679 152 c 1
 675.667 134 668.667 118 658 104 c 1
1858 1100 m 1
 241 1100 l 1
 198 1233 l 1
 1817 1233 l 1
 1858 1100 l 1
EndSplineSet
EndChar

StartChar: u0950
Encoding: 2384 2384 86
Width: 1931
GlyphClass: 2
Flags: HW
LayerCount: 2
Back
Fore
SplineSet
1677 456 m 0
 1587.05 456 1528.84 501.017 1449 637 c 1
 1377.97 556.029 1272.56 418 1141 418 c 0
 1081.4 418 1039.84 442.95 992 483 c 1
 981 483 l 1
 948.51 271.814 768.206 181 602 181 c 0
 367.4 181 266.447 420.773 211 633 c 1
 281 669 l 1
 327.158 471.486 405.4 312 592 312 c 0
 766.744 312 874 479.293 874 584 c 0
 874 651.271 830.675 695.82 782 713 c 1
 761.081 705.312 596.715 643 567 643 c 0
 554.123 643 486.344 712.272 486.344 757.492 c 0
 486.344 837.42 892 735.35 892 1034 c 0
 892 1074.2 869.6 1138 780 1138 c 0
 700.76 1138 622.085 1094.07 494 1033 c 1
 477.203 1033 469.432 1046.82 465 1061 c 2
 440 1157 l 1
 488.183 1180.75 626.234 1241 716 1241 c 0
 828.126 1241 1002 1119.71 1002 972 c 0
 1002 842.4 905.218 776.963 856 756 c 1
 1004.16 670.697 986.714 532 1101 532 c 0
 1163.6 532 1302 579.475 1414 787 c 1
 1463.33 881 1522.33 951.667 1591 999 c 1
 1651.67 1039 1716.33 1059 1785 1059 c 0
 1902.83 1059 1999 947.138 1999 814 c 0
 1999 611.652 1841.6 456 1677 456 c 0
1905 853 m 0
 1905 891.112 1883.62 956 1825 956 c 0
 1700.19 956 1603.45 839.293 1506 704 c 1
 1526.3 640.4 1586.74 588 1659 588 c 0
 1758.3 588 1905 723.597 1905 853 c 0
1553 1448 m 1
 1374 1297 l 1
 1258 1448 l 1
 1438 1595 l 1
 1553 1448 l 1
1361 1218 m 0
 1443.65 1218 1573.69 1281.27 1674 1419 c 1
 1792 1334 l 1
 1639.41 1122.86 1470.71 1091 1387 1091 c 0
 1214.53 1091 1069.28 1196.63 1013 1372 c 1
 1096 1432 l 1
 1150.25 1288.73 1255 1218 1361 1218 c 0
EndSplineSet
EndChar

StartChar: u093D
Encoding: 2365 2365 87
Width: 998
GlyphClass: 2
Flags: HW
LayerCount: 2
Back
Fore
SplineSet
545 266 m 0
 662.23 266 811 392.652 811 528 c 0
 811 735.876 496.185 928.133 496.185 1075.78 c 0
 496.185 1171.85 580.213 1230 693 1230 c 2
 1059 1230 l 1
 1103 1097 l 1
 719 1097 l 2
 641.826 1097 641.122 1019.06 641.122 1019.06 c 0
 641.122 908.184 939.595 731.243 939.595 480.453 c 0
 939.595 260.594 699.462 136 567 136 c 0
 397.79 136 269.4 313.682 236 427 c 1
 306 470 l 1
 373.655 333.58 424.871 266 545 266 c 0
EndSplineSet
EndChar

StartChar: u0903
Encoding: 2307 2307 88
Width: 503
GlyphClass: 2
Flags: HW
LayerCount: 2
Back
Fore
SplineSet
620 768 m 1
 405 591 l 1
 265 771 l 1
 477 946 l 1
 620 768 l 1
486 146 m 1
 271 -31 l 1
 133 149 l 1
 344 324 l 1
 486 146 l 1
821 1098 m 5
 236 1098 l 5
 193 1231 l 5
 781 1231 l 5
 821 1098 l 5
EndSplineSet
EndChar

StartChar: quoteright
Encoding: 8217 8217 89
Width: 571
GlyphClass: 2
Flags: HW
LayerCount: 2
Back
Fore
SplineSet
672 1587 m 5
 709.442 1559.14 782.373 1491.72 784 1425 c 5
 782 1397 l 5
 771.333 1341 687.333 1209 530 1001 c 5
 502 1066 l 5
 571.062 1151.73 642 1257.73 642 1310 c 4
 642 1335.6 594.831 1392.53 553 1438 c 5
 672 1587 l 5
EndSplineSet
EndChar

StartChar: parenleft
Encoding: 40 40 90
Width: 858
GlyphClass: 2
Flags: HW
LayerCount: 2
Back
Fore
SplineSet
938 1376 m 1
 881.333333333 1368.66666667 829.5 1351 782.5 1323 c 128
 735.5 1295 692.833333333 1259.83333333 654.5 1217.5 c 128
 616.166666667 1175.16666667 581.833333333 1127.16666667 551.5 1073.5 c 128
 521.166666667 1019.83333333 494.666666667 963.5 472 904.5 c 128
 449.333333333 845.5 430 785.333333333 414 724 c 128
 398 662.666666667 385 603 375 545 c 128
 365 487 357.666666667 432.333333333 353 381 c 128
 348.333333333 329.666666667 346 284.666666667 346 246 c 0
 346 170 353.5 105.833333333 368.5 53.5 c 128
 383.5 1.16666666667 404.166666667 -42.3333333333 430.5 -77 c 128
 456.833333333 -111.666666667 487.666666667 -138.5 523 -157.5 c 128
 558.333333333 -176.5 596.333333333 -190.333333333 637 -199 c 1
 618 -293 l 1
 548.666666667 -289 485.166666667 -272.166666667 427.5 -242.5 c 128
 369.833333333 -212.833333333 320 -172.833333333 278 -122.5 c 128
 236 -72.1666666667 203.333333333 -12.5 180 56.5 c 128
 156.666666667 125.5 145 201.666666667 145 285 c 0
 145 366.333333333 152.333333333 451 167 539 c 128
 181.666666667 627 203.666666667 713.5 233 798.5 c 128
 262.333333333 883.5 299.333333333 964.833333333 344 1042.5 c 128
 388.666666667 1120.16666667 441 1189.33333333 501 1250 c 128
 561 1310.66666667 629 1360.5 705 1399.5 c 128
 781 1438.5 864.666666667 1462 956 1470 c 1
 938 1376 l 1
EndSplineSet
EndChar

StartChar: parenright
Encoding: 41 41 91
Width: 856
GlyphClass: 2
Flags: HW
LayerCount: 2
Back
Fore
SplineSet
711 909 m 0
 711 795.666666667 701.5 688.666666667 682.5 588 c 128
 663.5 487.333333333 636.833333333 394 602.5 308 c 128
 568.166666667 222 526.5 143.833333333 477.5 73.5 c 128
 428.5 3.16666666667 374.166666667 -57.6666666667 314.5 -109 c 128
 254.833333333 -160.333333333 190.166666667 -201.833333333 120.5 -233.5 c 128
 50.8333333333 -265.166666667 -22 -285.666666667 -98 -295 c 1
 -80 -197 l 1
 -20.6666666667 -189 33.1666666667 -170.166666667 81.5 -140.5 c 128
 129.833333333 -110.833333333 173.5 -73.6666666667 212.5 -29 c 128
 251.5 15.6666666667 285.833333333 66.1666666667 315.5 122.5 c 128
 345.166666667 178.833333333 371 237.5 393 298.5 c 128
 415 359.5 433.5 421.166666667 448.5 483.5 c 128
 463.5 545.833333333 475.5 605.5 484.5 662.5 c 128
 493.5 719.5 500 772.166666667 504 820.5 c 128
 508 868.833333333 510 909.333333333 510 942 c 0
 510 962.666666667 508.666666667 986.666666667 506 1014 c 128
 503.333333333 1041.33333333 498.5 1070 491.5 1100 c 128
 484.5 1130 474.333333333 1160 461 1190 c 128
 447.666666667 1220 430.333333333 1247.66666667 409 1273 c 128
 387.666666667 1298.33333333 361.5 1320.16666667 330.5 1338.5 c 128
 299.5 1356.83333333 263 1369.33333333 221 1376 c 1
 240 1470 l 1
 312.666666667 1462 374.833333333 1445 426.5 1419 c 128
 478.166666667 1393 521.5 1362.33333333 556.5 1327 c 128
 591.5 1291.66666667 619.166666667 1253.33333333 639.5 1212 c 128
 659.833333333 1170.66666667 675.333333333 1130.66666667 686 1092 c 128
 696.666666667 1053.33333333 703.5 1017.66666667 706.5 985 c 128
 709.5 952.333333333 711 927 711 909 c 0
EndSplineSet
EndChar

StartChar: u0964
Encoding: 2404 2404 92
Width: 637
GlyphClass: 2
Flags: HW
LayerCount: 2
Back
Fore
SplineSet
466 -8 m 5
 340 80 l 5
 590 1256 l 5
 714 1164 l 5
 466 -8 l 5
EndSplineSet
EndChar

StartChar: u0905
Encoding: 2309 2309 112
Width: 1436
GlyphClass: 2
Flags: HW
LayerCount: 2
Back
Fore
SplineSet
1007 972 m 0
 1007 840.6 910.896 777.061 857 753 c 1
 959.207 663.475 1053.22 635.437 1130.85 635.437 c 0
 1247.84 635.437 1327.59 699.129 1342 712 c 1
 1423 1097 l 1
 1139 1097 l 1
 1096 1225 l 1
 1700 1225 l 1
 1741 1097 l 1
 1561 1097 l 1
 1328 0 l 1
 1207 82 l 1
 1305 543 l 1
 1266.07 525.698 1224.75 518.951 1184.92 518.951 c 0
 1087.94 518.951 999.866 558.96 977 584 c 1
 984.264 565.436 987.852 544.202 987.852 521.41 c 0
 987.852 381.532 852.713 183 603 183 c 0
 524.6 183 322.16 202.255 211 633 c 1
 285 672 l 1
 354.926 367.903 471 312 595 312 c 0
 765.912 312 877 480.145 877 586 c 0
 877 654.039 834.007 695.677 783 713 c 1
 751.053 701.356 607.588 646.507 569 643 c 1
 540.455 643 495 709.378 495 753 c 0
 495 866.567 896 712.932 896 1036 c 0
 896 1086.42 864.775 1143 784 1143 c 0
 684.854 1143 556.868 1068.63 496 1037 c 1
 461.069 1037 446.836 1142.54 443 1163 c 1
 562.256 1209.95 641.071 1244 721 1244 c 0
 890.425 1244 1007 1100.36 1007 972 c 0
EndSplineSet
EndChar

StartChar: comma
Encoding: 44 44 113
Width: 573
GlyphClass: 2
Flags: HW
LayerCount: 2
Back
Fore
SplineSet
326 96 m 0
 326 38 313.666666667 -16.6666666667 289 -68 c 128
 264.333333333 -119.333333333 231.5 -165 190.5 -205 c 128
 149.5 -245 102.666666667 -277.666666667 50 -303 c 128
 -2.66666666667 -328.333333333 -57 -343.333333333 -113 -348 c 1
 -98 -274 l 1
 -56 -265.333333333 -19.1666666667 -253.166666667 12.5 -237.5 c 128
 44.1666666667 -221.833333333 71.5 -202.5 94.5 -179.5 c 128
 117.5 -156.5 136.333333333 -129 151 -97 c 128
 165.666666667 -65 176.666666667 -28 184 14 c 1
 55 14 l 1
 47.6666666667 23.3333333333 42.5 33.8333333333 39.5 45.5 c 128
 36.5 57.1666666667 35 68.6666666667 35 80 c 0
 35 100.666666667 39.3333333333 121.166666667 48 141.5 c 128
 56.6666666667 161.833333333 68.1666666667 180 82.5 196 c 128
 96.8333333333 212 113.5 225 132.5 235 c 128
 151.5 245 171.666666667 250 193 250 c 0
 217 250 237.5 246.166666667 254.5 238.5 c 128
 271.5 230.833333333 285.166666667 220 295.5 206 c 128
 305.833333333 192 313.5 175.666666667 318.5 157 c 128
 323.5 138.333333333 326 118 326 96 c 0
EndSplineSet
EndChar

StartChar: hyphen
Encoding: 45 45 114
Width: 653
GlyphClass: 2
Flags: HW
LayerCount: 2
Back
Fore
SplineSet
553 424 m 1
 61 424 l 1
 88 563 l 1
 580 563 l 1
 553 424 l 1
EndSplineSet
EndChar

StartChar: period
Encoding: 46 46 115
Width: 573
GlyphClass: 2
Flags: HW
LayerCount: 2
Back
Fore
SplineSet
311 113 m 0
 311 93.6666666667 307.333333333 75.6666666667 300 59 c 128
 292.666666667 42.3333333333 282.666666667 27.8333333333 270 15.5 c 128
 257.333333333 3.16666666667 242.5 -6.66666666667 225.5 -14 c 128
 208.5 -21.3333333333 190.666666667 -25 172 -25 c 0
 152.666666667 -25 134.833333333 -21.3333333333 118.5 -14 c 128
 102.166666667 -6.66666666667 88 3.16666666667 76 15.5 c 128
 64 27.8333333333 54.5 42.3333333333 47.5 59 c 128
 40.5 75.6666666667 37 93.6666666667 37 113 c 0
 37 131.666666667 40.5 149.333333333 47.5 166 c 128
 54.5 182.666666667 64 197.166666667 76 209.5 c 128
 88 221.833333333 102.166666667 231.666666667 118.5 239 c 128
 134.833333333 246.333333333 152.666666667 250 172 250 c 0
 190.666666667 250 208.5 246.333333333 225.5 239 c 128
 242.5 231.666666667 257.333333333 221.833333333 270 209.5 c 128
 282.666666667 197.166666667 292.666666667 182.666666667 300 166 c 128
 307.333333333 149.333333333 311 131.666666667 311 113 c 0
EndSplineSet
EndChar

StartChar: slash
Encoding: 47 47 116
Width: 1004
GlyphClass: 2
Flags: HW
LayerCount: 2
Back
Fore
SplineSet
131 -190 m 1
 0 -190 l 1
 872 1374 l 1
 1004 1374 l 1
 131 -190 l 1
EndSplineSet
EndChar

StartChar: u0966
Encoding: 2406 2406 117
Width: 1047
GlyphClass: 2
Flags: HW
LayerCount: 2
Back
Fore
SplineSet
767 954 m 0
 913.619 954 1032 838.241 1032 690 c 0
 1032 458.728 762.968 237 596 237 c 0
 429.482 237 321 342.211 321 496 c 0
 321 746.971 596.546 954 767 954 c 0
700 355 m 0
 806.079 355 892 492.15 892 618 c 0
 892 711.711 826.479 836 691 836 c 0
 509.118 836 464 654.716 464 569 c 0
 464 441.714 559.681 355 700 355 c 0
EndSplineSet
EndChar

StartChar: u0967
Encoding: 2407 2407 118
Width: 1047
GlyphClass: 2
Flags: HW
LayerCount: 2
Back
Fore
SplineSet
514 386 m 1
 788.728 117.31 841 20.4 841 -71 c 0
 841 -134.708 815.214 -168.643 765 -208 c 1
 634 -110 l 1
 654.468 -99.2786 699.893 -61.7238 699.893 -32.619 c 0
 699.893 51.9835 513.175 277.065 353 426 c 1
 398.093 458.654 591.797 625.096 638 679 c 1
 520.667 750.518 423 852.243 423 946 c 0
 423 1048.03 561.483 1223 717 1223 c 0
 880.586 1223 968 1054.34 968 959 c 0
 968 808.031 832.798 699.697 514 386 c 1
694 743 m 1
 720.18 766.349 837 903.055 837 1012 c 0
 837 1052 818 1112 742 1112 c 0
 673.865 1112 559 1010.55 559 917 c 0
 559 852.022 627.483 788.785 694 743 c 1
EndSplineSet
EndChar

StartChar: u0968
Encoding: 2408 2408 119
Width: 1047
GlyphClass: 2
Flags: HW
LayerCount: 2
Back
Fore
SplineSet
1083 925 m 0
 1083 759.529 959.155 509.366 686 426 c 1
 887 -123 l 1
 791 -174 l 1
 579 402 l 1
 435.364 402 401 447.2 401 515 c 0
 401 528.877 407.903 705 532 705 c 0
 552.4 705 580.708 655.474 634 569 c 1
 786.35 597.637 964.607 711.808 988 969 c 1
 988 1060.59 927.551 1110 833 1110 c 0
 689.8 1110 484.401 1034.45 475 1031 c 1
 394 1159 l 1
 554.288 1215.88 664.969 1245 809 1245 c 0
 959.35 1245 1083 1086.92 1083 925 c 0
EndSplineSet
EndChar

StartChar: u0969
Encoding: 2409 2409 120
Width: 1047
GlyphClass: 2
Flags: HW
LayerCount: 2
Back
Fore
SplineSet
1012 501 m 0
 1012 353.543 850.4 199.571 655 165 c 1
 807 -130 l 1
 721 -190 l 1
 579.893 121.801 584.827 122.129 547 143 c 1
 464.324 177.448 357 140.067 357 268 c 0
 357 352.769 393.675 436 471 436 c 0
 493.8 436 543.29 368.992 585 296 c 1
 799.027 296 890.99 438.01 890.99 551.081 c 0
 890.99 625.871 850.757 688 779 688 c 1
 675.013 671.33 621.8 659 517 659 c 0
 454.774 659 413 693.67 413 757 c 0
 413 803.295 470.11 816.41 534.824 816.41 c 0
 619.412 816.41 716.989 794.004 717 794 c 0
 762.801 794 902 879.842 902 995 c 0
 902 1068.7 819.895 1083 738 1083 c 2
 432 1083 l 1
 386 1216 l 1
 689 1216 l 2
 927.086 1216 1017 1047.7 1017 943 c 0
 1017 828.373 919.261 748.195 875 722 c 1
 945.951 654.005 1012 585.52 1012 501 c 0
EndSplineSet
EndChar

StartChar: u096A
Encoding: 2410 2410 121
Width: 1047
GlyphClass: 2
Flags: HW
LayerCount: 2
Back
Fore
SplineSet
418 363 m 0
 418 464.44 461.157 568.504 661 727 c 1
 609.088 794.643 446.828 942.71 240 1136 c 1
 331 1201 l 1
 725 783 l 1
 1248 1230 l 1
 1278 1086 l 1
 815 695 l 1
 966.444 557.078 1020.8 447.493 1020.8 387.07 c 0
 1020.8 309.758 888.522 143 664 143 c 0
 515.844 143 418 235.691 418 363 c 0
637 241 m 0
 740.467 241 874 333.362 874 416 c 0
 874 458.8 837.951 539.049 747 630 c 1
 655.669 556.538 518 423.88 518 341 c 0
 518 290.402 572.162 241 637 241 c 0
EndSplineSet
EndChar

StartChar: u096B
Encoding: 2411 2411 122
Width: 1047
GlyphClass: 2
Flags: HW
LayerCount: 2
Back
Fore
SplineSet
803 786 m 0
 839.708 786 930.377 690.827 930.377 643.081 c 0
 930.377 629.575 911.137 562.137 836 487 c 1
 965 -148 l 1
 862 -191 l 1
 759 416 l 1
 679.484 360.339 576.6 331 531 331 c 0
 373.153 331 209 513.494 209 669 c 0
 209 781.91 332.052 1079.24 412 1229 c 1
 536 1115 l 1
 485.819 1028.98 322 727.228 322 617 c 0
 322 527.6 398.205 468 500 468 c 0
 565.125 468 673.287 510.834 721 564 c 1
 718.471 606.495 715.169 644.296 715.169 676.127 c 0
 715.169 745.06 730.653 786 803 786 c 0
EndSplineSet
EndChar

StartChar: u096C
Encoding: 2412 2412 123
Width: 1047
GlyphClass: 2
Flags: HW
LayerCount: 2
Back
Fore
SplineSet
772 460 m 0
 804.756 460 935.286 375.104 935.286 323.109 c 0
 935.286 320.776 930.437 247.002 840 195 c 1
 939 -137 l 1
 854 -174 l 1
 763 153 l 1
 748.126 152.174 733.609 151.771 719.447 151.771 c 0
 410.159 151.771 269.977 343.597 269.977 498.658 c 0
 269.977 531.482 274.749 644.97 421 731 c 1
 319.346 839.008 310 931.36 310 966 c 0
 310 1068.4 379.8 1222 719 1222 c 0
 868.515 1222 912.635 1207.25 942 1201 c 1
 977 1070 l 1
 877.667 1085.33 798.333 1093 739 1093 c 0
 471.158 1093 437 965.454 437 905 c 0
 437 845.992 488.252 782 556 782 c 1
 700.73 799.65 725.3 805 798 805 c 0
 861.374 805 899 767.759 899 699 c 0
 899 696.766 899.035 694.488 899.035 692.187 c 0
 899.035 665.628 894.395 636 778 636 c 0
 703.6 636 646.959 644.924 592 655 c 1
 538.139 655 398 558.895 398 439 c 0
 398 379.156 447.619 267 591 267 c 0
 629 267 669 275.667 711 293 c 1
 700.904 305.98 699.948 335.145 699.948 350.704 c 0
 699.948 418.73 728.769 460 772 460 c 0
EndSplineSet
EndChar

StartChar: u096D
Encoding: 2413 2413 124
Width: 1047
GlyphClass: 2
Flags: HW
LayerCount: 2
Back
Fore
SplineSet
885 1101 m 0
 992.897 1101 1162 1014.07 1162 787 c 0
 1162 492.129 956.8 141 649 141 c 0
 309.8 141 225 513.047 225 800 c 0
 225 929.333 241.667 1072.33 275 1229 c 1
 356 1259 l 1
 322.667 1102.33 306 963.333 306 842 c 0
 306 604.706 379.6 298 674 298 c 0
 882.657 298 992.594 440.421 1035 623 c 1
 1002.33 593.667 954 579 890 579 c 0
 740.809 579 640 665.983 640 813 c 0
 640 1053.07 802.075 1101 885 1101 c 0
865 670 m 0
 983.164 670 1082 807.343 1082 854.5 c 128
 1082 922.1 1009.78 939 958 939 c 0
 878.519 939 755 906.4 755 776 c 0
 755 716.525 796.35 670 865 670 c 0
EndSplineSet
EndChar

StartChar: u096E
Encoding: 2414 2414 125
Width: 1047
GlyphClass: 2
Flags: HW
LayerCount: 2
Back
Fore
SplineSet
503 164 m 0
 637.106 164 806.147 278.789 966 409 c 1
 1044 303 l 1
 949.96 214.024 765.693 60 553 60 c 0
 308.562 60 178 222.184 178 340 c 0
 178 471.495 238.408 513.173 1032 1260 c 1
 1068 1120 l 1
 297.081 367.513 297 388.186 297 310 c 0
 297 238.735 395.05 164 503 164 c 0
EndSplineSet
EndChar

StartChar: u096F
Encoding: 2415 2415 126
Width: 1047
GlyphClass: 2
Flags: HW
LayerCount: 2
Back
Fore
SplineSet
991 988 m 0
 991 813.416 761.037 646 539 646 c 1
 647.108 442.251 942 172.936 942 39 c 0
 942 -46.6188 788.674 -150.381 779 -157 c 1
 669 -54 l 1
 757.069 6.97098 812 31.2 812 88 c 0
 812 219.242 324 710.19 324 887 c 0
 324 1075.35 527.184 1243 728 1243 c 0
 879.618 1243 991 1105.25 991 988 c 0
465 749 m 1
 762.517 749 861 968.763 861 1050 c 0
 861 1111.6 804.725 1127 764 1127 c 0
 604.414 1127 449 993.709 449 810 c 1
 451.667 793.333 457 773 465 749 c 1
EndSplineSet
EndChar

StartChar: colon
Encoding: 58 58 127
Width: 573
GlyphClass: 2
Flags: HW
LayerCount: 2
Back
Fore
SplineSet
311 113 m 0
 311 93.6666666667 307.333333333 75.6666666667 300 59 c 128
 292.666666667 42.3333333333 282.666666667 27.8333333333 270 15.5 c 128
 257.333333333 3.16666666667 242.5 -6.66666666667 225.5 -14 c 128
 208.5 -21.3333333333 190.666666667 -25 172 -25 c 0
 152.666666667 -25 134.833333333 -21.3333333333 118.5 -14 c 128
 102.166666667 -6.66666666667 87.6666666667 3.16666666667 75 15.5 c 128
 62.3333333333 27.8333333333 52.5 42.3333333333 45.5 59 c 128
 38.5 75.6666666667 35 93.6666666667 35 113 c 0
 35 131.666666667 38.5 149.333333333 45.5 166 c 128
 52.5 182.666666667 62.3333333333 197.166666667 75 209.5 c 128
 87.6666666667 221.833333333 102.166666667 231.666666667 118.5 239 c 128
 134.833333333 246.333333333 152.666666667 250 172 250 c 0
 190.666666667 250 208.5 246.333333333 225.5 239 c 128
 242.5 231.666666667 257.333333333 221.833333333 270 209.5 c 128
 282.666666667 197.166666667 292.666666667 182.666666667 300 166 c 128
 307.333333333 149.333333333 311 131.666666667 311 113 c 0
461 874 m 256
 461 855.333333333 457.333333333 837.666666667 450 821 c 128
 442.666666667 804.333333333 432.666666667 789.833333333 420 777.5 c 128
 407.333333333 765.166666667 392.5 755.333333333 375.5 748 c 128
 358.5 740.666666667 340.666666667 737 322 737 c 0
 302.666666667 737 284.666666667 740.666666667 268 748 c 128
 251.333333333 755.333333333 236.833333333 765.166666667 224.5 777.5 c 128
 212.166666667 789.833333333 202.333333333 804.333333333 195 821 c 128
 187.666666667 837.666666667 184 855.333333333 184 874 c 256
 184 892.666666667 187.666666667 910.5 195 927.5 c 128
 202.333333333 944.5 212.166666667 959.166666667 224.5 971.5 c 128
 236.833333333 983.833333333 251.333333333 993.666666667 268 1001 c 128
 284.666666667 1008.33333333 302.666666667 1012 322 1012 c 0
 340.666666667 1012 358.5 1008.33333333 375.5 1001 c 128
 392.5 993.666666667 407.333333333 983.833333333 420 971.5 c 128
 432.666666667 959.166666667 442.666666667 944.5 450 927.5 c 128
 457.333333333 910.5 461 892.666666667 461 874 c 256
EndSplineSet
EndChar

StartChar: semicolon
Encoding: 59 59 128
Width: 573
GlyphClass: 2
Flags: HW
LayerCount: 2
Back
Fore
SplineSet
326 98 m 0
 326 40 313.666666667 -15 289 -67 c 128
 264.333333333 -119 231.5 -165 190.5 -205 c 128
 149.5 -245 102.666666667 -277.666666667 50 -303 c 128
 -2.66666666667 -328.333333333 -57 -343.333333333 -113 -348 c 1
 -98 -274 l 1
 -56 -265.333333333 -19.1666666667 -253.333333333 12.5 -238 c 128
 44.1666666667 -222.666666667 71.5 -203.5 94.5 -180.5 c 128
 117.5 -157.5 136.333333333 -130 151 -98 c 128
 165.666666667 -66 176.666666667 -28.6666666667 184 14 c 1
 55 14 l 1
 47.6666666667 23.3333333333 42.5 34.5 39.5 47.5 c 128
 36.5 60.5 35 72.6666666667 35 84 c 0
 35 104 39.3333333333 123.833333333 48 143.5 c 128
 56.6666666667 163.166666667 68.3333333333 181 83 197 c 128
 97.6666666667 213 114.5 225.833333333 133.5 235.5 c 128
 152.5 245.166666667 172.333333333 250 193 250 c 0
 216.333333333 250 236.5 246.166666667 253.5 238.5 c 128
 270.5 230.833333333 284.333333333 220.166666667 295 206.5 c 128
 305.666666667 192.833333333 313.5 176.666666667 318.5 158 c 128
 323.5 139.333333333 326 119.333333333 326 98 c 0
461 874 m 256
 461 855.333333333 457.333333333 837.666666667 450 821 c 128
 442.666666667 804.333333333 432.666666667 789.833333333 420 777.5 c 128
 407.333333333 765.166666667 392.5 755.333333333 375.5 748 c 128
 358.5 740.666666667 340.666666667 737 322 737 c 0
 302.666666667 737 284.666666667 740.666666667 268 748 c 128
 251.333333333 755.333333333 236.833333333 765.166666667 224.5 777.5 c 128
 212.166666667 789.833333333 202.333333333 804.333333333 195 821 c 128
 187.666666667 837.666666667 184 855.333333333 184 874 c 256
 184 892.666666667 187.666666667 910.5 195 927.5 c 128
 202.333333333 944.5 212.166666667 959.166666667 224.5 971.5 c 128
 236.833333333 983.833333333 251.333333333 993.666666667 268 1001 c 128
 284.666666667 1008.33333333 302.666666667 1012 322 1012 c 0
 340.666666667 1012 358.5 1008.33333333 375.5 1001 c 128
 392.5 993.666666667 407.333333333 983.833333333 420 971.5 c 128
 432.666666667 959.166666667 442.666666667 944.5 450 927.5 c 128
 457.333333333 910.5 461 892.666666667 461 874 c 256
EndSplineSet
EndChar

StartChar: u0907
Encoding: 2311 2311 130
Width: 820
GlyphClass: 2
Flags: HW
LayerCount: 2
Back
Fore
SplineSet
307 769 m 0
 307 917.515 395.181 937 472 937 c 2
 764 937 l 1
 797 1093 l 1
 223 1093 l 1
 183 1226 l 1
 1074 1226 l 1
 1122 1097 l 1
 928 1097 l 1
 877 854 l 2
 872.333 834 855.667 824 827 824 c 2
 526 824 l 2
 430 824 406 764.267 406 713 c 0
 406 659.438 441.6 593 495 593 c 0
 548.314 593 665.987 639 710 639 c 0
 802.17 639 859 493.728 859 419 c 0
 859 357.8 808.265 173.211 491 113 c 1
 703 -176 l 1
 625 -236 l 1
 553.536 -112.356 434.14 72.6585 397 89 c 1
 252.923 104.166 204.253 164.33 204.253 223.398 c 0
 204.253 292.919 257.583 347.43 315.396 347.43 c 0
 361.224 347.43 402 286 437 225 c 1
 549.647 225 760 302.462 760 471 c 0
 760 492.7 750 519 710 519 c 0
 661.85 519 549.5 472 496 472 c 0
 367.634 472 307 677.443 307 769 c 0
EndSplineSet
EndChar

StartChar: u0909
Encoding: 2313 2313 131
Width: 1058
GlyphClass: 2
Flags: HW
LayerCount: 2
Back
Fore
SplineSet
862 1094 m 1
 214 1094 l 1
 170 1227 l 1
 1320 1227 l 1
 1366 1097 l 1
 989 1097 l 1
 1045.03 986.377 1053.92 921.07 1053.92 884.985 c 0
 1053.92 827.806 1040.29 750.383 842 679 c 1
 963.09 652.512 1049 522.263 1049 413 c 0
 1049 236.67 867.249 92 693 92 c 0
 459.436 92 315.85 319.9 261 558 c 1
 350 595 l 1
 441.936 267.096 540.8 209 668 209 c 0
 795.657 209 919 334.99 919 460 c 0
 919 537.854 872.965 590.36 707 636 c 1
 665.35 625.65 624.866 614.134 575 612 c 1
 481.589 623.676 478.273 727.152 478.273 738.033 c 0
 478.273 766.813 493.084 786 535 786 c 0
 568.182 786 696.811 770.703 708 762 c 1
 876.332 787.171 938.613 860.921 938.613 938.955 c 0
 938.613 993.608 908.063 1050.36 862 1094 c 1
EndSplineSet
EndChar

StartChar: u090A
Encoding: 2314 2314 132
Width: 831
GlyphClass: 2
Flags: HW
LayerCount: 2
Back
Fore
SplineSet
823 675 m 1
 868.333 664.333 912.667 639 956 599 c 1
 1176.74 751.345 1228.8 757 1297 757 c 0
 1364.82 757 1461 672.455 1461 525 c 0
 1461 350.16 1347.32 197.507 1264 113 c 1
 1147 170 l 1
 1221.77 254.798 1382 464.249 1382 554 c 0
 1382 605 1340.41 639 1286 639 c 0
 1234.75 639 1097.94 571.559 1016 507 c 1
 1034.09 479.858 1037 456.6 1037 423 c 0
 1037 243.543 863.131 89 678 89 c 0
 444.436 89 282 315 246 555 c 1
 334 592 l 1
 408.306 336.574 481.175 206 653 206 c 0
 779.148 206 905 325.995 905 458 c 0
 905 552.153 829.709 596.13 692 634 c 1
 650.494 623.84 610.562 612.105 561 610 c 1
 480.995 620.001 464.425 701.886 464.425 737.004 c 0
 464.425 773.801 492.621 783 521 783 c 0
 569.267 783 683.391 765.696 692 759 c 1
 748.122 767.163 924 795.2 924 940 c 0
 924 993.575 886.587 1057.93 844 1092 c 1
 196 1092 l 1
 153 1225 l 1
 1658 1225 l 1
 1702 1092 l 1
 970 1092 l 1
 1027.84 974.932 1036.82 930.043 1036.82 894.997 c 0
 1036.82 823.766 1029.43 747.857 823 675 c 1
EndSplineSet
EndChar

StartChar: question
Encoding: 63 63 133
Width: 995
GlyphClass: 2
Flags: HW
LayerCount: 2
Back
Fore
SplineSet
465 90 m 256
 465 74 462.166666667 58.6666666667 456.5 44 c 128
 450.833333333 29.3333333333 442.333333333 16.3333333333 431 5 c 128
 419.666666667 -6.33333333333 405.833333333 -15.5 389.5 -22.5 c 128
 373.166666667 -29.5 354.666666667 -33 334 -33 c 0
 312.666666667 -33 293.5 -29.6666666667 276.5 -23 c 128
 259.5 -16.3333333333 245.166666667 -7.33333333333 233.5 4 c 128
 221.833333333 15.3333333333 212.833333333 28.1666666667 206.5 42.5 c 128
 200.166666667 56.8333333333 197 72 197 88 c 256
 197 104 200.166666667 119.5 206.5 134.5 c 128
 212.833333333 149.5 221.833333333 162.833333333 233.5 174.5 c 128
 245.166666667 186.166666667 259.5 195.5 276.5 202.5 c 128
 293.5 209.5 312.666666667 213 334 213 c 0
 354.666666667 213 373.166666667 209.666666667 389.5 203 c 128
 405.833333333 196.333333333 419.666666667 187.166666667 431 175.5 c 128
 442.333333333 163.833333333 450.833333333 150.666666667 456.5 136 c 128
 462.166666667 121.333333333 465 106 465 90 c 256
948 1112 m 0
 948 1043.33333333 934.166666667 981.833333333 906.5 927.5 c 128
 878.833333333 873.166666667 842.833333333 824.833333333 798.5 782.5 c 128
 754.166666667 740.166666667 704.166666667 703.166666667 648.5 671.5 c 128
 592.833333333 639.833333333 537 612.666666667 481 590 c 1
 434 346 l 1
 297 346 l 1
 352 651 l 1
 398.666666667 665.666666667 444.333333333 686.166666667 489 712.5 c 128
 533.666666667 738.833333333 573.5 770.5 608.5 807.5 c 128
 643.5 844.5 671.666666667 886.833333333 693 934.5 c 128
 714.333333333 982.166666667 725 1034.66666667 725 1092 c 0
 725 1162 706 1215 668 1251 c 128
 630 1287 578 1305 512 1305 c 1
 387 1102 l 1
 328 1102 l 2
 292.666666667 1102 265 1109.33333333 245 1124 c 128
 225 1138.66666667 215 1159.33333333 215 1186 c 0
 215 1206 220.833333333 1228.83333333 232.5 1254.5 c 128
 244.166666667 1280.16666667 264 1304.16666667 292 1326.5 c 128
 320 1348.83333333 356.833333333 1367.83333333 402.5 1383.5 c 128
 448.166666667 1399.16666667 505 1407 573 1407 c 0
 633.666666667 1407 687.333333333 1400.16666667 734 1386.5 c 128
 780.666666667 1372.83333333 819.833333333 1353.16666667 851.5 1327.5 c 128
 883.166666667 1301.83333333 907.166666667 1270.83333333 923.5 1234.5 c 128
 939.833333333 1198.16666667 948 1157.33333333 948 1112 c 0
EndSplineSet
EndChar

StartChar: u090B
Encoding: 2315 2315 134
Width: 1034
GlyphClass: 2
Flags: HW
LayerCount: 2
Back
Fore
SplineSet
607 900 m 0
 709.958 900 793.686 858.77 937 700 c 1
 1021 1097 l 1
 239 1097 l 1
 196 1227 l 1
 1958 1227 l 1
 1993 1097 l 1
 1153 1097 l 1
 1058 654 l 1
 1079.89 647.159 1096.37 644 1125 644 c 0
 1160.93 644 1264.84 650.394 1391 758 c 1
 1380.27 825.046 1380 829.142 1380 870.07 c 0
 1380 895.207 1399.17 921 1444 921 c 0
 1491.93 921 1668.21 834.494 1668.21 780.211 c 0
 1668.21 751.21 1543.14 680.024 1531 678 c 1
 1575.46 513.855 1593 447.35 1593 421 c 1
 1574.21 333.327 1220 296.873 1220 127 c 0
 1220 61.0648 1288.93 38 1359 38 c 0
 1425.6 38 1521.87 57.7403 1577 119 c 1
 1666 13 l 1
 1588.33 -46.3913 1497.5 -69 1421 -69 c 0
 1234.24 -69 1104 43.0426 1104 176 c 0
 1104 245.6 1129.28 295.914 1216 350 c 1
 1447 471 l 1
 1447.67 473.667 1448 478.667 1448 486 c 0
 1448 517.874 1424.93 607.189 1421 619 c 1
 1364.6 584.201 1279.4 539 1185 539 c 0
 1123.39 539 1094.81 547.166 1048 575 c 1
 925 -1 l 1
 806 81 l 1
 892 491 l 1
 379 179 l 1
 291 274 l 1
 897 629 l 1
 805.389 703.253 708.409 770 617 770 c 0
 574.4 770 551.477 761.654 404 726 c 1
 330 854 l 1
 495.212 886.608 551.6 900 607 900 c 0
EndSplineSet
EndChar

StartChar: u0960
Encoding: 2400 2400 135
Width: 1034
GlyphClass: 2
Flags: HW
LayerCount: 2
Back
Fore
SplineSet
1312 934 m 0
 1364.23 934 1539.13 844.085 1539.13 790.536 c 0
 1539.13 749.122 1421.49 693.552 1409 687 c 1
 1542 475 l 1
 1357.08 417.295 1252.08 321.121 1252.08 263.616 c 0
 1252.08 235.03 1278.02 216 1333 216 c 0
 1373.67 216 1413 231.667 1451 263 c 1
 1543 146 l 1
 1294.93 28.8576 1284 -41.2 1284 -88 c 0
 1284 -162.488 1337.66 -167 1370 -167 c 0
 1418.31 -167 1492.7 -138.167 1551 -106 c 1
 1571.28 -135.389 1588.89 -167.443 1607 -199 c 1
 1471.39 -274.34 1378.74 -276 1354 -276 c 0
 1193.21 -276 1134 -162 1134 -86 c 0
 1134 38.8 1232.91 101.942 1265 122 c 1
 1164.5 153.189 1110 191.128 1110 264 c 0
 1110 336.806 1129.25 431.862 1390 541 c 1
 1326 639 l 1
 1278.09 583.429 1142.75 577 1117 577 c 0
 1081 577 1056.67 581.667 1044 591 c 1
 918 -2 l 1
 797 80 l 1
 883 490 l 1
 378 201 l 1
 289 296 l 1
 891 629 l 1
 747.815 742.289 653.4 764 594 764 c 0
 538.559 764 471.856 740.408 399 730 c 1
 327 858 l 1
 419.647 864.389 520.721 898 595 898 c 0
 688.988 898 781.368 864.66 930 700 c 1
 1014 1097 l 1
 235 1097 l 1
 192 1227 l 1
 1954 1227 l 1
 1998 1097 l 1
 1154 1097 l 1
 1062 662 l 1
 1088 660 l 1
 1156.28 660 1238.9 707.343 1260 768 c 1
 1256.14 797.789 1247.04 827.394 1247 866.999 c 0
 1247 895.208 1248.51 934 1312 934 c 0
EndSplineSet
EndChar

StartChar: u090F
Encoding: 2319 2319 139
Width: 1023
GlyphClass: 2
Flags: HMW
LayerCount: 2
Back
Fore
SplineSet
996 -279 m 1
 898 -173 l 1
 916.661 -152.826 955.454 -114.937 955.454 -92.7938 c 0
 955.454 21.8541 318.5 283.251 318.5 453.25 c 0
 318.5 477.086 319.981 477.834 451 1097 c 1
 230 1097 l 1
 190 1228 l 1
 1282 1228 l 1
 1322 1097 l 1
 1108 1097 l 1
 980 491 l 2
 969.646 441.978 942.037 390.119 847.198 390.119 c 0
 811.614 390.119 766.465 397.441 709 415 c 1
 656 532 l 1
 783 526 l 1
 843.784 526 852.316 547.963 857 570 c 2
 969 1097 l 1
 594 1097 l 1
 470.717 515.258 463.869 492.381 463.869 449.794 c 0
 463.869 444.471 463.976 438.778 463.976 431.57 c 0
 463.976 377.513 1111 -0.885986 1111 -109 c 0
 1111 -158.889 1048.98 -218.551 996 -279 c 1
EndSplineSet
EndChar

StartChar: u0915.half
Encoding: 65551 -1 140
Width: 1040
GlyphClass: 3
Flags: HW
AnchorPoint: "N" 185 165 basechar 0
LayerCount: 2
Back
Fore
SplineSet
606 900 m 0
 705.72 900 802.969 872.281 879 708 c 1
 961 1097 l 1
 234 1097 l 1
 191 1230 l 1
 1758 1230 l 1
 1801 1097 l 1
 1108 1097 l 1
 1022 691 l 1
 1146.95 780.754 1214.8 795 1263 795 c 1
 1233 653 l 1
 1183.8 653 1124.33 626.115 987 525 c 1
 876 0 l 1
 750 82 l 1
 822 429 l 1
 730.924 362.032 626.938 330 544 330 c 0
 375.774 330 274 446.669 274 588 c 0
 274 776.956 424.464 900 606 900 c 0
370 548 m 0
 370 478.91 427.882 451 496 451 c 0
 656.643 451 839.246 585.33 858 602 c 1
 816.952 736.872 675.11 770 603 770 c 0
 496.13 770 370 688.284 370 548 c 0
EndSplineSet
Ligature2: "'half' Half Forms in Devanagari lookup 3 subtable" u0915 u094D
LCarets2: 1 2
EndChar

StartChar: u0958.half
Encoding: 65552 -1 141
Width: 1040
GlyphClass: 3
Flags: HW
LayerCount: 2
Back
Fore
SplineSet
478 106 m 1
 331 -17 l 1
 239 108 l 1
 384 228 l 1
 478 106 l 1
605 898 m 0
 704.72 898 801.969 870.281 878 706 c 1
 960 1097 l 1
 233 1097 l 1
 190 1228 l 1
 1757 1228 l 1
 1800 1097 l 1
 1107 1097 l 1
 1021 689 l 1
 1145.95 778.754 1213.8 793 1262 793 c 1
 1232 651 l 1
 1182.8 651 1123.33 624.115 986 523 c 1
 875 -2 l 1
 749 80 l 1
 821 427 l 1
 729.924 360.032 625.938 328 543 328 c 0
 374.774 328 273 444.669 273 586 c 0
 273 774.956 423.464 898 605 898 c 0
369 546 m 0
 369 476.91 426.882 449 495 449 c 0
 655.643 449 838.246 583.33 857 600 c 1
 815.952 734.872 674.11 768 602 768 c 0
 495.13 768 369 686.284 369 546 c 0
EndSplineSet
Ligature2: "'half' Half Forms in Devanagari lookup 3 subtable" u0958 u094D
EndChar

StartChar: u0915
Encoding: 2325 2325 142
Width: 954
GlyphClass: 2
Flags: HW
AnchorPoint: "N" 104 156 basechar 0
LayerCount: 2
Back
Fore
SplineSet
609 900 m 4
 703.703 900 816.664 863.454 881 707 c 5
 963 1097 l 5
 236 1097 l 5
 193 1229 l 5
 1744 1229 l 5
 1785 1097 l 5
 1109 1097 l 5
 1023 691 l 5
 1147.95 780.754 1215.8 795 1264 795 c 4
 1367.05 795 1459 692.01 1459 540 c 4
 1459 394.337 1424 316.547 1256 118 c 5
 1160 227 l 5
 1292.64 366.444 1370 509.4 1370 580 c 4
 1370 618.662 1341.59 667 1274 667 c 4
 1217 667 1107.51 611.815 989 525 c 5
 878 0 l 5
 752 82 l 5
 824 429 l 5
 758.617 382.298 657.122 330 547 330 c 4
 373.511 330 277 455.665 277 588 c 4
 277 776.956 427.464 900 609 900 c 4
370 549 m 4
 370 473.8 445.212 455 509 455 c 4
 649.8 455 795.338 551.04 861 601 c 5
 822.741 705.222 714.204 775 597 775 c 4
 430.938 775 370 620.802 370 549 c 4
EndSplineSet
EndChar

StartChar: u0958
Encoding: 2392 2392 143
Width: 954
GlyphClass: 2
Flags: HW
LayerCount: 2
Back
Fore
SplineSet
478 106 m 1
 331 -17 l 1
 239 108 l 1
 384 228 l 1
 478 106 l 1
608 898 m 0
 702.703 898 815.664 861.454 880 705 c 1
 962 1094 l 1
 235 1094 l 1
 192 1227 l 1
 1743 1227 l 1
 1784 1095 l 1
 1108 1095 l 1
 1022 689 l 1
 1146.95 778.754 1214.8 793 1263 793 c 0
 1366.05 793 1458 690.01 1458 538 c 0
 1458 392.337 1423 314.547 1255 116 c 1
 1159 225 l 1
 1291.64 364.444 1369 507.4 1369 578 c 0
 1369 616.662 1340.59 665 1273 665 c 0
 1216 665 1106.51 609.815 988 523 c 1
 877 -2 l 1
 751 80 l 1
 823 427 l 1
 757.617 380.298 656.122 328 546 328 c 0
 372.511 328 276 453.665 276 586 c 0
 276 774.956 426.464 898 608 898 c 0
508 453 m 0
 648.8 453 794.338 549.04 860 599 c 1
 821.741 703.222 713.204 773 596 773 c 0
 466.848 773 367.619 654.11 367.619 561.265 c 0
 367.619 501.789 408.339 453 508 453 c 0
EndSplineSet
EndChar

StartChar: u0915.vatu
Encoding: 65553 -1 144
Width: 954
GlyphClass: 3
Flags: HW
AnchorPoint: "N" 52 -108 basechar 0
LayerCount: 2
Back
Fore
SplineSet
1366 574 m 0
 1366 612.662 1337.59 661 1270 661 c 0
 1213 661 1103.51 605.815 985 519 c 1
 874 -6 l 1
 748 76 l 1
 820 423 l 1
 210 16 l 1
 128 108 l 1
 499 334 l 1
 370.438 350.624 276 444.556 276 586 c 0
 276 635.649 277.54 743.307 404 834 c 0
 460.667 874.667 528 895 606 895 c 0
 700.703 895 813.664 858.454 878 702 c 1
 960 1097 l 1
 233 1097 l 1
 190 1224 l 1
 1741 1224 l 1
 1781 1097 l 1
 1105 1097 l 1
 1019 685 l 1
 1143.95 774.754 1211.8 789 1260 789 c 0
 1363.05 789 1455 686.01 1455 534 c 0
 1455 388.337 1420 310.547 1252 112 c 1
 1156 221 l 1
 1288.64 360.444 1366 503.4 1366 574 c 0
368 542 m 0
 368 466.8 443.212 448 507 448 c 0
 558.333 448 612.667 460 670 484 c 1
 740.37 511.286 806.127 549.254 863 595 c 1
 824.275 698.267 713.238 768 595 768 c 0
 428.938 768 368 613.802 368 542 c 0
EndSplineSet
Ligature2: "'vatu' Vattu Variants in Devanagari lookup 4 subtable" u0915 u0930.sub
LCarets2: 1 0
EndChar

StartChar: u0915_u094D_u0924
Encoding: 65554 -1 145
Width: 1086
GlyphClass: 2
Flags: HW
LayerCount: 2
Back
Fore
SplineSet
656 95 m 1
 525.952 211.63 424 374.169 424 493 c 0
 424 617.447 540.619 699.095 542 706 c 1
 355 706 l 1
 318 823 l 1
 1012 823 l 1
 1069 1097 l 1
 232 1097 l 1
 192 1224 l 1
 1839 1224 l 1
 1880 1097 l 1
 1211 1097 l 1
 1144 782 l 1
 1237.6 817.656 1289.3 832 1366 832 c 0
 1496.12 832 1555 681.457 1555 571 c 0
 1555 359.58 1382.18 191.287 1210 49 c 1
 1111 158 l 1
 1384.8 355.271 1464 521.2 1464 612 c 0
 1464 669.333 1426 698 1350 698 c 0
 1272.32 698 1188.5 676.899 1111 621 c 1
 979 -3 l 1
 852 79 l 1
 987 707 l 1
 895 707 l 2
 602.933 707 542 521.331 542 438 c 0
 542 366.679 592.772 253.768 721 163 c 1
 656 95 l 1
EndSplineSet
EndChar

StartChar: u0915_u094D_u0937.half
Encoding: 65556 -1 147
Width: 842
GlyphClass: 3
Flags: MW
AnchorPoint: "N" 124 108 basechar 0
LayerCount: 2
Back
Fore
SplineSet
720 753 m 1
 743.818 736.76 796.691 723 874 723 c 0
 1024.9 723 1148.37 760.506 1241 784 c 1
 1212 648 l 1
 1147.54 623.986 1076.03 611 991 611 c 0
 826.07 611 685.573 662.164 648 706 c 1
 479.392 620.557 385 563.4 385 434 c 0
 385 382.8 418.1 306 545 306 c 0
 581 306 614.333 312 645 324 c 1
 626.333 362.667 617 395 617 421 c 0
 617 457.913 633 495 697 495 c 0
 775.595 495 862.627 416.426 862.627 373.058 c 0
 862.627 346.846 826.542 292.354 760 242 c 1
 891 -42 l 1
 792 -93 l 1
 696 210 l 1
 668 202 639.333 198 610 198 c 0
 418.23 198 256 360.748 256 506 c 0
 256 575.39 268.082 641.121 526 780 c 1
 426.525 848.773 371 905.005 371 992 c 0
 371 1152.51 545.075 1249 661 1249 c 0
 782.33 1249 913.142 1163.5 913.142 997.568 c 0
 913.142 891.394 825.299 821.674 720 753 c 1
800 1062 m 0
 800 1130.8 738.998 1145.51 688 1148 c 1
 602.396 1148 516 1072.25 516 983 c 0
 516 925.667 545.667 873.667 605 827 c 1
 718.397 874.368 800 968 800 1062 c 0
EndSplineSet
Ligature2: "'half' Half Forms in Devanagari lookup 3 subtable" u0915_u094D_u0937 u094D
LCarets2: 1 0
EndChar

StartChar: u0916.half
Encoding: 65557 -1 149
Width: 1043
GlyphClass: 3
Flags: MW
AnchorPoint: "N" 130 125 basechar 0
LayerCount: 2
Back
Fore
SplineSet
1420 715 m 0
 1420 548.44 1221.21 405 1090 405 c 0
 899.348 405 796 537.623 796 667 c 0
 796 845.624 971.312 964 1158 964 c 0
 1315.2 964 1420 825.193 1420 715 c 0
434 448 m 1
 558.055 247.322 648.301 162 885 162 c 0
 1059.96 162 1274.62 298.995 1343 341 c 1
 1318 198 l 1
 1182.92 124.834 1020.4 47 822 47 c 0
 442.667 47 281.848 593.584 281.848 660.87 c 0
 281.848 683.562 327.75 718.85 345 720 c 0
 357.667 720 400.333 704.667 473 674 c 1
 535.057 747.337 585 986.492 585 1097 c 1
 235 1097 l 1
 192 1225 l 1
 1384 1225 l 1
 1424 1097 l 1
 722 1097 l 1
 695.216 807.729 689.272 596.147 434 448 c 1
1024 519 m 0
 1183.31 519 1338 630.273 1338 738 c 0
 1338 779.6 1306 842 1178 842 c 0
 1038.73 842 883 731.949 883 617 c 0
 883 546.079 952.447 519 1024 519 c 0
EndSplineSet
Ligature2: "'half' Half Forms in Devanagari lookup 3 subtable" u0916 u094D
LCarets2: 1 0
EndChar

StartChar: u0959.half
Encoding: 65558 -1 151
Width: 1043
GlyphClass: 3
Flags: HW
LayerCount: 2
Back
Fore
SplineSet
361 106 m 1
 214 -17 l 1
 122 108 l 1
 267 228 l 1
 361 106 l 1
1420 713 m 0
 1420 546.44 1221.21 403 1090 403 c 0
 899.348 403 796 535.623 796 665 c 0
 796 843.624 971.312 962 1158 962 c 0
 1315.2 962 1420 823.193 1420 713 c 0
1030 519 m 0
 1189.31 519 1344 630.273 1344 738 c 0
 1344 779.6 1312 842 1184 842 c 0
 1044.73 842 889 731.949 889 617 c 0
 889 546.079 958.447 519 1030 519 c 0
434 445 m 1
 558.055 244.322 648.301 159 885 159 c 0
 1059.96 159 1274.62 295.995 1343 338 c 1
 1318 195 l 1
 1182.92 121.834 1020.4 44 822 44 c 0
 442.667 44 281.848 590.584 281.848 657.87 c 0
 281.848 680.562 327.75 715.85 345 717 c 0
 357.667 717 400.333 701.667 473 671 c 1
 535.057 744.337 585 986.492 585 1097 c 1
 235 1097 l 1
 192 1222 l 1
 1384 1222 l 1
 1424 1097 l 1
 722 1097 l 1
 695.216 807.729 689.272 593.147 434 445 c 1
EndSplineSet
Ligature2: "'half' Half Forms in Devanagari lookup 3 subtable" u0959 u094D
EndChar

StartChar: u0916.half.vatu
Encoding: 65560 -1 153
Width: 1043
GlyphClass: 3
Flags: HW
LayerCount: 2
Back
Fore
SplineSet
1421 709 m 0
 1421 558.885 1235.57 403 1091 403 c 0
 914.218 403 796 519.121 796 661 c 0
 796 827.031 953.175 958 1159 958 c 0
 1316.2 958 1421 819.193 1421 709 c 0
439 446 m 1
 563.055 245.322 653.301 160 890 160 c 0
 1016.77 160 1160.33 224.653 1348 337 c 1
 1319 196 l 1
 651 -158 l 1
 572 -77 l 1
 814 51 l 1
 440.078 51 286.881 601.885 286.881 658.646 c 0
 286.881 680.172 332.926 715.862 350 717 c 0
 362.667 717 405.333 701.667 478 671 c 1
 523.193 730.465 590 962.73 590 1097 c 1
 240 1097 l 1
 197 1224 l 1
 1389 1224 l 1
 1429 1097 l 1
 727 1097 l 1
 693.368 771.894 691.002 591.553 439 446 c 1
1033 516 m 0
 1202.64 516 1343 622.782 1343 735 c 0
 1343 775.4 1311 836 1183 836 c 0
 1039.25 836 890 725.861 890 616 c 0
 890 576 918.6 516 1033 516 c 0
EndSplineSet
Ligature2: "'vatu' Vattu Variants in Devanagari lookup 4 subtable" u0916.half u0930.sub
LCarets2: 1 0
EndChar

StartChar: u0917.half
Encoding: 65561 -1 156
Width: 602
GlyphClass: 3
Flags: HW
AnchorPoint: "N" 25 430 basechar 0
LayerCount: 2
Back
Fore
SplineSet
936 1097 m 1
 677 1097 l 1
 550 501 l 2
 546.766 485.235 530.6 414 453 414 c 0
 407.86 414 282.111 576.177 282.111 654.366 c 0
 282.111 687.703 318.921 716 337 716 c 2
 443 716 l 2
 453.667 716 459.874 723.424 463 738 c 2
 540 1097 l 1
 234 1097 l 1
 191 1229 l 1
 896 1229 l 1
 936 1097 l 1
EndSplineSet
Ligature2: "'half' Half Forms in Devanagari lookup 3 subtable" u0917 u094D
LCarets2: 1 0
EndChar

StartChar: u095A.half
Encoding: 65562 -1 158
Width: 602
GlyphClass: 3
Flags: HW
LayerCount: 2
Back
Fore
SplineSet
428 200 m 1
 283 77 l 1
 187 203 l 1
 332 320 l 1
 428 200 l 1
936 1097 m 1
 677 1097 l 1
 550 501 l 2
 546.766 485.235 530.6 414 453 414 c 0
 407.86 414 282.111 576.177 282.111 654.366 c 0
 282.111 687.703 318.921 716 337 716 c 2
 443 716 l 2
 453.667 716 459.874 723.424 463 738 c 2
 540 1097 l 1
 234 1097 l 1
 191 1229 l 1
 896 1229 l 1
 936 1097 l 1
EndSplineSet
Ligature2: "'half' Half Forms in Devanagari lookup 3 subtable" u095A u094D
EndChar

StartChar: u0917.half.vatu
Encoding: 65564 -1 160
Width: 602
GlyphClass: 3
Flags: HW
LayerCount: 2
Back
Fore
SplineSet
940 459 m 1
 364 63 l 1
 278 155 l 1
 965 573 l 1
 940 459 l 1
937 1097 m 1
 678 1097 l 1
 551 500 l 2
 547.651 484.259 531.6 413 454 413 c 0
 408.86 413 283.111 575.177 283.111 653.366 c 0
 283.111 686.703 319.921 715 338 715 c 2
 444 715 l 2
 454.667 715 460.882 722.422 464 737 c 2
 541 1097 l 1
 235 1097 l 1
 192 1228 l 1
 897 1228 l 1
 937 1097 l 1
EndSplineSet
Ligature2: "'vatu' Vattu Variants in Devanagari lookup 4 subtable" u0917.half u0930.sub
EndChar

StartChar: u0918.half
Encoding: 65565 -1 162
Width: 688
GlyphClass: 3
Flags: HW
AnchorPoint: "N" 110 305 basechar 0
LayerCount: 2
Back
Fore
SplineSet
455 531 m 0
 455 492.272 477 420 565 420 c 0
 666.4 420 798.388 468.026 1072 680 c 1
 1029 513 l 1
 848.406 349.985 720.983 331 619 331 c 0
 471.135 331 333 460.055 333 577 c 0
 333 706.33 449.688 772.031 518 807 c 1
 434.254 869.364 365 941.373 365 1019 c 0
 365 1044.22 365.904 1046.57 377 1097 c 5
 235 1097 l 5
 195 1225 l 1
 1000 1225 l 1
 1043 1097 l 5
 577 1097 l 5
 533.271 1066.58 514 998.001 514 969 c 0
 514 941.8 530.506 883.431 603 833 c 1
 678.261 833 794.44 815.721 830 787 c 1
 839.451 737.32 847.349 705.406 847.349 685.744 c 0
 847.349 665.09 838.633 657.958 813.845 657.958 c 0
 797.502 657.958 779.992 662.577 647 692 c 1
 503.211 692 455 595.4 455 531 c 0
EndSplineSet
Ligature2: "'half' Half Forms in Devanagari lookup 3 subtable" u0918 u094D
LCarets2: 1 0
EndChar

StartChar: u0918.half.vatu
Encoding: 65567 -1 164
Width: 688
GlyphClass: 3
Flags: HW
LayerCount: 2
Back
Fore
SplineSet
456 527 m 0
 456 485.155 477.4 418 563 418 c 0
 664.4 418 796.388 466.026 1070 678 c 1
 1029 513 l 1
 972.349 459.419 767.341 328.017 366 64 c 1
 280 156 l 1
 575 336 l 1
 448.712 355.062 329 458.885 329 574 c 0
 329 711.4 495.079 790.761 519 803 c 1
 435.254 865.364 366 937.373 366 1015 c 0
 366 1040.22 366.904 1046.57 378 1097 c 1
 236 1097 l 1
 196 1221 l 1
 1001 1221 l 1
 1044 1097 l 1
 578 1097 l 1
 531.526 1066.37 516 999.034 516 967 c 0
 516 931.917 530.612 879.097 602 829 c 1
 720.101 829 796.997 810.836 828 785 c 1
 838.669 734.323 843.082 703.956 843.082 685.67 c 0
 843.082 656.58 831.914 658.065 817 657 c 1
 738.659 674.318 688.882 687 633 687 c 0
 486.4 687 456 587.578 456 527 c 0
EndSplineSet
LCarets2: 1 0
Ligature2: "'vatu' Vattu Variants in Devanagari lookup 4 subtable" u0918.half u0930.sub
EndChar

StartChar: u0919
Encoding: 2329 2329 165
Width: 1023
GlyphClass: 2
Flags: HW
AnchorPoint: "N" 160 125 basechar 0
LayerCount: 2
Back
Fore
SplineSet
1470 697 m 1
 1301 559 l 1
 1196 697 l 1
 1359 834 l 1
 1470 697 l 1
495 724.5 m 0
 495 799.717 573.771 930 713 930 c 2
 998 930 l 1
 1034 1097 l 1
 227 1097 l 1
 187 1231 l 1
 1727 1231 l 1
 1773 1097 l 1
 1180 1097 l 1
 1127 848 l 2
 1124.82 838.168 1111.54 801.685 1071 798 c 1
 756 798 l 2
 675.184 798 614 740.127 614 650 c 0
 614 601 634.193 561.592 685.675 561.592 c 0
 704.167 561.592 925.27 601 976 601 c 0
 1103.3 601 1171 441.327 1171 359 c 0
 1171 237.232 1057.48 55 794 55 c 0
 574 55 362.545 247.184 244 498 c 1
 321 549 l 1
 356.459 475.385 500.2 187 769 187 c 0
 926.723 187 1074 298.485 1074 406 c 0
 1074 458 1019.12 471 969 471 c 0
 919 471 892.68 465.694 719 434 c 1
 619.318 434 495 530.85 495 724.5 c 0
EndSplineSet
EndChar

StartChar: u091A.half
Encoding: 65568 -1 167
Width: 799
GlyphClass: 3
Flags: HW
AnchorPoint: "N" 120 250 basechar 0
LayerCount: 2
Back
Fore
SplineSet
1174 1097 m 1
 234 1097 l 1
 191 1230 l 1
 1131 1230 l 1
 1174 1097 l 1
620 493 m 0
 620 450.707 643.349 386 738 386 c 0
 784.667 386 843.667 402.667 915 436 c 1
 1001.84 480.111 1086.4 535.23 1187 618 c 1
 1153 451 l 1
 1109.67 409 1059.33 374 1002 346 c 1
 934 314.667 869.667 299 809 299 c 0
 609.521 299 505 408.59 505 534 c 0
 505 647.697 566.38 699.765 592 724 c 1
 364 724 l 1
 320 855 l 1
 1085 855 l 1
 1125 729 l 1
 953 729 l 2
 803.719 729 620 696.629 620 493 c 0
EndSplineSet
Ligature2: "'half' Half Forms in Devanagari lookup 3 subtable" u091A u094D
LCarets2: 1 0
EndChar

StartChar: u091A.half.vatu
Encoding: 65570 -1 169
Width: 799
GlyphClass: 3
Flags: MW
LayerCount: 2
Back
Fore
SplineSet
1174 1097 m 1
 234 1097 l 1
 191 1230 l 1
 1131 1230 l 1
 1174 1097 l 1
620 494 m 0
 620 451.707 643.349 387 738 387 c 0
 784.667 387 843.667 403.667 915 437 c 1
 1001.84 481.111 1086.4 536.23 1187 619 c 1
 1153 451 l 1
 518 18 l 1
 434 110 l 1
 753 301 l 1
 567.99 319.769 504 444.7 504 534 c 0
 504 648.6 569.061 703.301 592 725 c 1
 364 725 l 1
 320 856 l 1
 1085 856 l 1
 1125 730 l 1
 953 730 l 2
 866.333 730 799.667 720.333 753 701 c 0
 640.58 652.66 620 529.584 620 494 c 0
EndSplineSet
Ligature2: "'vatu' Vattu Variants in Devanagari lookup 4 subtable" u091A.half u0930.sub
EndChar

StartChar: u091B
Encoding: 2331 2331 170
Width: 1209
GlyphClass: 2
Flags: HW
AnchorPoint: "N" 95 100 basechar 0
LayerCount: 2
Back
Fore
SplineSet
1103 380 m 1
 1041.99 438.235 869 524.77 869 693 c 0
 869 780.17 936.439 930.928 1136 963 c 1
 1165 1097 l 1
 230 1097 l 1
 187 1230 l 1
 1585 1230 l 1
 1629 1097 l 1
 1309 1097 l 1
 1270 917 l 1
 1369.99 832.396 1370 740.797 1370 702 c 0
 1370 343.115 970.101 43 665 43 c 0
 505.455 43 329 149.656 329 293 c 0
 329 356.332 346.19 402.967 445 476 c 1
 312.251 578.579 288 617.511 288 676 c 0
 288 790.876 421.055 920 603 920 c 0
 659 920 705 908 741 884 c 1
 770 758 l 1
 706.667 777.333 652.667 787 608 787 c 0
 461.625 787 410 698.2 410 639 c 0
 410 585.577 466.748 545 537 545 c 1
 595.557 554.759 642.484 563.395 683.665 563.395 c 0
 712.6 563.395 738.698 559.132 764 548 c 1
 783.014 479.949 792.698 443.747 792.698 432.548 c 0
 792.698 423.905 789.242 419.77 780 419 c 1
 771.737 421.295 729 432 695 432 c 0
 532.016 432 438 322.791 438 234 c 0
 438 167.607 514.454 150 587 150 c 0
 735.634 150 986.51 236.184 1103 380 c 1
1165 860 m 0
 1092.91 860 1003 783.102 1003 647 c 0
 1003 521.6 1098.83 462.12 1151 438 c 1
 1188.44 485.775 1272 587.977 1272 734 c 0
 1272 828.112 1207.8 860 1165 860 c 0
EndSplineSet
EndChar

StartChar: u091C.half
Encoding: 65571 -1 174
Width: 788
GlyphClass: 3
Flags: HW
AnchorPoint: "N" 130 275 basechar 0
LayerCount: 2
Back
Fore
SplineSet
1208 1097 m 1
 229 1097 l 1
 186 1230 l 1
 1168 1230 l 1
 1208 1097 l 1
795 620 m 0
 795 693.005 743.527 759.832 665 818 c 1
 691 860 l 1
 1277 860 l 1
 1254 739 l 1
 849 739 l 1
 874.71 725.248 925 681.881 925 572 c 0
 925 408.92 758.244 339 671 339 c 0
 456.8 339 342.661 561.231 314 828 c 1
 379 853 l 1
 397.477 657.668 481.627 474 643 474 c 0
 701.348 474 795 517.2 795 620 c 0
EndSplineSet
Ligature2: "'half' Half Forms in Devanagari lookup 3 subtable" u091C u094D
LCarets2: 1 5
EndChar

StartChar: u095B.half
Encoding: 65572 -1 176
Width: 788
GlyphClass: 3
Flags: HW
LayerCount: 2
Back
Fore
SplineSet
1211 1097 m 1
 237 1097 l 1
 194 1230 l 1
 1171 1230 l 1
 1211 1097 l 1
687 82 m 1
 540 -41 l 1
 447 84 l 1
 589 201 l 1
 687 82 l 1
796 618 m 0
 796 691.005 744.527 757.832 666 816 c 1
 692 858 l 1
 1278 858 l 1
 1255 737 l 1
 850 737 l 1
 875.71 723.248 926 679.881 926 570 c 0
 926 406.92 759.244 337 672 337 c 0
 457.8 337 343.661 559.231 315 826 c 1
 380 851 l 1
 398.477 655.668 482.627 472 644 472 c 0
 702.348 472 796 515.2 796 618 c 0
EndSplineSet
Ligature2: "'half' Half Forms in Devanagari lookup 3 subtable" u095B u094D
LCarets2: 1 0
EndChar

StartChar: u091C.half.vatu
Encoding: 65574 -1 178
Width: 788
GlyphClass: 3
Flags: HW
LayerCount: 2
Back
Fore
SplineSet
1177 364 m 1
 601 -32 l 1
 518 60 l 1
 1203 478 l 1
 1177 364 l 1
1208 1097 m 1
 229 1097 l 1
 186 1229 l 1
 1168 1229 l 1
 1208 1097 l 1
795 619 m 0
 795 692.005 743.527 758.832 665 817 c 1
 691 859 l 1
 1277 859 l 1
 1254 738 l 1
 849 738 l 1
 874.71 724.248 925 680.881 925 571 c 0
 925 407.92 758.244 338 671 338 c 0
 456.8 338 342.661 560.231 314 827 c 1
 379 852 l 1
 397.477 656.668 481.627 473 643 473 c 0
 701.348 473 795 516.2 795 619 c 0
EndSplineSet
Ligature2: "'vatu' Vattu Variants in Devanagari lookup 4 subtable" u091C.half u0930.sub
EndChar

StartChar: u091C_u094D_u091E.half
Encoding: 65576 -1 180
Width: 656
GlyphClass: 3
Flags: HW
AnchorPoint: "N" 72 -20 basechar 0
LayerCount: 2
Back
Fore
SplineSet
1013 1097 m 1
 234 1097 l 1
 191 1230 l 1
 968 1230 l 1
 1013 1097 l 1
630 391 m 0
 630 485.661 503.995 608.369 300 682 c 1
 335 766 l 1
 1077 766 l 1
 1053 651 l 1
 526 651 l 1
 650.016 588.471 756 488.167 756 389 c 0
 756 296.2 649.479 180.032 457 157 c 1
 630 -130 l 1
 552 -190 l 1
 485.926 -61.2403 426.34 65.1474 364 118 c 1
 242.159 118 189 200.837 189 267 c 0
 189 336.462 237.435 384 315 384 c 0
 367.349 384 420 282.355 420 235 c 1
 533.873 235 630 318.674 630 391 c 0
EndSplineSet
Ligature2: "'half' Half Forms in Devanagari lookup 3 subtable" u091C_u094D_u091E u094D
LCarets2: 1 0
EndChar

StartChar: u091D.half
Encoding: 65577 -1 182
Width: 782
GlyphClass: 3
Flags: HW
AnchorPoint: "N" 108 -100 basechar 0
LayerCount: 2
Back
Fore
SplineSet
490 591 m 0
 531.323 591 645.969 638 707 638 c 0
 737.667 638 763 628 783 608 c 1
 820 604 l 1
 889 604 1027.97 644.592 1165 749 c 1
 1136 588 l 1
 1021.21 543.206 957.701 535 826 535 c 1
 847.333 505.667 858 472.333 858 435 c 0
 858 305.4 743.272 145.264 492 111 c 1
 704 -178 l 1
 626 -238 l 1
 554.536 -114.356 435.14 70.6585 398 87 c 1
 268.388 87 209 175.095 209 244 c 0
 209 311.51 249.718 354 320 354 c 0
 360.544 354 422.043 274.61 437 226 c 1
 549.647 226 760 303.462 760 472 c 0
 760 493.7 750 520 710 520 c 0
 661.85 520 549.5 473 496 473 c 0
 367.634 473 307 678.443 307 770 c 0
 307 918.515 395.181 938 472 938 c 2
 764 938 l 1
 797 1097 l 1
 226 1097 l 1
 186 1227 l 1
 1074 1227 l 1
 1117 1097 l 1
 923 1097 l 1
 872 851 l 2
 867.831 830.891 850.667 821 822 821 c 2
 521 821 l 2
 424.2 821 400 762.799 400 711 c 0
 400 657.508 435.242 591 490 591 c 0
EndSplineSet
Ligature2: "'half' Half Forms in Devanagari lookup 3 subtable" u091D u094D
LCarets2: 1 12
EndChar

StartChar: u091D.half.vatu
Encoding: 65579 -1 184
Width: 823
GlyphClass: 3
Flags: HW
LayerCount: 2
Back
Fore
SplineSet
1108 361 m 1
 1071 200 l 1
 790 -5 l 1
 704 85 l 1
 1108 361 l 1
492 590 m 0
 533.323 590 647.969 637 709 637 c 0
 739.667 637 765 627 785 607 c 1
 822 603 l 1
 891 603 1029.97 643.592 1167 748 c 1
 1138 587 l 1
 1023.21 542.206 959.701 534 828 534 c 1
 849.333 504.667 860 471.333 860 434 c 0
 860 304.4 745.272 144.264 494 110 c 1
 706 -179 l 1
 628 -239 l 1
 556.536 -115.356 437.14 69.6585 400 86 c 1
 270.388 86 211 174.095 211 243 c 0
 211 310.51 251.718 353 322 353 c 0
 362.544 353 424.043 273.61 439 225 c 1
 551.647 225 762 302.462 762 471 c 0
 762 492.7 752 519 712 519 c 0
 663.85 519 551.5 472 498 472 c 0
 369.634 472 309 677.443 309 769 c 0
 309 917.515 397.181 937 474 937 c 2
 766 937 l 1
 799 1097 l 1
 228 1097 l 1
 188 1226 l 1
 1076 1226 l 1
 1119 1097 l 1
 925 1097 l 1
 874 850 l 2
 869.848 829.888 852.667 820 824 820 c 2
 523 820 l 2
 426.2 820 402 761.799 402 710 c 0
 402 656.508 437.242 590 492 590 c 0
EndSplineSet
Ligature2: "'vatu' Vattu Variants in Devanagari lookup 4 subtable" u091D.half u0930.sub
EndChar

StartChar: u091E.half
Encoding: 65580 -1 186
Width: 851
GlyphClass: 3
Flags: HW
AnchorPoint: "N" 155 250 basechar 0
LayerCount: 2
Back
Fore
SplineSet
1202 1097 m 1
 231 1097 l 1
 191 1230 l 1
 1162 1230 l 1
 1202 1097 l 1
799 882 m 0
 972.553 882 1051 762.711 1051 651 c 1
 1159.32 666.963 1199.06 671.494 1230 688 c 1
 1202 544 l 1
 1139.63 532.707 1076.15 522.515 1006 519 c 1
 956.745 407.86 828.844 308 683 308 c 0
 440.6 308 311.392 565.216 279 630 c 1
 350 680 l 1
 387.052 547.846 517.331 442 665 442 c 0
 851.916 442 930 605.185 930 700 c 0
 930 736.8 916.8 792 864 792 c 0
 821.4 792 706.731 718.423 651 668 c 1
 556 788 l 1
 672.708 880.934 769.049 882 799 882 c 0
EndSplineSet
Ligature2: "'half' Half Forms in Devanagari lookup 3 subtable" u091E u094D
LCarets2: 1 0
EndChar

StartChar: u091F
Encoding: 2335 2335 187
Width: 872
GlyphClass: 2
Flags: HW
AnchorPoint: "N" 145 140 basechar 0
AnchorPoint: "B" 536 -48 basechar 0
LayerCount: 2
Back
Fore
SplineSet
255 500 m 0
 255 607.614 326.2 915 611 915 c 2
 791 915 l 2
 823.665 915 829.482 920.671 834 941 c 2
 867 1097 l 1
 230 1097 l 1
 190 1230 l 1
 1259 1230 l 1
 1306 1097 l 1
 1003 1097 l 1
 945 826 l 1
 939.667 795.333 919.333 780 884 780 c 2
 621 780 l 2
 461.117 780 374 563.188 374 438 c 0
 374 330.248 448.131 228 609 228 c 0
 684.6 228 813.495 251.681 987 343 c 1
 1017 218 l 1
 925.852 169.091 771 105 607 105 c 0
 382.644 105 255 340.837 255 500 c 0
EndSplineSet
EndChar

StartChar: u091F_u094D_u091F
Encoding: 65581 -1 188
Width: 932
GlyphClass: 2
Flags: HW
LayerCount: 2
Back
Fore
SplineSet
281 613 m 0
 281 924.701 506.447 957.274 728.21 957.274 c 0
 786.806 957.274 845.145 955 899 955 c 1
 929 1097 l 1
 232 1097 l 1
 192 1233 l 1
 1349 1233 l 1
 1386 1097 l 1
 1055 1097 l 1
 1011 889 l 2
 1003 847 981.333 826 946 826 c 0
 911.615 826 841.217 833.914 761.2 833.914 c 0
 589.695 833.914 374 797.558 374 569 c 0
 374 522.6 408.375 453 593 453 c 0
 740.585 453 918.584 497.928 989 554 c 1
 1035 437 l 1
 985.981 408.986 974.997 404.989 842 362 c 1
 799 157 l 2
 791 119 770 100 736 100 c 0
 713.809 100 655.105 106.961 585.153 106.961 c 0
 433.508 106.961 229 74.2491 229 -133 c 0
 229 -226.019 349.48 -253 452 -253 c 0
 608 -253 758.762 -198.047 842 -151 c 1
 888 -268 l 1
 839.849 -295.085 662.934 -375 470 -375 c 0
 235.375 -375 130 -206.405 130 -96 c 0
 130 195.818 349.227 226.07 544.771 226.07 c 0
 595.916 226.07 645.441 224 689 224 c 1
 712 336 l 1
 620 332 l 1
 384.278 332 281 506.54 281 613 c 0
EndSplineSet
EndChar

